<?xml version="1.0" encoding="utf-8" standalone="no"?>
<!DOCTYPE svg PUBLIC "-//W3C//DTD SVG 1.1//EN"
  "http://www.w3.org/Graphics/SVG/1.1/DTD/svg11.dtd">
<!-- Created with matplotlib (https://matplotlib.org/) -->
<svg height="345.6pt" version="1.1" viewBox="0 0 460.8 345.6" width="460.8pt" xmlns="http://www.w3.org/2000/svg" xmlns:xlink="http://www.w3.org/1999/xlink">
 <metadata>
  <rdf:RDF xmlns:cc="http://creativecommons.org/ns#" xmlns:dc="http://purl.org/dc/elements/1.1/" xmlns:rdf="http://www.w3.org/1999/02/22-rdf-syntax-ns#">
   <cc:Work>
    <dc:type rdf:resource="http://purl.org/dc/dcmitype/StillImage"/>
    <dc:date>2021-03-12T20:09:51.903595</dc:date>
    <dc:format>image/svg+xml</dc:format>
    <dc:creator>
     <cc:Agent>
      <dc:title>Matplotlib v3.3.0, https://matplotlib.org/</dc:title>
     </cc:Agent>
    </dc:creator>
   </cc:Work>
  </rdf:RDF>
 </metadata>
 <defs>
  <style type="text/css">*{stroke-linecap:butt;stroke-linejoin:round;}</style>
 </defs>
 <g id="figure_1">
  <g id="patch_1">
   <path d="M 0 345.6 
L 460.8 345.6 
L 460.8 0 
L 0 0 
z
" style="fill:#ffffff;"/>
  </g>
  <g id="axes_1">
   <g id="patch_2">
    <path d="M 122.96 303.64 
L 450 303.64 
L 450 10.8 
L 122.96 10.8 
z
" style="fill:#ffffff;"/>
   </g>
   <g id="patch_3">
    <path clip-path="url(#p0d096f9572)" d="M 122.96 290.329091 
L 325.111549 290.329091 
L 325.111549 282.074264 
L 122.96 282.074264 
z
" style="fill:#1f77b4;"/>
   </g>
   <g id="patch_4">
    <path clip-path="url(#p0d096f9572)" d="M 122.96 280.010557 
L 126.84332 280.010557 
L 126.84332 271.755729 
L 122.96 271.755729 
z
" style="fill:#1f77b4;"/>
   </g>
   <g id="patch_5">
    <path clip-path="url(#p0d096f9572)" d="M 122.96 269.692023 
L 127.981754 269.692023 
L 127.981754 261.437195 
L 122.96 261.437195 
z
" style="fill:#1f77b4;"/>
   </g>
   <g id="patch_6">
    <path clip-path="url(#p0d096f9572)" d="M 122.96 259.373488 
L 130.814623 259.373488 
L 130.814623 251.118661 
L 122.96 251.118661 
z
" style="fill:#1f77b4;"/>
   </g>
   <g id="patch_7">
    <path clip-path="url(#p0d096f9572)" d="M 122.96 249.054954 
L 186.775862 249.054954 
L 186.775862 240.800127 
L 122.96 240.800127 
z
" style="fill:#1f77b4;"/>
   </g>
   <g id="patch_8">
    <path clip-path="url(#p0d096f9572)" d="M 122.96 238.73642 
L 138.593094 238.73642 
L 138.593094 230.481593 
L 122.96 230.481593 
z
" style="fill:#1f77b4;"/>
   </g>
   <g id="patch_9">
    <path clip-path="url(#p0d096f9572)" d="M 122.96 228.417886 
L 128.396648 228.417886 
L 128.396648 220.163058 
L 122.96 220.163058 
z
" style="fill:#1f77b4;"/>
   </g>
   <g id="patch_10">
    <path clip-path="url(#p0d096f9572)" d="M 122.96 218.099352 
L 122.96 218.099352 
L 122.96 209.844524 
L 122.96 209.844524 
z
" style="fill:#1f77b4;"/>
   </g>
   <g id="patch_11">
    <path clip-path="url(#p0d096f9572)" d="M 122.96 207.780817 
L 124.973573 207.780817 
L 124.973573 199.52599 
L 122.96 199.52599 
z
" style="fill:#1f77b4;"/>
   </g>
   <g id="patch_12">
    <path clip-path="url(#p0d096f9572)" d="M 122.96 197.462283 
L 190.794034 197.462283 
L 190.794034 189.207456 
L 122.96 189.207456 
z
" style="fill:#1f77b4;"/>
   </g>
   <g id="patch_13">
    <path clip-path="url(#p0d096f9572)" d="M 122.96 187.143749 
L 434.426667 187.143749 
L 434.426667 178.888922 
L 122.96 178.888922 
z
" style="fill:#1f77b4;"/>
   </g>
   <g id="patch_14">
    <path clip-path="url(#p0d096f9572)" d="M 122.96 176.825215 
L 242.114957 176.825215 
L 242.114957 168.570388 
L 122.96 168.570388 
z
" style="fill:#1f77b4;"/>
   </g>
   <g id="patch_15">
    <path clip-path="url(#p0d096f9572)" d="M 122.96 166.506681 
L 186.691442 166.506681 
L 186.691442 158.251853 
L 122.96 158.251853 
z
" style="fill:#1f77b4;"/>
   </g>
   <g id="patch_16">
    <path clip-path="url(#p0d096f9572)" d="M 122.96 156.188147 
L 122.96 156.188147 
L 122.96 147.933319 
L 122.96 147.933319 
z
" style="fill:#1f77b4;"/>
   </g>
   <g id="patch_17">
    <path clip-path="url(#p0d096f9572)" d="M 122.96 145.869612 
L 421.811784 145.869612 
L 421.811784 137.614785 
L 122.96 137.614785 
z
" style="fill:#1f77b4;"/>
   </g>
   <g id="patch_18">
    <path clip-path="url(#p0d096f9572)" d="M 122.96 135.551078 
L 125.961122 135.551078 
L 125.961122 127.296251 
L 122.96 127.296251 
z
" style="fill:#1f77b4;"/>
   </g>
   <g id="patch_19">
    <path clip-path="url(#p0d096f9572)" d="M 122.96 125.232544 
L 143.061635 125.232544 
L 143.061635 116.977717 
L 122.96 116.977717 
z
" style="fill:#1f77b4;"/>
   </g>
   <g id="patch_20">
    <path clip-path="url(#p0d096f9572)" d="M 122.96 114.91401 
L 133.775688 114.91401 
L 133.775688 106.659183 
L 122.96 106.659183 
z
" style="fill:#1f77b4;"/>
   </g>
   <g id="patch_21">
    <path clip-path="url(#p0d096f9572)" d="M 122.96 104.595476 
L 129.635682 104.595476 
L 129.635682 96.340648 
L 122.96 96.340648 
z
" style="fill:#1f77b4;"/>
   </g>
   <g id="patch_22">
    <path clip-path="url(#p0d096f9572)" d="M 122.96 94.276942 
L 128.798005 94.276942 
L 128.798005 86.022114 
L 122.96 86.022114 
z
" style="fill:#1f77b4;"/>
   </g>
   <g id="patch_23">
    <path clip-path="url(#p0d096f9572)" d="M 122.96 83.958407 
L 125.942249 83.958407 
L 125.942249 75.70358 
L 122.96 75.70358 
z
" style="fill:#1f77b4;"/>
   </g>
   <g id="patch_24">
    <path clip-path="url(#p0d096f9572)" d="M 122.96 73.639873 
L 139.092114 73.639873 
L 139.092114 65.385046 
L 122.96 65.385046 
z
" style="fill:#1f77b4;"/>
   </g>
   <g id="patch_25">
    <path clip-path="url(#p0d096f9572)" d="M 122.96 63.321339 
L 122.96 63.321339 
L 122.96 55.066512 
L 122.96 55.066512 
z
" style="fill:#1f77b4;"/>
   </g>
   <g id="patch_26">
    <path clip-path="url(#p0d096f9572)" d="M 122.96 53.002805 
L 124.973573 53.002805 
L 124.973573 44.747977 
L 122.96 44.747977 
z
" style="fill:#1f77b4;"/>
   </g>
   <g id="patch_27">
    <path clip-path="url(#p0d096f9572)" d="M 122.96 42.684271 
L 122.96 42.684271 
L 122.96 34.429443 
L 122.96 34.429443 
z
" style="fill:#1f77b4;"/>
   </g>
   <g id="patch_28">
    <path clip-path="url(#p0d096f9572)" d="M 122.96 32.365736 
L 124.47018 32.365736 
L 124.47018 24.110909 
L 122.96 24.110909 
z
" style="fill:#1f77b4;"/>
   </g>
   <g id="matplotlib.axis_1">
    <g id="xtick_1">
     <g id="line2d_1">
      <defs>
       <path d="M 0 0 
L 0 3.5 
" id="m837c412ede" style="stroke:#000000;stroke-width:0.8;"/>
      </defs>
      <g>
       <use style="stroke:#000000;stroke-width:0.8;" x="122.96" xlink:href="#m837c412ede" y="303.64"/>
      </g>
     </g>
     <g id="text_1">
      <!-- 0.00 -->
      <g transform="translate(111.827188 318.238437)scale(0.1 -0.1)">
       <defs>
        <path d="M 31.78125 66.40625 
Q 24.171875 66.40625 20.328125 58.90625 
Q 16.5 51.421875 16.5 36.375 
Q 16.5 21.390625 20.328125 13.890625 
Q 24.171875 6.390625 31.78125 6.390625 
Q 39.453125 6.390625 43.28125 13.890625 
Q 47.125 21.390625 47.125 36.375 
Q 47.125 51.421875 43.28125 58.90625 
Q 39.453125 66.40625 31.78125 66.40625 
z
M 31.78125 74.21875 
Q 44.046875 74.21875 50.515625 64.515625 
Q 56.984375 54.828125 56.984375 36.375 
Q 56.984375 17.96875 50.515625 8.265625 
Q 44.046875 -1.421875 31.78125 -1.421875 
Q 19.53125 -1.421875 13.0625 8.265625 
Q 6.59375 17.96875 6.59375 36.375 
Q 6.59375 54.828125 13.0625 64.515625 
Q 19.53125 74.21875 31.78125 74.21875 
z
" id="DejaVuSans-48"/>
        <path d="M 10.6875 12.40625 
L 21 12.40625 
L 21 0 
L 10.6875 0 
z
" id="DejaVuSans-46"/>
       </defs>
       <use xlink:href="#DejaVuSans-48"/>
       <use x="63.623047" xlink:href="#DejaVuSans-46"/>
       <use x="95.410156" xlink:href="#DejaVuSans-48"/>
       <use x="159.033203" xlink:href="#DejaVuSans-48"/>
      </g>
     </g>
    </g>
    <g id="xtick_2">
     <g id="line2d_2">
      <g>
       <use style="stroke:#000000;stroke-width:0.8;" x="184.755978" xlink:href="#m837c412ede" y="303.64"/>
      </g>
     </g>
     <g id="text_2">
      <!-- 0.05 -->
      <g transform="translate(173.623165 318.238437)scale(0.1 -0.1)">
       <defs>
        <path d="M 10.796875 72.90625 
L 49.515625 72.90625 
L 49.515625 64.59375 
L 19.828125 64.59375 
L 19.828125 46.734375 
Q 21.96875 47.46875 24.109375 47.828125 
Q 26.265625 48.1875 28.421875 48.1875 
Q 40.625 48.1875 47.75 41.5 
Q 54.890625 34.8125 54.890625 23.390625 
Q 54.890625 11.625 47.5625 5.09375 
Q 40.234375 -1.421875 26.90625 -1.421875 
Q 22.3125 -1.421875 17.546875 -0.640625 
Q 12.796875 0.140625 7.71875 1.703125 
L 7.71875 11.625 
Q 12.109375 9.234375 16.796875 8.0625 
Q 21.484375 6.890625 26.703125 6.890625 
Q 35.15625 6.890625 40.078125 11.328125 
Q 45.015625 15.765625 45.015625 23.390625 
Q 45.015625 31 40.078125 35.4375 
Q 35.15625 39.890625 26.703125 39.890625 
Q 22.75 39.890625 18.8125 39.015625 
Q 14.890625 38.140625 10.796875 36.28125 
z
" id="DejaVuSans-53"/>
       </defs>
       <use xlink:href="#DejaVuSans-48"/>
       <use x="63.623047" xlink:href="#DejaVuSans-46"/>
       <use x="95.410156" xlink:href="#DejaVuSans-48"/>
       <use x="159.033203" xlink:href="#DejaVuSans-53"/>
      </g>
     </g>
    </g>
    <g id="xtick_3">
     <g id="line2d_3">
      <g>
       <use style="stroke:#000000;stroke-width:0.8;" x="246.551955" xlink:href="#m837c412ede" y="303.64"/>
      </g>
     </g>
     <g id="text_3">
      <!-- 0.10 -->
      <g transform="translate(235.419143 318.238437)scale(0.1 -0.1)">
       <defs>
        <path d="M 12.40625 8.296875 
L 28.515625 8.296875 
L 28.515625 63.921875 
L 10.984375 60.40625 
L 10.984375 69.390625 
L 28.421875 72.90625 
L 38.28125 72.90625 
L 38.28125 8.296875 
L 54.390625 8.296875 
L 54.390625 0 
L 12.40625 0 
z
" id="DejaVuSans-49"/>
       </defs>
       <use xlink:href="#DejaVuSans-48"/>
       <use x="63.623047" xlink:href="#DejaVuSans-46"/>
       <use x="95.410156" xlink:href="#DejaVuSans-49"/>
       <use x="159.033203" xlink:href="#DejaVuSans-48"/>
      </g>
     </g>
    </g>
    <g id="xtick_4">
     <g id="line2d_4">
      <g>
       <use style="stroke:#000000;stroke-width:0.8;" x="308.347933" xlink:href="#m837c412ede" y="303.64"/>
      </g>
     </g>
     <g id="text_4">
      <!-- 0.15 -->
      <g transform="translate(297.215121 318.238437)scale(0.1 -0.1)">
       <use xlink:href="#DejaVuSans-48"/>
       <use x="63.623047" xlink:href="#DejaVuSans-46"/>
       <use x="95.410156" xlink:href="#DejaVuSans-49"/>
       <use x="159.033203" xlink:href="#DejaVuSans-53"/>
      </g>
     </g>
    </g>
    <g id="xtick_5">
     <g id="line2d_5">
      <g>
       <use style="stroke:#000000;stroke-width:0.8;" x="370.143911" xlink:href="#m837c412ede" y="303.64"/>
      </g>
     </g>
     <g id="text_5">
      <!-- 0.20 -->
      <g transform="translate(359.011098 318.238437)scale(0.1 -0.1)">
       <defs>
        <path d="M 19.1875 8.296875 
L 53.609375 8.296875 
L 53.609375 0 
L 7.328125 0 
L 7.328125 8.296875 
Q 12.9375 14.109375 22.625 23.890625 
Q 32.328125 33.6875 34.8125 36.53125 
Q 39.546875 41.84375 41.421875 45.53125 
Q 43.3125 49.21875 43.3125 52.78125 
Q 43.3125 58.59375 39.234375 62.25 
Q 35.15625 65.921875 28.609375 65.921875 
Q 23.96875 65.921875 18.8125 64.3125 
Q 13.671875 62.703125 7.8125 59.421875 
L 7.8125 69.390625 
Q 13.765625 71.78125 18.9375 73 
Q 24.125 74.21875 28.421875 74.21875 
Q 39.75 74.21875 46.484375 68.546875 
Q 53.21875 62.890625 53.21875 53.421875 
Q 53.21875 48.921875 51.53125 44.890625 
Q 49.859375 40.875 45.40625 35.40625 
Q 44.1875 33.984375 37.640625 27.21875 
Q 31.109375 20.453125 19.1875 8.296875 
z
" id="DejaVuSans-50"/>
       </defs>
       <use xlink:href="#DejaVuSans-48"/>
       <use x="63.623047" xlink:href="#DejaVuSans-46"/>
       <use x="95.410156" xlink:href="#DejaVuSans-50"/>
       <use x="159.033203" xlink:href="#DejaVuSans-48"/>
      </g>
     </g>
    </g>
    <g id="xtick_6">
     <g id="line2d_6">
      <g>
       <use style="stroke:#000000;stroke-width:0.8;" x="431.939889" xlink:href="#m837c412ede" y="303.64"/>
      </g>
     </g>
     <g id="text_6">
      <!-- 0.25 -->
      <g transform="translate(420.807076 318.238437)scale(0.1 -0.1)">
       <use xlink:href="#DejaVuSans-48"/>
       <use x="63.623047" xlink:href="#DejaVuSans-46"/>
       <use x="95.410156" xlink:href="#DejaVuSans-50"/>
       <use x="159.033203" xlink:href="#DejaVuSans-53"/>
      </g>
     </g>
    </g>
    <g id="text_7">
     <!-- Importance of feature -->
     <g transform="translate(231.78 331.916562)scale(0.1 -0.1)">
      <defs>
       <path d="M 9.8125 72.90625 
L 19.671875 72.90625 
L 19.671875 0 
L 9.8125 0 
z
" id="DejaVuSans-73"/>
       <path d="M 52 44.1875 
Q 55.375 50.25 60.0625 53.125 
Q 64.75 56 71.09375 56 
Q 79.640625 56 84.28125 50.015625 
Q 88.921875 44.046875 88.921875 33.015625 
L 88.921875 0 
L 79.890625 0 
L 79.890625 32.71875 
Q 79.890625 40.578125 77.09375 44.375 
Q 74.3125 48.1875 68.609375 48.1875 
Q 61.625 48.1875 57.5625 43.546875 
Q 53.515625 38.921875 53.515625 30.90625 
L 53.515625 0 
L 44.484375 0 
L 44.484375 32.71875 
Q 44.484375 40.625 41.703125 44.40625 
Q 38.921875 48.1875 33.109375 48.1875 
Q 26.21875 48.1875 22.15625 43.53125 
Q 18.109375 38.875 18.109375 30.90625 
L 18.109375 0 
L 9.078125 0 
L 9.078125 54.6875 
L 18.109375 54.6875 
L 18.109375 46.1875 
Q 21.1875 51.21875 25.484375 53.609375 
Q 29.78125 56 35.6875 56 
Q 41.65625 56 45.828125 52.96875 
Q 50 49.953125 52 44.1875 
z
" id="DejaVuSans-109"/>
       <path d="M 18.109375 8.203125 
L 18.109375 -20.796875 
L 9.078125 -20.796875 
L 9.078125 54.6875 
L 18.109375 54.6875 
L 18.109375 46.390625 
Q 20.953125 51.265625 25.265625 53.625 
Q 29.59375 56 35.59375 56 
Q 45.5625 56 51.78125 48.09375 
Q 58.015625 40.1875 58.015625 27.296875 
Q 58.015625 14.40625 51.78125 6.484375 
Q 45.5625 -1.421875 35.59375 -1.421875 
Q 29.59375 -1.421875 25.265625 0.953125 
Q 20.953125 3.328125 18.109375 8.203125 
z
M 48.6875 27.296875 
Q 48.6875 37.203125 44.609375 42.84375 
Q 40.53125 48.484375 33.40625 48.484375 
Q 26.265625 48.484375 22.1875 42.84375 
Q 18.109375 37.203125 18.109375 27.296875 
Q 18.109375 17.390625 22.1875 11.75 
Q 26.265625 6.109375 33.40625 6.109375 
Q 40.53125 6.109375 44.609375 11.75 
Q 48.6875 17.390625 48.6875 27.296875 
z
" id="DejaVuSans-112"/>
       <path d="M 30.609375 48.390625 
Q 23.390625 48.390625 19.1875 42.75 
Q 14.984375 37.109375 14.984375 27.296875 
Q 14.984375 17.484375 19.15625 11.84375 
Q 23.34375 6.203125 30.609375 6.203125 
Q 37.796875 6.203125 41.984375 11.859375 
Q 46.1875 17.53125 46.1875 27.296875 
Q 46.1875 37.015625 41.984375 42.703125 
Q 37.796875 48.390625 30.609375 48.390625 
z
M 30.609375 56 
Q 42.328125 56 49.015625 48.375 
Q 55.71875 40.765625 55.71875 27.296875 
Q 55.71875 13.875 49.015625 6.21875 
Q 42.328125 -1.421875 30.609375 -1.421875 
Q 18.84375 -1.421875 12.171875 6.21875 
Q 5.515625 13.875 5.515625 27.296875 
Q 5.515625 40.765625 12.171875 48.375 
Q 18.84375 56 30.609375 56 
z
" id="DejaVuSans-111"/>
       <path d="M 41.109375 46.296875 
Q 39.59375 47.171875 37.8125 47.578125 
Q 36.03125 48 33.890625 48 
Q 26.265625 48 22.1875 43.046875 
Q 18.109375 38.09375 18.109375 28.8125 
L 18.109375 0 
L 9.078125 0 
L 9.078125 54.6875 
L 18.109375 54.6875 
L 18.109375 46.1875 
Q 20.953125 51.171875 25.484375 53.578125 
Q 30.03125 56 36.53125 56 
Q 37.453125 56 38.578125 55.875 
Q 39.703125 55.765625 41.0625 55.515625 
z
" id="DejaVuSans-114"/>
       <path d="M 18.3125 70.21875 
L 18.3125 54.6875 
L 36.8125 54.6875 
L 36.8125 47.703125 
L 18.3125 47.703125 
L 18.3125 18.015625 
Q 18.3125 11.328125 20.140625 9.421875 
Q 21.96875 7.515625 27.59375 7.515625 
L 36.8125 7.515625 
L 36.8125 0 
L 27.59375 0 
Q 17.1875 0 13.234375 3.875 
Q 9.28125 7.765625 9.28125 18.015625 
L 9.28125 47.703125 
L 2.6875 47.703125 
L 2.6875 54.6875 
L 9.28125 54.6875 
L 9.28125 70.21875 
z
" id="DejaVuSans-116"/>
       <path d="M 34.28125 27.484375 
Q 23.390625 27.484375 19.1875 25 
Q 14.984375 22.515625 14.984375 16.5 
Q 14.984375 11.71875 18.140625 8.90625 
Q 21.296875 6.109375 26.703125 6.109375 
Q 34.1875 6.109375 38.703125 11.40625 
Q 43.21875 16.703125 43.21875 25.484375 
L 43.21875 27.484375 
z
M 52.203125 31.203125 
L 52.203125 0 
L 43.21875 0 
L 43.21875 8.296875 
Q 40.140625 3.328125 35.546875 0.953125 
Q 30.953125 -1.421875 24.3125 -1.421875 
Q 15.921875 -1.421875 10.953125 3.296875 
Q 6 8.015625 6 15.921875 
Q 6 25.140625 12.171875 29.828125 
Q 18.359375 34.515625 30.609375 34.515625 
L 43.21875 34.515625 
L 43.21875 35.40625 
Q 43.21875 41.609375 39.140625 45 
Q 35.0625 48.390625 27.6875 48.390625 
Q 23 48.390625 18.546875 47.265625 
Q 14.109375 46.140625 10.015625 43.890625 
L 10.015625 52.203125 
Q 14.9375 54.109375 19.578125 55.046875 
Q 24.21875 56 28.609375 56 
Q 40.484375 56 46.34375 49.84375 
Q 52.203125 43.703125 52.203125 31.203125 
z
" id="DejaVuSans-97"/>
       <path d="M 54.890625 33.015625 
L 54.890625 0 
L 45.90625 0 
L 45.90625 32.71875 
Q 45.90625 40.484375 42.875 44.328125 
Q 39.84375 48.1875 33.796875 48.1875 
Q 26.515625 48.1875 22.3125 43.546875 
Q 18.109375 38.921875 18.109375 30.90625 
L 18.109375 0 
L 9.078125 0 
L 9.078125 54.6875 
L 18.109375 54.6875 
L 18.109375 46.1875 
Q 21.34375 51.125 25.703125 53.5625 
Q 30.078125 56 35.796875 56 
Q 45.21875 56 50.046875 50.171875 
Q 54.890625 44.34375 54.890625 33.015625 
z
" id="DejaVuSans-110"/>
       <path d="M 48.78125 52.59375 
L 48.78125 44.1875 
Q 44.96875 46.296875 41.140625 47.34375 
Q 37.3125 48.390625 33.40625 48.390625 
Q 24.65625 48.390625 19.8125 42.84375 
Q 14.984375 37.3125 14.984375 27.296875 
Q 14.984375 17.28125 19.8125 11.734375 
Q 24.65625 6.203125 33.40625 6.203125 
Q 37.3125 6.203125 41.140625 7.25 
Q 44.96875 8.296875 48.78125 10.40625 
L 48.78125 2.09375 
Q 45.015625 0.34375 40.984375 -0.53125 
Q 36.96875 -1.421875 32.421875 -1.421875 
Q 20.0625 -1.421875 12.78125 6.34375 
Q 5.515625 14.109375 5.515625 27.296875 
Q 5.515625 40.671875 12.859375 48.328125 
Q 20.21875 56 33.015625 56 
Q 37.15625 56 41.109375 55.140625 
Q 45.0625 54.296875 48.78125 52.59375 
z
" id="DejaVuSans-99"/>
       <path d="M 56.203125 29.59375 
L 56.203125 25.203125 
L 14.890625 25.203125 
Q 15.484375 15.921875 20.484375 11.0625 
Q 25.484375 6.203125 34.421875 6.203125 
Q 39.59375 6.203125 44.453125 7.46875 
Q 49.3125 8.734375 54.109375 11.28125 
L 54.109375 2.78125 
Q 49.265625 0.734375 44.1875 -0.34375 
Q 39.109375 -1.421875 33.890625 -1.421875 
Q 20.796875 -1.421875 13.15625 6.1875 
Q 5.515625 13.8125 5.515625 26.8125 
Q 5.515625 40.234375 12.765625 48.109375 
Q 20.015625 56 32.328125 56 
Q 43.359375 56 49.78125 48.890625 
Q 56.203125 41.796875 56.203125 29.59375 
z
M 47.21875 32.234375 
Q 47.125 39.59375 43.09375 43.984375 
Q 39.0625 48.390625 32.421875 48.390625 
Q 24.90625 48.390625 20.390625 44.140625 
Q 15.875 39.890625 15.1875 32.171875 
z
" id="DejaVuSans-101"/>
       <path id="DejaVuSans-32"/>
       <path d="M 37.109375 75.984375 
L 37.109375 68.5 
L 28.515625 68.5 
Q 23.6875 68.5 21.796875 66.546875 
Q 19.921875 64.59375 19.921875 59.515625 
L 19.921875 54.6875 
L 34.71875 54.6875 
L 34.71875 47.703125 
L 19.921875 47.703125 
L 19.921875 0 
L 10.890625 0 
L 10.890625 47.703125 
L 2.296875 47.703125 
L 2.296875 54.6875 
L 10.890625 54.6875 
L 10.890625 58.5 
Q 10.890625 67.625 15.140625 71.796875 
Q 19.390625 75.984375 28.609375 75.984375 
z
" id="DejaVuSans-102"/>
       <path d="M 8.5 21.578125 
L 8.5 54.6875 
L 17.484375 54.6875 
L 17.484375 21.921875 
Q 17.484375 14.15625 20.5 10.265625 
Q 23.53125 6.390625 29.59375 6.390625 
Q 36.859375 6.390625 41.078125 11.03125 
Q 45.3125 15.671875 45.3125 23.6875 
L 45.3125 54.6875 
L 54.296875 54.6875 
L 54.296875 0 
L 45.3125 0 
L 45.3125 8.40625 
Q 42.046875 3.421875 37.71875 1 
Q 33.40625 -1.421875 27.6875 -1.421875 
Q 18.265625 -1.421875 13.375 4.4375 
Q 8.5 10.296875 8.5 21.578125 
z
M 31.109375 56 
z
" id="DejaVuSans-117"/>
      </defs>
      <use xlink:href="#DejaVuSans-73"/>
      <use x="29.492188" xlink:href="#DejaVuSans-109"/>
      <use x="126.904297" xlink:href="#DejaVuSans-112"/>
      <use x="190.380859" xlink:href="#DejaVuSans-111"/>
      <use x="251.5625" xlink:href="#DejaVuSans-114"/>
      <use x="292.675781" xlink:href="#DejaVuSans-116"/>
      <use x="331.884766" xlink:href="#DejaVuSans-97"/>
      <use x="393.164062" xlink:href="#DejaVuSans-110"/>
      <use x="456.542969" xlink:href="#DejaVuSans-99"/>
      <use x="511.523438" xlink:href="#DejaVuSans-101"/>
      <use x="573.046875" xlink:href="#DejaVuSans-32"/>
      <use x="604.833984" xlink:href="#DejaVuSans-111"/>
      <use x="666.015625" xlink:href="#DejaVuSans-102"/>
      <use x="701.220703" xlink:href="#DejaVuSans-32"/>
      <use x="733.007812" xlink:href="#DejaVuSans-102"/>
      <use x="768.212891" xlink:href="#DejaVuSans-101"/>
      <use x="829.736328" xlink:href="#DejaVuSans-97"/>
      <use x="891.015625" xlink:href="#DejaVuSans-116"/>
      <use x="930.224609" xlink:href="#DejaVuSans-117"/>
      <use x="993.603516" xlink:href="#DejaVuSans-114"/>
      <use x="1032.466797" xlink:href="#DejaVuSans-101"/>
     </g>
    </g>
   </g>
   <g id="matplotlib.axis_2">
    <g id="ytick_1">
     <g id="line2d_7">
      <defs>
       <path d="M 0 0 
L -3.5 0 
" id="m57a62e6a3a" style="stroke:#000000;stroke-width:0.8;"/>
      </defs>
      <g>
       <use style="stroke:#000000;stroke-width:0.8;" x="122.96" xlink:href="#m57a62e6a3a" y="286.201677"/>
      </g>
     </g>
     <g id="text_8">
      <!-- major_axis_length -->
      <g transform="translate(25.174063 290.000896)scale(0.1 -0.1)">
       <defs>
        <path d="M 9.421875 54.6875 
L 18.40625 54.6875 
L 18.40625 -0.984375 
Q 18.40625 -11.421875 14.421875 -16.109375 
Q 10.453125 -20.796875 1.609375 -20.796875 
L -1.8125 -20.796875 
L -1.8125 -13.1875 
L 0.59375 -13.1875 
Q 5.71875 -13.1875 7.5625 -10.8125 
Q 9.421875 -8.453125 9.421875 -0.984375 
z
M 9.421875 75.984375 
L 18.40625 75.984375 
L 18.40625 64.59375 
L 9.421875 64.59375 
z
" id="DejaVuSans-106"/>
        <path d="M 50.984375 -16.609375 
L 50.984375 -23.578125 
L -0.984375 -23.578125 
L -0.984375 -16.609375 
z
" id="DejaVuSans-95"/>
        <path d="M 54.890625 54.6875 
L 35.109375 28.078125 
L 55.90625 0 
L 45.3125 0 
L 29.390625 21.484375 
L 13.484375 0 
L 2.875 0 
L 24.125 28.609375 
L 4.6875 54.6875 
L 15.28125 54.6875 
L 29.78125 35.203125 
L 44.28125 54.6875 
z
" id="DejaVuSans-120"/>
        <path d="M 9.421875 54.6875 
L 18.40625 54.6875 
L 18.40625 0 
L 9.421875 0 
z
M 9.421875 75.984375 
L 18.40625 75.984375 
L 18.40625 64.59375 
L 9.421875 64.59375 
z
" id="DejaVuSans-105"/>
        <path d="M 44.28125 53.078125 
L 44.28125 44.578125 
Q 40.484375 46.53125 36.375 47.5 
Q 32.28125 48.484375 27.875 48.484375 
Q 21.1875 48.484375 17.84375 46.4375 
Q 14.5 44.390625 14.5 40.28125 
Q 14.5 37.15625 16.890625 35.375 
Q 19.28125 33.59375 26.515625 31.984375 
L 29.59375 31.296875 
Q 39.15625 29.25 43.1875 25.515625 
Q 47.21875 21.78125 47.21875 15.09375 
Q 47.21875 7.46875 41.1875 3.015625 
Q 35.15625 -1.421875 24.609375 -1.421875 
Q 20.21875 -1.421875 15.453125 -0.5625 
Q 10.6875 0.296875 5.421875 2 
L 5.421875 11.28125 
Q 10.40625 8.6875 15.234375 7.390625 
Q 20.0625 6.109375 24.8125 6.109375 
Q 31.15625 6.109375 34.5625 8.28125 
Q 37.984375 10.453125 37.984375 14.40625 
Q 37.984375 18.0625 35.515625 20.015625 
Q 33.0625 21.96875 24.703125 23.78125 
L 21.578125 24.515625 
Q 13.234375 26.265625 9.515625 29.90625 
Q 5.8125 33.546875 5.8125 39.890625 
Q 5.8125 47.609375 11.28125 51.796875 
Q 16.75 56 26.8125 56 
Q 31.78125 56 36.171875 55.265625 
Q 40.578125 54.546875 44.28125 53.078125 
z
" id="DejaVuSans-115"/>
        <path d="M 9.421875 75.984375 
L 18.40625 75.984375 
L 18.40625 0 
L 9.421875 0 
z
" id="DejaVuSans-108"/>
        <path d="M 45.40625 27.984375 
Q 45.40625 37.75 41.375 43.109375 
Q 37.359375 48.484375 30.078125 48.484375 
Q 22.859375 48.484375 18.828125 43.109375 
Q 14.796875 37.75 14.796875 27.984375 
Q 14.796875 18.265625 18.828125 12.890625 
Q 22.859375 7.515625 30.078125 7.515625 
Q 37.359375 7.515625 41.375 12.890625 
Q 45.40625 18.265625 45.40625 27.984375 
z
M 54.390625 6.78125 
Q 54.390625 -7.171875 48.1875 -13.984375 
Q 42 -20.796875 29.203125 -20.796875 
Q 24.46875 -20.796875 20.265625 -20.09375 
Q 16.0625 -19.390625 12.109375 -17.921875 
L 12.109375 -9.1875 
Q 16.0625 -11.328125 19.921875 -12.34375 
Q 23.78125 -13.375 27.78125 -13.375 
Q 36.625 -13.375 41.015625 -8.765625 
Q 45.40625 -4.15625 45.40625 5.171875 
L 45.40625 9.625 
Q 42.625 4.78125 38.28125 2.390625 
Q 33.9375 0 27.875 0 
Q 17.828125 0 11.671875 7.65625 
Q 5.515625 15.328125 5.515625 27.984375 
Q 5.515625 40.671875 11.671875 48.328125 
Q 17.828125 56 27.875 56 
Q 33.9375 56 38.28125 53.609375 
Q 42.625 51.21875 45.40625 46.390625 
L 45.40625 54.6875 
L 54.390625 54.6875 
z
" id="DejaVuSans-103"/>
        <path d="M 54.890625 33.015625 
L 54.890625 0 
L 45.90625 0 
L 45.90625 32.71875 
Q 45.90625 40.484375 42.875 44.328125 
Q 39.84375 48.1875 33.796875 48.1875 
Q 26.515625 48.1875 22.3125 43.546875 
Q 18.109375 38.921875 18.109375 30.90625 
L 18.109375 0 
L 9.078125 0 
L 9.078125 75.984375 
L 18.109375 75.984375 
L 18.109375 46.1875 
Q 21.34375 51.125 25.703125 53.5625 
Q 30.078125 56 35.796875 56 
Q 45.21875 56 50.046875 50.171875 
Q 54.890625 44.34375 54.890625 33.015625 
z
" id="DejaVuSans-104"/>
       </defs>
       <use xlink:href="#DejaVuSans-109"/>
       <use x="97.412109" xlink:href="#DejaVuSans-97"/>
       <use x="158.691406" xlink:href="#DejaVuSans-106"/>
       <use x="186.474609" xlink:href="#DejaVuSans-111"/>
       <use x="247.65625" xlink:href="#DejaVuSans-114"/>
       <use x="288.769531" xlink:href="#DejaVuSans-95"/>
       <use x="338.769531" xlink:href="#DejaVuSans-97"/>
       <use x="400.048828" xlink:href="#DejaVuSans-120"/>
       <use x="459.228516" xlink:href="#DejaVuSans-105"/>
       <use x="487.011719" xlink:href="#DejaVuSans-115"/>
       <use x="539.111328" xlink:href="#DejaVuSans-95"/>
       <use x="589.111328" xlink:href="#DejaVuSans-108"/>
       <use x="616.894531" xlink:href="#DejaVuSans-101"/>
       <use x="678.417969" xlink:href="#DejaVuSans-110"/>
       <use x="741.796875" xlink:href="#DejaVuSans-103"/>
       <use x="805.273438" xlink:href="#DejaVuSans-116"/>
       <use x="844.482422" xlink:href="#DejaVuSans-104"/>
      </g>
     </g>
    </g>
    <g id="ytick_2">
     <g id="line2d_8">
      <g>
       <use style="stroke:#000000;stroke-width:0.8;" x="122.96" xlink:href="#m57a62e6a3a" y="275.883143"/>
      </g>
     </g>
     <g id="text_9">
      <!-- minor_axis_length -->
      <g transform="translate(24.964687 279.682362)scale(0.1 -0.1)">
       <use xlink:href="#DejaVuSans-109"/>
       <use x="97.412109" xlink:href="#DejaVuSans-105"/>
       <use x="125.195312" xlink:href="#DejaVuSans-110"/>
       <use x="188.574219" xlink:href="#DejaVuSans-111"/>
       <use x="249.755859" xlink:href="#DejaVuSans-114"/>
       <use x="290.869141" xlink:href="#DejaVuSans-95"/>
       <use x="340.869141" xlink:href="#DejaVuSans-97"/>
       <use x="402.148438" xlink:href="#DejaVuSans-120"/>
       <use x="461.328125" xlink:href="#DejaVuSans-105"/>
       <use x="489.111328" xlink:href="#DejaVuSans-115"/>
       <use x="541.210938" xlink:href="#DejaVuSans-95"/>
       <use x="591.210938" xlink:href="#DejaVuSans-108"/>
       <use x="618.994141" xlink:href="#DejaVuSans-101"/>
       <use x="680.517578" xlink:href="#DejaVuSans-110"/>
       <use x="743.896484" xlink:href="#DejaVuSans-103"/>
       <use x="807.373047" xlink:href="#DejaVuSans-116"/>
       <use x="846.582031" xlink:href="#DejaVuSans-104"/>
      </g>
     </g>
    </g>
    <g id="ytick_3">
     <g id="line2d_9">
      <g>
       <use style="stroke:#000000;stroke-width:0.8;" x="122.96" xlink:href="#m57a62e6a3a" y="265.564609"/>
      </g>
     </g>
     <g id="text_10">
      <!-- area -->
      <g transform="translate(93.664688 269.363828)scale(0.1 -0.1)">
       <use xlink:href="#DejaVuSans-97"/>
       <use x="61.279297" xlink:href="#DejaVuSans-114"/>
       <use x="100.142578" xlink:href="#DejaVuSans-101"/>
       <use x="161.666016" xlink:href="#DejaVuSans-97"/>
      </g>
     </g>
    </g>
    <g id="ytick_4">
     <g id="line2d_10">
      <g>
       <use style="stroke:#000000;stroke-width:0.8;" x="122.96" xlink:href="#m57a62e6a3a" y="255.246075"/>
      </g>
     </g>
     <g id="text_11">
      <!-- perimeter -->
      <g transform="translate(66.49125 259.045293)scale(0.1 -0.1)">
       <use xlink:href="#DejaVuSans-112"/>
       <use x="63.476562" xlink:href="#DejaVuSans-101"/>
       <use x="125" xlink:href="#DejaVuSans-114"/>
       <use x="166.113281" xlink:href="#DejaVuSans-105"/>
       <use x="193.896484" xlink:href="#DejaVuSans-109"/>
       <use x="291.308594" xlink:href="#DejaVuSans-101"/>
       <use x="352.832031" xlink:href="#DejaVuSans-116"/>
       <use x="392.041016" xlink:href="#DejaVuSans-101"/>
       <use x="453.564453" xlink:href="#DejaVuSans-114"/>
      </g>
     </g>
    </g>
    <g id="ytick_5">
     <g id="line2d_11">
      <g>
       <use style="stroke:#000000;stroke-width:0.8;" x="122.96" xlink:href="#m57a62e6a3a" y="244.927541"/>
      </g>
     </g>
     <g id="text_12">
      <!-- ratio -->
      <g transform="translate(92.90375 248.726759)scale(0.1 -0.1)">
       <use xlink:href="#DejaVuSans-114"/>
       <use x="41.113281" xlink:href="#DejaVuSans-97"/>
       <use x="102.392578" xlink:href="#DejaVuSans-116"/>
       <use x="141.601562" xlink:href="#DejaVuSans-105"/>
       <use x="169.384766" xlink:href="#DejaVuSans-111"/>
      </g>
     </g>
    </g>
    <g id="ytick_6">
     <g id="line2d_12">
      <g>
       <use style="stroke:#000000;stroke-width:0.8;" x="122.96" xlink:href="#m57a62e6a3a" y="234.609006"/>
      </g>
     </g>
     <g id="text_13">
      <!-- roundness -->
      <g transform="translate(64.0225 238.408225)scale(0.1 -0.1)">
       <defs>
        <path d="M 45.40625 46.390625 
L 45.40625 75.984375 
L 54.390625 75.984375 
L 54.390625 0 
L 45.40625 0 
L 45.40625 8.203125 
Q 42.578125 3.328125 38.25 0.953125 
Q 33.9375 -1.421875 27.875 -1.421875 
Q 17.96875 -1.421875 11.734375 6.484375 
Q 5.515625 14.40625 5.515625 27.296875 
Q 5.515625 40.1875 11.734375 48.09375 
Q 17.96875 56 27.875 56 
Q 33.9375 56 38.25 53.625 
Q 42.578125 51.265625 45.40625 46.390625 
z
M 14.796875 27.296875 
Q 14.796875 17.390625 18.875 11.75 
Q 22.953125 6.109375 30.078125 6.109375 
Q 37.203125 6.109375 41.296875 11.75 
Q 45.40625 17.390625 45.40625 27.296875 
Q 45.40625 37.203125 41.296875 42.84375 
Q 37.203125 48.484375 30.078125 48.484375 
Q 22.953125 48.484375 18.875 42.84375 
Q 14.796875 37.203125 14.796875 27.296875 
z
" id="DejaVuSans-100"/>
       </defs>
       <use xlink:href="#DejaVuSans-114"/>
       <use x="38.863281" xlink:href="#DejaVuSans-111"/>
       <use x="100.044922" xlink:href="#DejaVuSans-117"/>
       <use x="163.423828" xlink:href="#DejaVuSans-110"/>
       <use x="226.802734" xlink:href="#DejaVuSans-100"/>
       <use x="290.279297" xlink:href="#DejaVuSans-110"/>
       <use x="353.658203" xlink:href="#DejaVuSans-101"/>
       <use x="415.181641" xlink:href="#DejaVuSans-115"/>
       <use x="467.28125" xlink:href="#DejaVuSans-115"/>
      </g>
     </g>
    </g>
    <g id="ytick_7">
     <g id="line2d_13">
      <g>
       <use style="stroke:#000000;stroke-width:0.8;" x="122.96" xlink:href="#m57a62e6a3a" y="224.290472"/>
      </g>
     </g>
     <g id="text_14">
      <!-- maj_len -->
      <g transform="translate(77.044375 228.089691)scale(0.1 -0.1)">
       <use xlink:href="#DejaVuSans-109"/>
       <use x="97.412109" xlink:href="#DejaVuSans-97"/>
       <use x="158.691406" xlink:href="#DejaVuSans-106"/>
       <use x="186.474609" xlink:href="#DejaVuSans-95"/>
       <use x="236.474609" xlink:href="#DejaVuSans-108"/>
       <use x="264.257812" xlink:href="#DejaVuSans-101"/>
       <use x="325.78125" xlink:href="#DejaVuSans-110"/>
      </g>
     </g>
    </g>
    <g id="ytick_8">
     <g id="line2d_14">
      <g>
       <use style="stroke:#000000;stroke-width:0.8;" x="122.96" xlink:href="#m57a62e6a3a" y="213.971938"/>
      </g>
     </g>
     <g id="text_15">
      <!-- min_len -->
      <g transform="translate(76.835 217.771157)scale(0.1 -0.1)">
       <use xlink:href="#DejaVuSans-109"/>
       <use x="97.412109" xlink:href="#DejaVuSans-105"/>
       <use x="125.195312" xlink:href="#DejaVuSans-110"/>
       <use x="188.574219" xlink:href="#DejaVuSans-95"/>
       <use x="238.574219" xlink:href="#DejaVuSans-108"/>
       <use x="266.357422" xlink:href="#DejaVuSans-101"/>
       <use x="327.880859" xlink:href="#DejaVuSans-110"/>
      </g>
     </g>
    </g>
    <g id="ytick_9">
     <g id="line2d_15">
      <g>
       <use style="stroke:#000000;stroke-width:0.8;" x="122.96" xlink:href="#m57a62e6a3a" y="203.653404"/>
      </g>
     </g>
     <g id="text_16">
      <!-- min_pos -->
      <g transform="translate(74.427188 207.452623)scale(0.1 -0.1)">
       <use xlink:href="#DejaVuSans-109"/>
       <use x="97.412109" xlink:href="#DejaVuSans-105"/>
       <use x="125.195312" xlink:href="#DejaVuSans-110"/>
       <use x="188.574219" xlink:href="#DejaVuSans-95"/>
       <use x="238.574219" xlink:href="#DejaVuSans-112"/>
       <use x="302.050781" xlink:href="#DejaVuSans-111"/>
       <use x="363.232422" xlink:href="#DejaVuSans-115"/>
      </g>
     </g>
    </g>
    <g id="ytick_10">
     <g id="line2d_16">
      <g>
       <use style="stroke:#000000;stroke-width:0.8;" x="122.96" xlink:href="#m57a62e6a3a" y="193.33487"/>
      </g>
     </g>
     <g id="text_17">
      <!-- min_len05 -->
      <g transform="translate(64.11 197.134088)scale(0.1 -0.1)">
       <use xlink:href="#DejaVuSans-109"/>
       <use x="97.412109" xlink:href="#DejaVuSans-105"/>
       <use x="125.195312" xlink:href="#DejaVuSans-110"/>
       <use x="188.574219" xlink:href="#DejaVuSans-95"/>
       <use x="238.574219" xlink:href="#DejaVuSans-108"/>
       <use x="266.357422" xlink:href="#DejaVuSans-101"/>
       <use x="327.880859" xlink:href="#DejaVuSans-110"/>
       <use x="391.259766" xlink:href="#DejaVuSans-48"/>
       <use x="454.882812" xlink:href="#DejaVuSans-53"/>
      </g>
     </g>
    </g>
    <g id="ytick_11">
     <g id="line2d_17">
      <g>
       <use style="stroke:#000000;stroke-width:0.8;" x="122.96" xlink:href="#m57a62e6a3a" y="183.016335"/>
      </g>
     </g>
     <g id="text_18">
      <!-- ratio_contour -->
      <g transform="translate(49.461562 186.815554)scale(0.1 -0.1)">
       <use xlink:href="#DejaVuSans-114"/>
       <use x="41.113281" xlink:href="#DejaVuSans-97"/>
       <use x="102.392578" xlink:href="#DejaVuSans-116"/>
       <use x="141.601562" xlink:href="#DejaVuSans-105"/>
       <use x="169.384766" xlink:href="#DejaVuSans-111"/>
       <use x="230.566406" xlink:href="#DejaVuSans-95"/>
       <use x="280.566406" xlink:href="#DejaVuSans-99"/>
       <use x="335.546875" xlink:href="#DejaVuSans-111"/>
       <use x="396.728516" xlink:href="#DejaVuSans-110"/>
       <use x="460.107422" xlink:href="#DejaVuSans-116"/>
       <use x="499.316406" xlink:href="#DejaVuSans-111"/>
       <use x="560.498047" xlink:href="#DejaVuSans-117"/>
       <use x="623.876953" xlink:href="#DejaVuSans-114"/>
      </g>
     </g>
    </g>
    <g id="ytick_12">
     <g id="line2d_18">
      <g>
       <use style="stroke:#000000;stroke-width:0.8;" x="122.96" xlink:href="#m57a62e6a3a" y="172.697801"/>
      </g>
     </g>
     <g id="text_19">
      <!-- hue_mean -->
      <g transform="translate(63.7725 176.49702)scale(0.1 -0.1)">
       <use xlink:href="#DejaVuSans-104"/>
       <use x="63.378906" xlink:href="#DejaVuSans-117"/>
       <use x="126.757812" xlink:href="#DejaVuSans-101"/>
       <use x="188.28125" xlink:href="#DejaVuSans-95"/>
       <use x="238.28125" xlink:href="#DejaVuSans-109"/>
       <use x="335.693359" xlink:href="#DejaVuSans-101"/>
       <use x="397.216797" xlink:href="#DejaVuSans-97"/>
       <use x="458.496094" xlink:href="#DejaVuSans-110"/>
      </g>
     </g>
    </g>
    <g id="ytick_13">
     <g id="line2d_19">
      <g>
       <use style="stroke:#000000;stroke-width:0.8;" x="122.96" xlink:href="#m57a62e6a3a" y="162.379267"/>
      </g>
     </g>
     <g id="text_20">
      <!-- hue_std -->
      <g transform="translate(76.65375 166.178486)scale(0.1 -0.1)">
       <use xlink:href="#DejaVuSans-104"/>
       <use x="63.378906" xlink:href="#DejaVuSans-117"/>
       <use x="126.757812" xlink:href="#DejaVuSans-101"/>
       <use x="188.28125" xlink:href="#DejaVuSans-95"/>
       <use x="238.28125" xlink:href="#DejaVuSans-115"/>
       <use x="290.380859" xlink:href="#DejaVuSans-116"/>
       <use x="329.589844" xlink:href="#DejaVuSans-100"/>
      </g>
     </g>
    </g>
    <g id="ytick_14">
     <g id="line2d_20">
      <g>
       <use style="stroke:#000000;stroke-width:0.8;" x="122.96" xlink:href="#m57a62e6a3a" y="152.060733"/>
      </g>
     </g>
     <g id="text_21">
      <!-- hue_skew -->
      <g transform="translate(67.163125 155.859952)scale(0.1 -0.1)">
       <defs>
        <path d="M 9.078125 75.984375 
L 18.109375 75.984375 
L 18.109375 31.109375 
L 44.921875 54.6875 
L 56.390625 54.6875 
L 27.390625 29.109375 
L 57.625 0 
L 45.90625 0 
L 18.109375 26.703125 
L 18.109375 0 
L 9.078125 0 
z
" id="DejaVuSans-107"/>
        <path d="M 4.203125 54.6875 
L 13.1875 54.6875 
L 24.421875 12.015625 
L 35.59375 54.6875 
L 46.1875 54.6875 
L 57.421875 12.015625 
L 68.609375 54.6875 
L 77.59375 54.6875 
L 63.28125 0 
L 52.6875 0 
L 40.921875 44.828125 
L 29.109375 0 
L 18.5 0 
z
" id="DejaVuSans-119"/>
       </defs>
       <use xlink:href="#DejaVuSans-104"/>
       <use x="63.378906" xlink:href="#DejaVuSans-117"/>
       <use x="126.757812" xlink:href="#DejaVuSans-101"/>
       <use x="188.28125" xlink:href="#DejaVuSans-95"/>
       <use x="238.28125" xlink:href="#DejaVuSans-115"/>
       <use x="290.380859" xlink:href="#DejaVuSans-107"/>
       <use x="344.666016" xlink:href="#DejaVuSans-101"/>
       <use x="406.189453" xlink:href="#DejaVuSans-119"/>
      </g>
     </g>
    </g>
    <g id="ytick_15">
     <g id="line2d_21">
      <g>
       <use style="stroke:#000000;stroke-width:0.8;" x="122.96" xlink:href="#m57a62e6a3a" y="141.742199"/>
      </g>
     </g>
     <g id="text_22">
      <!-- sat_mean -->
      <g transform="translate(67.342813 145.402355)scale(0.1 -0.1)">
       <use xlink:href="#DejaVuSans-115"/>
       <use x="52.099609" xlink:href="#DejaVuSans-97"/>
       <use x="113.378906" xlink:href="#DejaVuSans-116"/>
       <use x="152.587891" xlink:href="#DejaVuSans-95"/>
       <use x="202.587891" xlink:href="#DejaVuSans-109"/>
       <use x="300" xlink:href="#DejaVuSans-101"/>
       <use x="361.523438" xlink:href="#DejaVuSans-97"/>
       <use x="422.802734" xlink:href="#DejaVuSans-110"/>
      </g>
     </g>
    </g>
    <g id="ytick_16">
     <g id="line2d_22">
      <g>
       <use style="stroke:#000000;stroke-width:0.8;" x="122.96" xlink:href="#m57a62e6a3a" y="131.423665"/>
      </g>
     </g>
     <g id="text_23">
      <!-- sat_std -->
      <g transform="translate(80.224063 135.222883)scale(0.1 -0.1)">
       <use xlink:href="#DejaVuSans-115"/>
       <use x="52.099609" xlink:href="#DejaVuSans-97"/>
       <use x="113.378906" xlink:href="#DejaVuSans-116"/>
       <use x="152.587891" xlink:href="#DejaVuSans-95"/>
       <use x="202.587891" xlink:href="#DejaVuSans-115"/>
       <use x="254.6875" xlink:href="#DejaVuSans-116"/>
       <use x="293.896484" xlink:href="#DejaVuSans-100"/>
      </g>
     </g>
    </g>
    <g id="ytick_17">
     <g id="line2d_23">
      <g>
       <use style="stroke:#000000;stroke-width:0.8;" x="122.96" xlink:href="#m57a62e6a3a" y="121.10513"/>
      </g>
     </g>
     <g id="text_24">
      <!-- sat_skew -->
      <g transform="translate(70.733438 124.904349)scale(0.1 -0.1)">
       <use xlink:href="#DejaVuSans-115"/>
       <use x="52.099609" xlink:href="#DejaVuSans-97"/>
       <use x="113.378906" xlink:href="#DejaVuSans-116"/>
       <use x="152.587891" xlink:href="#DejaVuSans-95"/>
       <use x="202.587891" xlink:href="#DejaVuSans-115"/>
       <use x="254.6875" xlink:href="#DejaVuSans-107"/>
       <use x="308.972656" xlink:href="#DejaVuSans-101"/>
       <use x="370.496094" xlink:href="#DejaVuSans-119"/>
      </g>
     </g>
    </g>
    <g id="ytick_18">
     <g id="line2d_24">
      <g>
       <use style="stroke:#000000;stroke-width:0.8;" x="122.96" xlink:href="#m57a62e6a3a" y="110.786596"/>
      </g>
     </g>
     <g id="text_25">
      <!-- val_mean -->
      <g transform="translate(67.775625 114.585815)scale(0.1 -0.1)">
       <defs>
        <path d="M 2.984375 54.6875 
L 12.5 54.6875 
L 29.59375 8.796875 
L 46.6875 54.6875 
L 56.203125 54.6875 
L 35.6875 0 
L 23.484375 0 
z
" id="DejaVuSans-118"/>
       </defs>
       <use xlink:href="#DejaVuSans-118"/>
       <use x="59.179688" xlink:href="#DejaVuSans-97"/>
       <use x="120.458984" xlink:href="#DejaVuSans-108"/>
       <use x="148.242188" xlink:href="#DejaVuSans-95"/>
       <use x="198.242188" xlink:href="#DejaVuSans-109"/>
       <use x="295.654297" xlink:href="#DejaVuSans-101"/>
       <use x="357.177734" xlink:href="#DejaVuSans-97"/>
       <use x="418.457031" xlink:href="#DejaVuSans-110"/>
      </g>
     </g>
    </g>
    <g id="ytick_19">
     <g id="line2d_25">
      <g>
       <use style="stroke:#000000;stroke-width:0.8;" x="122.96" xlink:href="#m57a62e6a3a" y="100.468062"/>
      </g>
     </g>
     <g id="text_26">
      <!-- val_std -->
      <g transform="translate(80.656875 104.267281)scale(0.1 -0.1)">
       <use xlink:href="#DejaVuSans-118"/>
       <use x="59.179688" xlink:href="#DejaVuSans-97"/>
       <use x="120.458984" xlink:href="#DejaVuSans-108"/>
       <use x="148.242188" xlink:href="#DejaVuSans-95"/>
       <use x="198.242188" xlink:href="#DejaVuSans-115"/>
       <use x="250.341797" xlink:href="#DejaVuSans-116"/>
       <use x="289.550781" xlink:href="#DejaVuSans-100"/>
      </g>
     </g>
    </g>
    <g id="ytick_20">
     <g id="line2d_26">
      <g>
       <use style="stroke:#000000;stroke-width:0.8;" x="122.96" xlink:href="#m57a62e6a3a" y="90.149528"/>
      </g>
     </g>
     <g id="text_27">
      <!-- val_skew -->
      <g transform="translate(71.16625 93.948747)scale(0.1 -0.1)">
       <use xlink:href="#DejaVuSans-118"/>
       <use x="59.179688" xlink:href="#DejaVuSans-97"/>
       <use x="120.458984" xlink:href="#DejaVuSans-108"/>
       <use x="148.242188" xlink:href="#DejaVuSans-95"/>
       <use x="198.242188" xlink:href="#DejaVuSans-115"/>
       <use x="250.341797" xlink:href="#DejaVuSans-107"/>
       <use x="304.626953" xlink:href="#DejaVuSans-101"/>
       <use x="366.150391" xlink:href="#DejaVuSans-119"/>
      </g>
     </g>
    </g>
    <g id="ytick_21">
     <g id="line2d_27">
      <g>
       <use style="stroke:#000000;stroke-width:0.8;" x="122.96" xlink:href="#m57a62e6a3a" y="79.830994"/>
      </g>
     </g>
     <g id="text_28">
      <!-- int_mean -->
      <g transform="translate(69.564688 83.630212)scale(0.1 -0.1)">
       <use xlink:href="#DejaVuSans-105"/>
       <use x="27.783203" xlink:href="#DejaVuSans-110"/>
       <use x="91.162109" xlink:href="#DejaVuSans-116"/>
       <use x="130.371094" xlink:href="#DejaVuSans-95"/>
       <use x="180.371094" xlink:href="#DejaVuSans-109"/>
       <use x="277.783203" xlink:href="#DejaVuSans-101"/>
       <use x="339.306641" xlink:href="#DejaVuSans-97"/>
       <use x="400.585938" xlink:href="#DejaVuSans-110"/>
      </g>
     </g>
    </g>
    <g id="ytick_22">
     <g id="line2d_28">
      <g>
       <use style="stroke:#000000;stroke-width:0.8;" x="122.96" xlink:href="#m57a62e6a3a" y="69.512459"/>
      </g>
     </g>
     <g id="text_29">
      <!-- int_std -->
      <g transform="translate(82.445938 73.311678)scale(0.1 -0.1)">
       <use xlink:href="#DejaVuSans-105"/>
       <use x="27.783203" xlink:href="#DejaVuSans-110"/>
       <use x="91.162109" xlink:href="#DejaVuSans-116"/>
       <use x="130.371094" xlink:href="#DejaVuSans-95"/>
       <use x="180.371094" xlink:href="#DejaVuSans-115"/>
       <use x="232.470703" xlink:href="#DejaVuSans-116"/>
       <use x="271.679688" xlink:href="#DejaVuSans-100"/>
      </g>
     </g>
    </g>
    <g id="ytick_23">
     <g id="line2d_29">
      <g>
       <use style="stroke:#000000;stroke-width:0.8;" x="122.96" xlink:href="#m57a62e6a3a" y="59.193925"/>
      </g>
     </g>
     <g id="text_30">
      <!-- int_skew -->
      <g transform="translate(72.955313 62.993144)scale(0.1 -0.1)">
       <use xlink:href="#DejaVuSans-105"/>
       <use x="27.783203" xlink:href="#DejaVuSans-110"/>
       <use x="91.162109" xlink:href="#DejaVuSans-116"/>
       <use x="130.371094" xlink:href="#DejaVuSans-95"/>
       <use x="180.371094" xlink:href="#DejaVuSans-115"/>
       <use x="232.470703" xlink:href="#DejaVuSans-107"/>
       <use x="286.755859" xlink:href="#DejaVuSans-101"/>
       <use x="348.279297" xlink:href="#DejaVuSans-119"/>
      </g>
     </g>
    </g>
    <g id="ytick_24">
     <g id="line2d_30">
      <g>
       <use style="stroke:#000000;stroke-width:0.8;" x="122.96" xlink:href="#m57a62e6a3a" y="48.875391"/>
      </g>
     </g>
     <g id="text_31">
      <!-- contrast -->
      <g transform="translate(74.71625 52.67461)scale(0.1 -0.1)">
       <use xlink:href="#DejaVuSans-99"/>
       <use x="54.980469" xlink:href="#DejaVuSans-111"/>
       <use x="116.162109" xlink:href="#DejaVuSans-110"/>
       <use x="179.541016" xlink:href="#DejaVuSans-116"/>
       <use x="218.75" xlink:href="#DejaVuSans-114"/>
       <use x="259.863281" xlink:href="#DejaVuSans-97"/>
       <use x="321.142578" xlink:href="#DejaVuSans-115"/>
       <use x="373.242188" xlink:href="#DejaVuSans-116"/>
      </g>
     </g>
    </g>
    <g id="ytick_25">
     <g id="line2d_31">
      <g>
       <use style="stroke:#000000;stroke-width:0.8;" x="122.96" xlink:href="#m57a62e6a3a" y="38.556857"/>
      </g>
     </g>
     <g id="text_32">
      <!-- homogeneity -->
      <g transform="translate(50.035 42.356076)scale(0.1 -0.1)">
       <defs>
        <path d="M 32.171875 -5.078125 
Q 28.375 -14.84375 24.75 -17.8125 
Q 21.140625 -20.796875 15.09375 -20.796875 
L 7.90625 -20.796875 
L 7.90625 -13.28125 
L 13.1875 -13.28125 
Q 16.890625 -13.28125 18.9375 -11.515625 
Q 21 -9.765625 23.484375 -3.21875 
L 25.09375 0.875 
L 2.984375 54.6875 
L 12.5 54.6875 
L 29.59375 11.921875 
L 46.6875 54.6875 
L 56.203125 54.6875 
z
" id="DejaVuSans-121"/>
       </defs>
       <use xlink:href="#DejaVuSans-104"/>
       <use x="63.378906" xlink:href="#DejaVuSans-111"/>
       <use x="124.560547" xlink:href="#DejaVuSans-109"/>
       <use x="221.972656" xlink:href="#DejaVuSans-111"/>
       <use x="283.154297" xlink:href="#DejaVuSans-103"/>
       <use x="346.630859" xlink:href="#DejaVuSans-101"/>
       <use x="408.154297" xlink:href="#DejaVuSans-110"/>
       <use x="471.533203" xlink:href="#DejaVuSans-101"/>
       <use x="533.056641" xlink:href="#DejaVuSans-105"/>
       <use x="560.839844" xlink:href="#DejaVuSans-116"/>
       <use x="600.048828" xlink:href="#DejaVuSans-121"/>
      </g>
     </g>
    </g>
    <g id="ytick_26">
     <g id="line2d_32">
      <g>
       <use style="stroke:#000000;stroke-width:0.8;" x="122.96" xlink:href="#m57a62e6a3a" y="28.238323"/>
      </g>
     </g>
     <g id="text_33">
      <!-- correlation -->
      <g transform="translate(62.306875 32.037542)scale(0.1 -0.1)">
       <use xlink:href="#DejaVuSans-99"/>
       <use x="54.980469" xlink:href="#DejaVuSans-111"/>
       <use x="116.162109" xlink:href="#DejaVuSans-114"/>
       <use x="155.525391" xlink:href="#DejaVuSans-114"/>
       <use x="194.388672" xlink:href="#DejaVuSans-101"/>
       <use x="255.912109" xlink:href="#DejaVuSans-108"/>
       <use x="283.695312" xlink:href="#DejaVuSans-97"/>
       <use x="344.974609" xlink:href="#DejaVuSans-116"/>
       <use x="384.183594" xlink:href="#DejaVuSans-105"/>
       <use x="411.966797" xlink:href="#DejaVuSans-111"/>
       <use x="473.148438" xlink:href="#DejaVuSans-110"/>
      </g>
     </g>
    </g>
    <g id="text_34">
     <!-- feature -->
     <g transform="translate(18.885 175.269219)rotate(-90)scale(0.1 -0.1)">
      <use xlink:href="#DejaVuSans-102"/>
      <use x="35.205078" xlink:href="#DejaVuSans-101"/>
      <use x="96.728516" xlink:href="#DejaVuSans-97"/>
      <use x="158.007812" xlink:href="#DejaVuSans-116"/>
      <use x="197.216797" xlink:href="#DejaVuSans-117"/>
      <use x="260.595703" xlink:href="#DejaVuSans-114"/>
      <use x="299.458984" xlink:href="#DejaVuSans-101"/>
     </g>
    </g>
   </g>
   <g id="patch_29">
    <path d="M 122.96 303.64 
L 122.96 10.8 
" style="fill:none;stroke:#000000;stroke-linecap:square;stroke-linejoin:miter;stroke-width:0.8;"/>
   </g>
   <g id="patch_30">
    <path d="M 450 303.64 
L 450 10.8 
" style="fill:none;stroke:#000000;stroke-linecap:square;stroke-linejoin:miter;stroke-width:0.8;"/>
   </g>
   <g id="patch_31">
    <path d="M 122.96 303.64 
L 450 303.64 
" style="fill:none;stroke:#000000;stroke-linecap:square;stroke-linejoin:miter;stroke-width:0.8;"/>
   </g>
   <g id="patch_32">
    <path d="M 122.96 10.8 
L 450 10.8 
" style="fill:none;stroke:#000000;stroke-linecap:square;stroke-linejoin:miter;stroke-width:0.8;"/>
   </g>
  </g>
 </g>
 <defs>
  <clipPath id="p0d096f9572">
   <rect height="292.84" width="327.04" x="122.96" y="10.8"/>
  </clipPath>
 </defs>
</svg>
