<?xml version="1.0" encoding="utf-8" standalone="no"?>
<!DOCTYPE svg PUBLIC "-//W3C//DTD SVG 1.1//EN"
  "http://www.w3.org/Graphics/SVG/1.1/DTD/svg11.dtd">
<!-- Created with matplotlib (https://matplotlib.org/) -->
<svg height="345.6pt" version="1.1" viewBox="0 0 460.8 345.6" width="460.8pt" xmlns="http://www.w3.org/2000/svg" xmlns:xlink="http://www.w3.org/1999/xlink">
 <metadata>
  <rdf:RDF xmlns:cc="http://creativecommons.org/ns#" xmlns:dc="http://purl.org/dc/elements/1.1/" xmlns:rdf="http://www.w3.org/1999/02/22-rdf-syntax-ns#">
   <cc:Work>
    <dc:type rdf:resource="http://purl.org/dc/dcmitype/StillImage"/>
    <dc:date>2021-02-06T13:34:06.219674</dc:date>
    <dc:format>image/svg+xml</dc:format>
    <dc:creator>
     <cc:Agent>
      <dc:title>Matplotlib v3.3.0, https://matplotlib.org/</dc:title>
     </cc:Agent>
    </dc:creator>
   </cc:Work>
  </rdf:RDF>
 </metadata>
 <defs>
  <style type="text/css">*{stroke-linecap:butt;stroke-linejoin:round;}</style>
 </defs>
 <g id="figure_1">
  <g id="patch_1">
   <path d="M 0 345.6 
L 460.8 345.6 
L 460.8 0 
L 0 0 
z
" style="fill:#ffffff;"/>
  </g>
  <g id="axes_1">
   <g id="patch_2">
    <path d="M 57.6 307.584 
L 414.72 307.584 
L 414.72 41.472 
L 57.6 41.472 
z
" style="fill:#ffffff;"/>
   </g>
   <g id="matplotlib.axis_1">
    <g id="xtick_1">
     <g id="line2d_1">
      <defs>
       <path d="M 0 0 
L 0 3.5 
" id="m9a00c89882" style="stroke:#000000;stroke-width:0.8;"/>
      </defs>
      <g>
       <use style="stroke:#000000;stroke-width:0.8;" x="64.262606" xlink:href="#m9a00c89882" y="307.584"/>
      </g>
     </g>
     <g id="text_1">
      <!-- −2 -->
      <g transform="translate(56.891512 322.182437)scale(0.1 -0.1)">
       <defs>
        <path d="M 10.59375 35.5 
L 73.1875 35.5 
L 73.1875 27.203125 
L 10.59375 27.203125 
z
" id="DejaVuSans-8722"/>
        <path d="M 19.1875 8.296875 
L 53.609375 8.296875 
L 53.609375 0 
L 7.328125 0 
L 7.328125 8.296875 
Q 12.9375 14.109375 22.625 23.890625 
Q 32.328125 33.6875 34.8125 36.53125 
Q 39.546875 41.84375 41.421875 45.53125 
Q 43.3125 49.21875 43.3125 52.78125 
Q 43.3125 58.59375 39.234375 62.25 
Q 35.15625 65.921875 28.609375 65.921875 
Q 23.96875 65.921875 18.8125 64.3125 
Q 13.671875 62.703125 7.8125 59.421875 
L 7.8125 69.390625 
Q 13.765625 71.78125 18.9375 73 
Q 24.125 74.21875 28.421875 74.21875 
Q 39.75 74.21875 46.484375 68.546875 
Q 53.21875 62.890625 53.21875 53.421875 
Q 53.21875 48.921875 51.53125 44.890625 
Q 49.859375 40.875 45.40625 35.40625 
Q 44.1875 33.984375 37.640625 27.21875 
Q 31.109375 20.453125 19.1875 8.296875 
z
" id="DejaVuSans-50"/>
       </defs>
       <use xlink:href="#DejaVuSans-8722"/>
       <use x="83.789062" xlink:href="#DejaVuSans-50"/>
      </g>
     </g>
    </g>
    <g id="xtick_2">
     <g id="line2d_2">
      <g>
       <use style="stroke:#000000;stroke-width:0.8;" x="134.622498" xlink:href="#m9a00c89882" y="307.584"/>
      </g>
     </g>
     <g id="text_2">
      <!-- 0 -->
      <g transform="translate(131.441248 322.182437)scale(0.1 -0.1)">
       <defs>
        <path d="M 31.78125 66.40625 
Q 24.171875 66.40625 20.328125 58.90625 
Q 16.5 51.421875 16.5 36.375 
Q 16.5 21.390625 20.328125 13.890625 
Q 24.171875 6.390625 31.78125 6.390625 
Q 39.453125 6.390625 43.28125 13.890625 
Q 47.125 21.390625 47.125 36.375 
Q 47.125 51.421875 43.28125 58.90625 
Q 39.453125 66.40625 31.78125 66.40625 
z
M 31.78125 74.21875 
Q 44.046875 74.21875 50.515625 64.515625 
Q 56.984375 54.828125 56.984375 36.375 
Q 56.984375 17.96875 50.515625 8.265625 
Q 44.046875 -1.421875 31.78125 -1.421875 
Q 19.53125 -1.421875 13.0625 8.265625 
Q 6.59375 17.96875 6.59375 36.375 
Q 6.59375 54.828125 13.0625 64.515625 
Q 19.53125 74.21875 31.78125 74.21875 
z
" id="DejaVuSans-48"/>
       </defs>
       <use xlink:href="#DejaVuSans-48"/>
      </g>
     </g>
    </g>
    <g id="xtick_3">
     <g id="line2d_3">
      <g>
       <use style="stroke:#000000;stroke-width:0.8;" x="204.982389" xlink:href="#m9a00c89882" y="307.584"/>
      </g>
     </g>
     <g id="text_3">
      <!-- 2 -->
      <g transform="translate(201.801139 322.182437)scale(0.1 -0.1)">
       <use xlink:href="#DejaVuSans-50"/>
      </g>
     </g>
    </g>
    <g id="xtick_4">
     <g id="line2d_4">
      <g>
       <use style="stroke:#000000;stroke-width:0.8;" x="275.342281" xlink:href="#m9a00c89882" y="307.584"/>
      </g>
     </g>
     <g id="text_4">
      <!-- 4 -->
      <g transform="translate(272.161031 322.182437)scale(0.1 -0.1)">
       <defs>
        <path d="M 37.796875 64.3125 
L 12.890625 25.390625 
L 37.796875 25.390625 
z
M 35.203125 72.90625 
L 47.609375 72.90625 
L 47.609375 25.390625 
L 58.015625 25.390625 
L 58.015625 17.1875 
L 47.609375 17.1875 
L 47.609375 0 
L 37.796875 0 
L 37.796875 17.1875 
L 4.890625 17.1875 
L 4.890625 26.703125 
z
" id="DejaVuSans-52"/>
       </defs>
       <use xlink:href="#DejaVuSans-52"/>
      </g>
     </g>
    </g>
    <g id="xtick_5">
     <g id="line2d_5">
      <g>
       <use style="stroke:#000000;stroke-width:0.8;" x="345.702173" xlink:href="#m9a00c89882" y="307.584"/>
      </g>
     </g>
     <g id="text_5">
      <!-- 6 -->
      <g transform="translate(342.520923 322.182437)scale(0.1 -0.1)">
       <defs>
        <path d="M 33.015625 40.375 
Q 26.375 40.375 22.484375 35.828125 
Q 18.609375 31.296875 18.609375 23.390625 
Q 18.609375 15.53125 22.484375 10.953125 
Q 26.375 6.390625 33.015625 6.390625 
Q 39.65625 6.390625 43.53125 10.953125 
Q 47.40625 15.53125 47.40625 23.390625 
Q 47.40625 31.296875 43.53125 35.828125 
Q 39.65625 40.375 33.015625 40.375 
z
M 52.59375 71.296875 
L 52.59375 62.3125 
Q 48.875 64.0625 45.09375 64.984375 
Q 41.3125 65.921875 37.59375 65.921875 
Q 27.828125 65.921875 22.671875 59.328125 
Q 17.53125 52.734375 16.796875 39.40625 
Q 19.671875 43.65625 24.015625 45.921875 
Q 28.375 48.1875 33.59375 48.1875 
Q 44.578125 48.1875 50.953125 41.515625 
Q 57.328125 34.859375 57.328125 23.390625 
Q 57.328125 12.15625 50.6875 5.359375 
Q 44.046875 -1.421875 33.015625 -1.421875 
Q 20.359375 -1.421875 13.671875 8.265625 
Q 6.984375 17.96875 6.984375 36.375 
Q 6.984375 53.65625 15.1875 63.9375 
Q 23.390625 74.21875 37.203125 74.21875 
Q 40.921875 74.21875 44.703125 73.484375 
Q 48.484375 72.75 52.59375 71.296875 
z
" id="DejaVuSans-54"/>
       </defs>
       <use xlink:href="#DejaVuSans-54"/>
      </g>
     </g>
    </g>
    <g id="text_6">
     <!-- PC1 (71.14 %) -->
     <g transform="translate(200.327969 335.860562)scale(0.1 -0.1)">
      <defs>
       <path d="M 19.671875 64.796875 
L 19.671875 37.40625 
L 32.078125 37.40625 
Q 38.96875 37.40625 42.71875 40.96875 
Q 46.484375 44.53125 46.484375 51.125 
Q 46.484375 57.671875 42.71875 61.234375 
Q 38.96875 64.796875 32.078125 64.796875 
z
M 9.8125 72.90625 
L 32.078125 72.90625 
Q 44.34375 72.90625 50.609375 67.359375 
Q 56.890625 61.8125 56.890625 51.125 
Q 56.890625 40.328125 50.609375 34.8125 
Q 44.34375 29.296875 32.078125 29.296875 
L 19.671875 29.296875 
L 19.671875 0 
L 9.8125 0 
z
" id="DejaVuSans-80"/>
       <path d="M 64.40625 67.28125 
L 64.40625 56.890625 
Q 59.421875 61.53125 53.78125 63.8125 
Q 48.140625 66.109375 41.796875 66.109375 
Q 29.296875 66.109375 22.65625 58.46875 
Q 16.015625 50.828125 16.015625 36.375 
Q 16.015625 21.96875 22.65625 14.328125 
Q 29.296875 6.6875 41.796875 6.6875 
Q 48.140625 6.6875 53.78125 8.984375 
Q 59.421875 11.28125 64.40625 15.921875 
L 64.40625 5.609375 
Q 59.234375 2.09375 53.4375 0.328125 
Q 47.65625 -1.421875 41.21875 -1.421875 
Q 24.65625 -1.421875 15.125 8.703125 
Q 5.609375 18.84375 5.609375 36.375 
Q 5.609375 53.953125 15.125 64.078125 
Q 24.65625 74.21875 41.21875 74.21875 
Q 47.75 74.21875 53.53125 72.484375 
Q 59.328125 70.75 64.40625 67.28125 
z
" id="DejaVuSans-67"/>
       <path d="M 12.40625 8.296875 
L 28.515625 8.296875 
L 28.515625 63.921875 
L 10.984375 60.40625 
L 10.984375 69.390625 
L 28.421875 72.90625 
L 38.28125 72.90625 
L 38.28125 8.296875 
L 54.390625 8.296875 
L 54.390625 0 
L 12.40625 0 
z
" id="DejaVuSans-49"/>
       <path id="DejaVuSans-32"/>
       <path d="M 31 75.875 
Q 24.46875 64.65625 21.28125 53.65625 
Q 18.109375 42.671875 18.109375 31.390625 
Q 18.109375 20.125 21.3125 9.0625 
Q 24.515625 -2 31 -13.1875 
L 23.1875 -13.1875 
Q 15.875 -1.703125 12.234375 9.375 
Q 8.59375 20.453125 8.59375 31.390625 
Q 8.59375 42.28125 12.203125 53.3125 
Q 15.828125 64.359375 23.1875 75.875 
z
" id="DejaVuSans-40"/>
       <path d="M 8.203125 72.90625 
L 55.078125 72.90625 
L 55.078125 68.703125 
L 28.609375 0 
L 18.3125 0 
L 43.21875 64.59375 
L 8.203125 64.59375 
z
" id="DejaVuSans-55"/>
       <path d="M 10.6875 12.40625 
L 21 12.40625 
L 21 0 
L 10.6875 0 
z
" id="DejaVuSans-46"/>
       <path d="M 72.703125 32.078125 
Q 68.453125 32.078125 66.03125 28.46875 
Q 63.625 24.859375 63.625 18.40625 
Q 63.625 12.0625 66.03125 8.421875 
Q 68.453125 4.78125 72.703125 4.78125 
Q 76.859375 4.78125 79.265625 8.421875 
Q 81.6875 12.0625 81.6875 18.40625 
Q 81.6875 24.8125 79.265625 28.4375 
Q 76.859375 32.078125 72.703125 32.078125 
z
M 72.703125 38.28125 
Q 80.421875 38.28125 84.953125 32.90625 
Q 89.5 27.546875 89.5 18.40625 
Q 89.5 9.28125 84.9375 3.921875 
Q 80.375 -1.421875 72.703125 -1.421875 
Q 64.890625 -1.421875 60.34375 3.921875 
Q 55.8125 9.28125 55.8125 18.40625 
Q 55.8125 27.59375 60.375 32.9375 
Q 64.9375 38.28125 72.703125 38.28125 
z
M 22.3125 68.015625 
Q 18.109375 68.015625 15.6875 64.375 
Q 13.28125 60.75 13.28125 54.390625 
Q 13.28125 47.953125 15.671875 44.328125 
Q 18.0625 40.71875 22.3125 40.71875 
Q 26.5625 40.71875 28.96875 44.328125 
Q 31.390625 47.953125 31.390625 54.390625 
Q 31.390625 60.6875 28.953125 64.34375 
Q 26.515625 68.015625 22.3125 68.015625 
z
M 66.40625 74.21875 
L 74.21875 74.21875 
L 28.609375 -1.421875 
L 20.796875 -1.421875 
z
M 22.3125 74.21875 
Q 30.03125 74.21875 34.609375 68.875 
Q 39.203125 63.53125 39.203125 54.390625 
Q 39.203125 45.171875 34.640625 39.84375 
Q 30.078125 34.515625 22.3125 34.515625 
Q 14.546875 34.515625 10.03125 39.859375 
Q 5.515625 45.21875 5.515625 54.390625 
Q 5.515625 63.484375 10.046875 68.84375 
Q 14.59375 74.21875 22.3125 74.21875 
z
" id="DejaVuSans-37"/>
       <path d="M 8.015625 75.875 
L 15.828125 75.875 
Q 23.140625 64.359375 26.78125 53.3125 
Q 30.421875 42.28125 30.421875 31.390625 
Q 30.421875 20.453125 26.78125 9.375 
Q 23.140625 -1.703125 15.828125 -13.1875 
L 8.015625 -13.1875 
Q 14.5 -2 17.703125 9.0625 
Q 20.90625 20.125 20.90625 31.390625 
Q 20.90625 42.671875 17.703125 53.65625 
Q 14.5 64.65625 8.015625 75.875 
z
" id="DejaVuSans-41"/>
      </defs>
      <use xlink:href="#DejaVuSans-80"/>
      <use x="60.302734" xlink:href="#DejaVuSans-67"/>
      <use x="130.126953" xlink:href="#DejaVuSans-49"/>
      <use x="193.75" xlink:href="#DejaVuSans-32"/>
      <use x="225.537109" xlink:href="#DejaVuSans-40"/>
      <use x="264.550781" xlink:href="#DejaVuSans-55"/>
      <use x="328.173828" xlink:href="#DejaVuSans-49"/>
      <use x="391.796875" xlink:href="#DejaVuSans-46"/>
      <use x="423.583984" xlink:href="#DejaVuSans-49"/>
      <use x="487.207031" xlink:href="#DejaVuSans-52"/>
      <use x="550.830078" xlink:href="#DejaVuSans-32"/>
      <use x="582.617188" xlink:href="#DejaVuSans-37"/>
      <use x="677.636719" xlink:href="#DejaVuSans-41"/>
     </g>
    </g>
   </g>
   <g id="matplotlib.axis_2">
    <g id="ytick_1">
     <g id="line2d_6">
      <defs>
       <path d="M 0 0 
L -3.5 0 
" id="meb12b2351b" style="stroke:#000000;stroke-width:0.8;"/>
      </defs>
      <g>
       <use style="stroke:#000000;stroke-width:0.8;" x="57.6" xlink:href="#meb12b2351b" y="297.86815"/>
      </g>
     </g>
     <g id="text_7">
      <!-- −3 -->
      <g transform="translate(35.857813 301.667369)scale(0.1 -0.1)">
       <defs>
        <path d="M 40.578125 39.3125 
Q 47.65625 37.796875 51.625 33 
Q 55.609375 28.21875 55.609375 21.1875 
Q 55.609375 10.40625 48.1875 4.484375 
Q 40.765625 -1.421875 27.09375 -1.421875 
Q 22.515625 -1.421875 17.65625 -0.515625 
Q 12.796875 0.390625 7.625 2.203125 
L 7.625 11.71875 
Q 11.71875 9.328125 16.59375 8.109375 
Q 21.484375 6.890625 26.8125 6.890625 
Q 36.078125 6.890625 40.9375 10.546875 
Q 45.796875 14.203125 45.796875 21.1875 
Q 45.796875 27.640625 41.28125 31.265625 
Q 36.765625 34.90625 28.71875 34.90625 
L 20.21875 34.90625 
L 20.21875 43.015625 
L 29.109375 43.015625 
Q 36.375 43.015625 40.234375 45.921875 
Q 44.09375 48.828125 44.09375 54.296875 
Q 44.09375 59.90625 40.109375 62.90625 
Q 36.140625 65.921875 28.71875 65.921875 
Q 24.65625 65.921875 20.015625 65.03125 
Q 15.375 64.15625 9.8125 62.3125 
L 9.8125 71.09375 
Q 15.4375 72.65625 20.34375 73.4375 
Q 25.25 74.21875 29.59375 74.21875 
Q 40.828125 74.21875 47.359375 69.109375 
Q 53.90625 64.015625 53.90625 55.328125 
Q 53.90625 49.265625 50.4375 45.09375 
Q 46.96875 40.921875 40.578125 39.3125 
z
" id="DejaVuSans-51"/>
       </defs>
       <use xlink:href="#DejaVuSans-8722"/>
       <use x="83.789062" xlink:href="#DejaVuSans-51"/>
      </g>
     </g>
    </g>
    <g id="ytick_2">
     <g id="line2d_7">
      <g>
       <use style="stroke:#000000;stroke-width:0.8;" x="57.6" xlink:href="#meb12b2351b" y="259.178097"/>
      </g>
     </g>
     <g id="text_8">
      <!-- −2 -->
      <g transform="translate(35.857813 262.977316)scale(0.1 -0.1)">
       <use xlink:href="#DejaVuSans-8722"/>
       <use x="83.789062" xlink:href="#DejaVuSans-50"/>
      </g>
     </g>
    </g>
    <g id="ytick_3">
     <g id="line2d_8">
      <g>
       <use style="stroke:#000000;stroke-width:0.8;" x="57.6" xlink:href="#meb12b2351b" y="220.488043"/>
      </g>
     </g>
     <g id="text_9">
      <!-- −1 -->
      <g transform="translate(35.857813 224.287262)scale(0.1 -0.1)">
       <use xlink:href="#DejaVuSans-8722"/>
       <use x="83.789062" xlink:href="#DejaVuSans-49"/>
      </g>
     </g>
    </g>
    <g id="ytick_4">
     <g id="line2d_9">
      <g>
       <use style="stroke:#000000;stroke-width:0.8;" x="57.6" xlink:href="#meb12b2351b" y="181.79799"/>
      </g>
     </g>
     <g id="text_10">
      <!-- 0 -->
      <g transform="translate(44.2375 185.597209)scale(0.1 -0.1)">
       <use xlink:href="#DejaVuSans-48"/>
      </g>
     </g>
    </g>
    <g id="ytick_5">
     <g id="line2d_10">
      <g>
       <use style="stroke:#000000;stroke-width:0.8;" x="57.6" xlink:href="#meb12b2351b" y="143.107937"/>
      </g>
     </g>
     <g id="text_11">
      <!-- 1 -->
      <g transform="translate(44.2375 146.907155)scale(0.1 -0.1)">
       <use xlink:href="#DejaVuSans-49"/>
      </g>
     </g>
    </g>
    <g id="ytick_6">
     <g id="line2d_11">
      <g>
       <use style="stroke:#000000;stroke-width:0.8;" x="57.6" xlink:href="#meb12b2351b" y="104.417883"/>
      </g>
     </g>
     <g id="text_12">
      <!-- 2 -->
      <g transform="translate(44.2375 108.217102)scale(0.1 -0.1)">
       <use xlink:href="#DejaVuSans-50"/>
      </g>
     </g>
    </g>
    <g id="ytick_7">
     <g id="line2d_12">
      <g>
       <use style="stroke:#000000;stroke-width:0.8;" x="57.6" xlink:href="#meb12b2351b" y="65.72783"/>
      </g>
     </g>
     <g id="text_13">
      <!-- 3 -->
      <g transform="translate(44.2375 69.527048)scale(0.1 -0.1)">
       <use xlink:href="#DejaVuSans-51"/>
      </g>
     </g>
    </g>
    <g id="text_14">
     <!-- PC2 (27.39 %) -->
     <g transform="translate(29.778125 210.360031)rotate(-90)scale(0.1 -0.1)">
      <defs>
       <path d="M 10.984375 1.515625 
L 10.984375 10.5 
Q 14.703125 8.734375 18.5 7.8125 
Q 22.3125 6.890625 25.984375 6.890625 
Q 35.75 6.890625 40.890625 13.453125 
Q 46.046875 20.015625 46.78125 33.40625 
Q 43.953125 29.203125 39.59375 26.953125 
Q 35.25 24.703125 29.984375 24.703125 
Q 19.046875 24.703125 12.671875 31.3125 
Q 6.296875 37.9375 6.296875 49.421875 
Q 6.296875 60.640625 12.9375 67.421875 
Q 19.578125 74.21875 30.609375 74.21875 
Q 43.265625 74.21875 49.921875 64.515625 
Q 56.59375 54.828125 56.59375 36.375 
Q 56.59375 19.140625 48.40625 8.859375 
Q 40.234375 -1.421875 26.421875 -1.421875 
Q 22.703125 -1.421875 18.890625 -0.6875 
Q 15.09375 0.046875 10.984375 1.515625 
z
M 30.609375 32.421875 
Q 37.25 32.421875 41.125 36.953125 
Q 45.015625 41.5 45.015625 49.421875 
Q 45.015625 57.28125 41.125 61.84375 
Q 37.25 66.40625 30.609375 66.40625 
Q 23.96875 66.40625 20.09375 61.84375 
Q 16.21875 57.28125 16.21875 49.421875 
Q 16.21875 41.5 20.09375 36.953125 
Q 23.96875 32.421875 30.609375 32.421875 
z
" id="DejaVuSans-57"/>
      </defs>
      <use xlink:href="#DejaVuSans-80"/>
      <use x="60.302734" xlink:href="#DejaVuSans-67"/>
      <use x="130.126953" xlink:href="#DejaVuSans-50"/>
      <use x="193.75" xlink:href="#DejaVuSans-32"/>
      <use x="225.537109" xlink:href="#DejaVuSans-40"/>
      <use x="264.550781" xlink:href="#DejaVuSans-50"/>
      <use x="328.173828" xlink:href="#DejaVuSans-55"/>
      <use x="391.796875" xlink:href="#DejaVuSans-46"/>
      <use x="423.583984" xlink:href="#DejaVuSans-51"/>
      <use x="487.207031" xlink:href="#DejaVuSans-57"/>
      <use x="550.830078" xlink:href="#DejaVuSans-32"/>
      <use x="582.617188" xlink:href="#DejaVuSans-37"/>
      <use x="677.636719" xlink:href="#DejaVuSans-41"/>
     </g>
    </g>
   </g>
   <g id="line2d_13">
    <defs>
     <path d="M 0 3 
C 0.795609 3 1.55874 2.683901 2.12132 2.12132 
C 2.683901 1.55874 3 0.795609 3 0 
C 3 -0.795609 2.683901 -1.55874 2.12132 -2.12132 
C 1.55874 -2.683901 0.795609 -3 0 -3 
C -0.795609 -3 -1.55874 -2.683901 -2.12132 -2.12132 
C -2.683901 -1.55874 -3 -0.795609 -3 0 
C -3 0.795609 -2.683901 1.55874 -2.12132 2.12132 
C -1.55874 2.683901 -0.795609 3 0 3 
z
" id="me786cfd4ed" style="stroke:#e41a1c;"/>
    </defs>
    <g clip-path="url(#pa5b39b88d2)">
     <use style="fill:#e41a1c;stroke:#e41a1c;" x="291.734913" xlink:href="#me786cfd4ed" y="220.422325"/>
     <use style="fill:#e41a1c;stroke:#e41a1c;" x="269.275088" xlink:href="#me786cfd4ed" y="208.106168"/>
     <use style="fill:#e41a1c;stroke:#e41a1c;" x="321.23332" xlink:href="#me786cfd4ed" y="193.470871"/>
     <use style="fill:#e41a1c;stroke:#e41a1c;" x="300.632593" xlink:href="#me786cfd4ed" y="198.330709"/>
     <use style="fill:#e41a1c;stroke:#e41a1c;" x="290.238431" xlink:href="#me786cfd4ed" y="172.001154"/>
     <use style="fill:#e41a1c;stroke:#e41a1c;" x="158.888914" xlink:href="#me786cfd4ed" y="244.404151"/>
     <use style="fill:#e41a1c;stroke:#e41a1c;" x="200.511127" xlink:href="#me786cfd4ed" y="239.670619"/>
     <use style="fill:#e41a1c;stroke:#e41a1c;" x="290.18849" xlink:href="#me786cfd4ed" y="194.346666"/>
     <use style="fill:#e41a1c;stroke:#e41a1c;" x="161.397142" xlink:href="#me786cfd4ed" y="251.921885"/>
     <use style="fill:#e41a1c;stroke:#e41a1c;" x="169.095613" xlink:href="#me786cfd4ed" y="280.834196"/>
     <use style="fill:#e41a1c;stroke:#e41a1c;" x="182.539701" xlink:href="#me786cfd4ed" y="248.241907"/>
     <use style="fill:#e41a1c;stroke:#e41a1c;" x="227.153524" xlink:href="#me786cfd4ed" y="205.47402"/>
     <use style="fill:#e41a1c;stroke:#e41a1c;" x="398.487273" xlink:href="#me786cfd4ed" y="146.274098"/>
     <use style="fill:#e41a1c;stroke:#e41a1c;" x="187.19522" xlink:href="#me786cfd4ed" y="252.65704"/>
     <use style="fill:#e41a1c;stroke:#e41a1c;" x="228.166298" xlink:href="#me786cfd4ed" y="191.838638"/>
     <use style="fill:#e41a1c;stroke:#e41a1c;" x="270.888328" xlink:href="#me786cfd4ed" y="221.168844"/>
     <use style="fill:#e41a1c;stroke:#e41a1c;" x="216.565642" xlink:href="#me786cfd4ed" y="230.242029"/>
     <use style="fill:#e41a1c;stroke:#e41a1c;" x="172.368516" xlink:href="#me786cfd4ed" y="295.031383"/>
     <use style="fill:#e41a1c;stroke:#e41a1c;" x="255.129507" xlink:href="#me786cfd4ed" y="180.133086"/>
     <use style="fill:#e41a1c;stroke:#e41a1c;" x="250.685005" xlink:href="#me786cfd4ed" y="185.103128"/>
     <use style="fill:#e41a1c;stroke:#e41a1c;" x="267.623893" xlink:href="#me786cfd4ed" y="217.873785"/>
     <use style="fill:#e41a1c;stroke:#e41a1c;" x="309.702981" xlink:href="#me786cfd4ed" y="208.478736"/>
     <use style="fill:#e41a1c;stroke:#e41a1c;" x="358.445468" xlink:href="#me786cfd4ed" y="179.169193"/>
     <use style="fill:#e41a1c;stroke:#e41a1c;" x="169.165111" xlink:href="#me786cfd4ed" y="267.658318"/>
     <use style="fill:#e41a1c;stroke:#e41a1c;" x="212.288632" xlink:href="#me786cfd4ed" y="206.837013"/>
     <use style="fill:#e41a1c;stroke:#e41a1c;" x="225.245413" xlink:href="#me786cfd4ed" y="227.580324"/>
     <use style="fill:#e41a1c;stroke:#e41a1c;" x="161.038524" xlink:href="#me786cfd4ed" y="295.488"/>
     <use style="fill:#e41a1c;stroke:#e41a1c;" x="243.916551" xlink:href="#me786cfd4ed" y="209.502429"/>
     <use style="fill:#e41a1c;stroke:#e41a1c;" x="264.559323" xlink:href="#me786cfd4ed" y="212.076446"/>
     <use style="fill:#e41a1c;stroke:#e41a1c;" x="304.083924" xlink:href="#me786cfd4ed" y="216.458626"/>
     <use style="fill:#e41a1c;stroke:#e41a1c;" x="244.614163" xlink:href="#me786cfd4ed" y="216.105173"/>
     <use style="fill:#e41a1c;stroke:#e41a1c;" x="243.529713" xlink:href="#me786cfd4ed" y="224.128112"/>
     <use style="fill:#e41a1c;stroke:#e41a1c;" x="294.618766" xlink:href="#me786cfd4ed" y="204.358436"/>
     <use style="fill:#e41a1c;stroke:#e41a1c;" x="316.621324" xlink:href="#me786cfd4ed" y="169.174914"/>
     <use style="fill:#e41a1c;stroke:#e41a1c;" x="284.997539" xlink:href="#me786cfd4ed" y="178.445581"/>
     <use style="fill:#e41a1c;stroke:#e41a1c;" x="160.057928" xlink:href="#me786cfd4ed" y="212.607272"/>
     <use style="fill:#e41a1c;stroke:#e41a1c;" x="246.313716" xlink:href="#me786cfd4ed" y="220.557505"/>
     <use style="fill:#e41a1c;stroke:#e41a1c;" x="174.375652" xlink:href="#me786cfd4ed" y="273.63562"/>
     <use style="fill:#e41a1c;stroke:#e41a1c;" x="312.213089" xlink:href="#me786cfd4ed" y="210.689127"/>
    </g>
   </g>
   <g id="line2d_14">
    <defs>
     <path d="M 0 3 
C 0.795609 3 1.55874 2.683901 2.12132 2.12132 
C 2.683901 1.55874 3 0.795609 3 0 
C 3 -0.795609 2.683901 -1.55874 2.12132 -2.12132 
C 1.55874 -2.683901 0.795609 -3 0 -3 
C -0.795609 -3 -1.55874 -2.683901 -2.12132 -2.12132 
C -2.683901 -1.55874 -3 -0.795609 -3 0 
C -3 0.795609 -2.683901 1.55874 -2.12132 2.12132 
C -1.55874 2.683901 -0.795609 3 0 3 
z
" id="m9589cf975b" style="stroke:#377eb8;"/>
    </defs>
    <g clip-path="url(#pa5b39b88d2)">
     <use style="fill:#377eb8;stroke:#377eb8;" x="102.989869" xlink:href="#m9589cf975b" y="184.469179"/>
     <use style="fill:#377eb8;stroke:#377eb8;" x="103.027103" xlink:href="#m9589cf975b" y="183.200452"/>
     <use style="fill:#377eb8;stroke:#377eb8;" x="99.424238" xlink:href="#m9589cf975b" y="207.225318"/>
     <use style="fill:#377eb8;stroke:#377eb8;" x="93.657977" xlink:href="#m9589cf975b" y="281.880892"/>
     <use style="fill:#377eb8;stroke:#377eb8;" x="106.248426" xlink:href="#m9589cf975b" y="162.075882"/>
     <use style="fill:#377eb8;stroke:#377eb8;" x="96.921351" xlink:href="#m9589cf975b" y="197.726031"/>
     <use style="fill:#377eb8;stroke:#377eb8;" x="93.840725" xlink:href="#m9589cf975b" y="192.997272"/>
     <use style="fill:#377eb8;stroke:#377eb8;" x="119.935625" xlink:href="#m9589cf975b" y="147.814436"/>
     <use style="fill:#377eb8;stroke:#377eb8;" x="118.324179" xlink:href="#m9589cf975b" y="160.522148"/>
     <use style="fill:#377eb8;stroke:#377eb8;" x="77.736901" xlink:href="#m9589cf975b" y="238.800795"/>
     <use style="fill:#377eb8;stroke:#377eb8;" x="113.588681" xlink:href="#m9589cf975b" y="151.070081"/>
     <use style="fill:#377eb8;stroke:#377eb8;" x="98.349238" xlink:href="#m9589cf975b" y="186.18863"/>
     <use style="fill:#377eb8;stroke:#377eb8;" x="141.022255" xlink:href="#m9589cf975b" y="132.944325"/>
     <use style="fill:#377eb8;stroke:#377eb8;" x="86.613853" xlink:href="#m9589cf975b" y="204.32126"/>
     <use style="fill:#377eb8;stroke:#377eb8;" x="110.723341" xlink:href="#m9589cf975b" y="188.518551"/>
     <use style="fill:#377eb8;stroke:#377eb8;" x="131.133596" xlink:href="#m9589cf975b" y="144.702609"/>
     <use style="fill:#377eb8;stroke:#377eb8;" x="131.5678" xlink:href="#m9589cf975b" y="142.98127"/>
     <use style="fill:#377eb8;stroke:#377eb8;" x="157.838344" xlink:href="#m9589cf975b" y="112.216308"/>
     <use style="fill:#377eb8;stroke:#377eb8;" x="133.577984" xlink:href="#m9589cf975b" y="112.022005"/>
     <use style="fill:#377eb8;stroke:#377eb8;" x="110.942729" xlink:href="#m9589cf975b" y="162.087708"/>
     <use style="fill:#377eb8;stroke:#377eb8;" x="105.614491" xlink:href="#m9589cf975b" y="183.67999"/>
     <use style="fill:#377eb8;stroke:#377eb8;" x="107.345761" xlink:href="#m9589cf975b" y="198.207549"/>
     <use style="fill:#377eb8;stroke:#377eb8;" x="104.5552" xlink:href="#m9589cf975b" y="170.547913"/>
     <use style="fill:#377eb8;stroke:#377eb8;" x="112.80317" xlink:href="#m9589cf975b" y="164.908129"/>
     <use style="fill:#377eb8;stroke:#377eb8;" x="143.155964" xlink:href="#m9589cf975b" y="125.276296"/>
     <use style="fill:#377eb8;stroke:#377eb8;" x="108.160551" xlink:href="#m9589cf975b" y="174.974135"/>
     <use style="fill:#377eb8;stroke:#377eb8;" x="107.303432" xlink:href="#m9589cf975b" y="185.82807"/>
     <use style="fill:#377eb8;stroke:#377eb8;" x="136.326024" xlink:href="#m9589cf975b" y="122.658816"/>
     <use style="fill:#377eb8;stroke:#377eb8;" x="127.32907" xlink:href="#m9589cf975b" y="139.915392"/>
     <use style="fill:#377eb8;stroke:#377eb8;" x="136.933089" xlink:href="#m9589cf975b" y="133.735421"/>
     <use style="fill:#377eb8;stroke:#377eb8;" x="120.306275" xlink:href="#m9589cf975b" y="165.657589"/>
     <use style="fill:#377eb8;stroke:#377eb8;" x="113.372322" xlink:href="#m9589cf975b" y="170.984169"/>
     <use style="fill:#377eb8;stroke:#377eb8;" x="110.096404" xlink:href="#m9589cf975b" y="179.546351"/>
     <use style="fill:#377eb8;stroke:#377eb8;" x="107.851587" xlink:href="#m9589cf975b" y="183.685437"/>
     <use style="fill:#377eb8;stroke:#377eb8;" x="138.181522" xlink:href="#m9589cf975b" y="137.521266"/>
     <use style="fill:#377eb8;stroke:#377eb8;" x="97.2646" xlink:href="#m9589cf975b" y="172.844509"/>
     <use style="fill:#377eb8;stroke:#377eb8;" x="115.328502" xlink:href="#m9589cf975b" y="153.927301"/>
     <use style="fill:#377eb8;stroke:#377eb8;" x="85.555526" xlink:href="#m9589cf975b" y="211.269696"/>
     <use style="fill:#377eb8;stroke:#377eb8;" x="78.193176" xlink:href="#m9589cf975b" y="241.812556"/>
     <use style="fill:#377eb8;stroke:#377eb8;" x="124.769555" xlink:href="#m9589cf975b" y="145.49953"/>
     <use style="fill:#377eb8;stroke:#377eb8;" x="119.723114" xlink:href="#m9589cf975b" y="152.444913"/>
     <use style="fill:#377eb8;stroke:#377eb8;" x="91.193588" xlink:href="#m9589cf975b" y="200.034484"/>
     <use style="fill:#377eb8;stroke:#377eb8;" x="103.741995" xlink:href="#m9589cf975b" y="192.330346"/>
     <use style="fill:#377eb8;stroke:#377eb8;" x="79.370611" xlink:href="#m9589cf975b" y="253.938314"/>
     <use style="fill:#377eb8;stroke:#377eb8;" x="128.550329" xlink:href="#m9589cf975b" y="157.23253"/>
     <use style="fill:#377eb8;stroke:#377eb8;" x="87.667728" xlink:href="#m9589cf975b" y="278.02696"/>
     <use style="fill:#377eb8;stroke:#377eb8;" x="109.558929" xlink:href="#m9589cf975b" y="183.681604"/>
     <use style="fill:#377eb8;stroke:#377eb8;" x="100.292153" xlink:href="#m9589cf975b" y="188.072918"/>
     <use style="fill:#377eb8;stroke:#377eb8;" x="107.440225" xlink:href="#m9589cf975b" y="195.955864"/>
     <use style="fill:#377eb8;stroke:#377eb8;" x="96.76048" xlink:href="#m9589cf975b" y="183.265132"/>
     <use style="fill:#377eb8;stroke:#377eb8;" x="87.576754" xlink:href="#m9589cf975b" y="209.096191"/>
     <use style="fill:#377eb8;stroke:#377eb8;" x="110.102274" xlink:href="#m9589cf975b" y="167.781644"/>
     <use style="fill:#377eb8;stroke:#377eb8;" x="122.0123" xlink:href="#m9589cf975b" y="165.532581"/>
     <use style="fill:#377eb8;stroke:#377eb8;" x="85.866132" xlink:href="#m9589cf975b" y="219.918987"/>
     <use style="fill:#377eb8;stroke:#377eb8;" x="114.75234" xlink:href="#m9589cf975b" y="189.012521"/>
     <use style="fill:#377eb8;stroke:#377eb8;" x="112.744354" xlink:href="#m9589cf975b" y="168.091484"/>
     <use style="fill:#377eb8;stroke:#377eb8;" x="79.005444" xlink:href="#m9589cf975b" y="235.434772"/>
     <use style="fill:#377eb8;stroke:#377eb8;" x="121.170106" xlink:href="#m9589cf975b" y="168.202953"/>
     <use style="fill:#377eb8;stroke:#377eb8;" x="105.015042" xlink:href="#m9589cf975b" y="184.44824"/>
     <use style="fill:#377eb8;stroke:#377eb8;" x="117.518105" xlink:href="#m9589cf975b" y="182.347559"/>
     <use style="fill:#377eb8;stroke:#377eb8;" x="76.401503" xlink:href="#m9589cf975b" y="247.776565"/>
     <use style="fill:#377eb8;stroke:#377eb8;" x="96.110175" xlink:href="#m9589cf975b" y="210.799578"/>
     <use style="fill:#377eb8;stroke:#377eb8;" x="116.433456" xlink:href="#m9589cf975b" y="156.414414"/>
     <use style="fill:#377eb8;stroke:#377eb8;" x="83.388645" xlink:href="#m9589cf975b" y="215.765262"/>
     <use style="fill:#377eb8;stroke:#377eb8;" x="84.196814" xlink:href="#m9589cf975b" y="233.452436"/>
     <use style="fill:#377eb8;stroke:#377eb8;" x="103.888769" xlink:href="#m9589cf975b" y="196.343884"/>
     <use style="fill:#377eb8;stroke:#377eb8;" x="102.732432" xlink:href="#m9589cf975b" y="179.790312"/>
     <use style="fill:#377eb8;stroke:#377eb8;" x="88.674137" xlink:href="#m9589cf975b" y="216.760763"/>
     <use style="fill:#377eb8;stroke:#377eb8;" x="90.999646" xlink:href="#m9589cf975b" y="214.289496"/>
     <use style="fill:#377eb8;stroke:#377eb8;" x="115.999675" xlink:href="#m9589cf975b" y="145.215689"/>
     <use style="fill:#377eb8;stroke:#377eb8;" x="116.782064" xlink:href="#m9589cf975b" y="145.809321"/>
     <use style="fill:#377eb8;stroke:#377eb8;" x="110.082503" xlink:href="#m9589cf975b" y="163.311767"/>
     <use style="fill:#377eb8;stroke:#377eb8;" x="102.273031" xlink:href="#m9589cf975b" y="171.007733"/>
     <use style="fill:#377eb8;stroke:#377eb8;" x="134.750798" xlink:href="#m9589cf975b" y="141.362089"/>
     <use style="fill:#377eb8;stroke:#377eb8;" x="122.269416" xlink:href="#m9589cf975b" y="135.572444"/>
     <use style="fill:#377eb8;stroke:#377eb8;" x="130.862376" xlink:href="#m9589cf975b" y="141.021529"/>
     <use style="fill:#377eb8;stroke:#377eb8;" x="85.025436" xlink:href="#m9589cf975b" y="208.32109"/>
     <use style="fill:#377eb8;stroke:#377eb8;" x="99.587582" xlink:href="#m9589cf975b" y="178.546506"/>
     <use style="fill:#377eb8;stroke:#377eb8;" x="113.469854" xlink:href="#m9589cf975b" y="182.427713"/>
     <use style="fill:#377eb8;stroke:#377eb8;" x="160.604709" xlink:href="#m9589cf975b" y="109.50053"/>
     <use style="fill:#377eb8;stroke:#377eb8;" x="99.524136" xlink:href="#m9589cf975b" y="186.206458"/>
     <use style="fill:#377eb8;stroke:#377eb8;" x="150.415931" xlink:href="#m9589cf975b" y="99.569445"/>
     <use style="fill:#377eb8;stroke:#377eb8;" x="101.232271" xlink:href="#m9589cf975b" y="192.063595"/>
     <use style="fill:#377eb8;stroke:#377eb8;" x="111.664667" xlink:href="#m9589cf975b" y="165.827709"/>
     <use style="fill:#377eb8;stroke:#377eb8;" x="98.67862" xlink:href="#m9589cf975b" y="177.741825"/>
     <use style="fill:#377eb8;stroke:#377eb8;" x="149.429204" xlink:href="#m9589cf975b" y="119.103323"/>
     <use style="fill:#377eb8;stroke:#377eb8;" x="132.600098" xlink:href="#m9589cf975b" y="154.257207"/>
     <use style="fill:#377eb8;stroke:#377eb8;" x="130.872882" xlink:href="#m9589cf975b" y="145.802546"/>
     <use style="fill:#377eb8;stroke:#377eb8;" x="112.990701" xlink:href="#m9589cf975b" y="167.830523"/>
     <use style="fill:#377eb8;stroke:#377eb8;" x="97.573988" xlink:href="#m9589cf975b" y="195.910742"/>
     <use style="fill:#377eb8;stroke:#377eb8;" x="86.517419" xlink:href="#m9589cf975b" y="217.856945"/>
     <use style="fill:#377eb8;stroke:#377eb8;" x="106.152882" xlink:href="#m9589cf975b" y="167.996326"/>
     <use style="fill:#377eb8;stroke:#377eb8;" x="108.212068" xlink:href="#m9589cf975b" y="185.979004"/>
     <use style="fill:#377eb8;stroke:#377eb8;" x="92.133387" xlink:href="#m9589cf975b" y="195.365125"/>
     <use style="fill:#377eb8;stroke:#377eb8;" x="125.346847" xlink:href="#m9589cf975b" y="149.661068"/>
     <use style="fill:#377eb8;stroke:#377eb8;" x="124.318183" xlink:href="#m9589cf975b" y="132.658307"/>
     <use style="fill:#377eb8;stroke:#377eb8;" x="109.736128" xlink:href="#m9589cf975b" y="182.813067"/>
     <use style="fill:#377eb8;stroke:#377eb8;" x="111.177992" xlink:href="#m9589cf975b" y="152.187482"/>
     <use style="fill:#377eb8;stroke:#377eb8;" x="102.217761" xlink:href="#m9589cf975b" y="208.880658"/>
     <use style="fill:#377eb8;stroke:#377eb8;" x="132.562274" xlink:href="#m9589cf975b" y="143.862106"/>
     <use style="fill:#377eb8;stroke:#377eb8;" x="108.146189" xlink:href="#m9589cf975b" y="189.072662"/>
     <use style="fill:#377eb8;stroke:#377eb8;" x="104.678538" xlink:href="#m9589cf975b" y="183.537301"/>
     <use style="fill:#377eb8;stroke:#377eb8;" x="107.869781" xlink:href="#m9589cf975b" y="166.85556"/>
     <use style="fill:#377eb8;stroke:#377eb8;" x="159.791196" xlink:href="#m9589cf975b" y="103.53311"/>
     <use style="fill:#377eb8;stroke:#377eb8;" x="108.966633" xlink:href="#m9589cf975b" y="157.29639"/>
     <use style="fill:#377eb8;stroke:#377eb8;" x="142.7317" xlink:href="#m9589cf975b" y="138.489911"/>
     <use style="fill:#377eb8;stroke:#377eb8;" x="122.035591" xlink:href="#m9589cf975b" y="145.35357"/>
     <use style="fill:#377eb8;stroke:#377eb8;" x="109.628533" xlink:href="#m9589cf975b" y="163.921358"/>
     <use style="fill:#377eb8;stroke:#377eb8;" x="90.276484" xlink:href="#m9589cf975b" y="187.319233"/>
     <use style="fill:#377eb8;stroke:#377eb8;" x="84.691395" xlink:href="#m9589cf975b" y="291.819135"/>
     <use style="fill:#377eb8;stroke:#377eb8;" x="111.02865" xlink:href="#m9589cf975b" y="180.074442"/>
     <use style="fill:#377eb8;stroke:#377eb8;" x="94.351434" xlink:href="#m9589cf975b" y="194.936997"/>
     <use style="fill:#377eb8;stroke:#377eb8;" x="103.127379" xlink:href="#m9589cf975b" y="180.736083"/>
     <use style="fill:#377eb8;stroke:#377eb8;" x="126.560538" xlink:href="#m9589cf975b" y="153.395075"/>
     <use style="fill:#377eb8;stroke:#377eb8;" x="130.98151" xlink:href="#m9589cf975b" y="148.494012"/>
     <use style="fill:#377eb8;stroke:#377eb8;" x="93.08931" xlink:href="#m9589cf975b" y="189.631187"/>
     <use style="fill:#377eb8;stroke:#377eb8;" x="88.935185" xlink:href="#m9589cf975b" y="215.512493"/>
     <use style="fill:#377eb8;stroke:#377eb8;" x="92.35373" xlink:href="#m9589cf975b" y="209.740746"/>
     <use style="fill:#377eb8;stroke:#377eb8;" x="108.013208" xlink:href="#m9589cf975b" y="177.385832"/>
     <use style="fill:#377eb8;stroke:#377eb8;" x="176.471078" xlink:href="#m9589cf975b" y="70.62121"/>
     <use style="fill:#377eb8;stroke:#377eb8;" x="100.384597" xlink:href="#m9589cf975b" y="175.757862"/>
     <use style="fill:#377eb8;stroke:#377eb8;" x="83.352038" xlink:href="#m9589cf975b" y="268.401056"/>
     <use style="fill:#377eb8;stroke:#377eb8;" x="118.370878" xlink:href="#m9589cf975b" y="165.079841"/>
     <use style="fill:#377eb8;stroke:#377eb8;" x="95.059994" xlink:href="#m9589cf975b" y="206.387945"/>
     <use style="fill:#377eb8;stroke:#377eb8;" x="100.375725" xlink:href="#m9589cf975b" y="193.054085"/>
     <use style="fill:#377eb8;stroke:#377eb8;" x="129.968674" xlink:href="#m9589cf975b" y="188.608726"/>
     <use style="fill:#377eb8;stroke:#377eb8;" x="104.906858" xlink:href="#m9589cf975b" y="187.331924"/>
     <use style="fill:#377eb8;stroke:#377eb8;" x="109.224559" xlink:href="#m9589cf975b" y="170.107446"/>
     <use style="fill:#377eb8;stroke:#377eb8;" x="83.787484" xlink:href="#m9589cf975b" y="215.247582"/>
     <use style="fill:#377eb8;stroke:#377eb8;" x="88.436643" xlink:href="#m9589cf975b" y="191.842742"/>
     <use style="fill:#377eb8;stroke:#377eb8;" x="119.495075" xlink:href="#m9589cf975b" y="164.613228"/>
     <use style="fill:#377eb8;stroke:#377eb8;" x="148.604875" xlink:href="#m9589cf975b" y="96.094049"/>
     <use style="fill:#377eb8;stroke:#377eb8;" x="115.584211" xlink:href="#m9589cf975b" y="151.613389"/>
     <use style="fill:#377eb8;stroke:#377eb8;" x="162.272437" xlink:href="#m9589cf975b" y="110.81055"/>
     <use style="fill:#377eb8;stroke:#377eb8;" x="97.298879" xlink:href="#m9589cf975b" y="197.822269"/>
     <use style="fill:#377eb8;stroke:#377eb8;" x="130.540298" xlink:href="#m9589cf975b" y="189.020427"/>
     <use style="fill:#377eb8;stroke:#377eb8;" x="93.385217" xlink:href="#m9589cf975b" y="207.113082"/>
     <use style="fill:#377eb8;stroke:#377eb8;" x="73.832727" xlink:href="#m9589cf975b" y="240.065351"/>
     <use style="fill:#377eb8;stroke:#377eb8;" x="115.555237" xlink:href="#m9589cf975b" y="146.998245"/>
     <use style="fill:#377eb8;stroke:#377eb8;" x="132.866985" xlink:href="#m9589cf975b" y="125.84785"/>
     <use style="fill:#377eb8;stroke:#377eb8;" x="112.015434" xlink:href="#m9589cf975b" y="153.216316"/>
     <use style="fill:#377eb8;stroke:#377eb8;" x="129.695598" xlink:href="#m9589cf975b" y="139.648307"/>
     <use style="fill:#377eb8;stroke:#377eb8;" x="122.104229" xlink:href="#m9589cf975b" y="127.811974"/>
     <use style="fill:#377eb8;stroke:#377eb8;" x="118.474361" xlink:href="#m9589cf975b" y="146.841626"/>
     <use style="fill:#377eb8;stroke:#377eb8;" x="94.953851" xlink:href="#m9589cf975b" y="192.182722"/>
     <use style="fill:#377eb8;stroke:#377eb8;" x="95.25541" xlink:href="#m9589cf975b" y="292.621323"/>
     <use style="fill:#377eb8;stroke:#377eb8;" x="87.009654" xlink:href="#m9589cf975b" y="207.936865"/>
     <use style="fill:#377eb8;stroke:#377eb8;" x="87.407924" xlink:href="#m9589cf975b" y="209.213049"/>
     <use style="fill:#377eb8;stroke:#377eb8;" x="88.555464" xlink:href="#m9589cf975b" y="197.729034"/>
     <use style="fill:#377eb8;stroke:#377eb8;" x="113.213832" xlink:href="#m9589cf975b" y="165.232862"/>
     <use style="fill:#377eb8;stroke:#377eb8;" x="114.904779" xlink:href="#m9589cf975b" y="161.484261"/>
     <use style="fill:#377eb8;stroke:#377eb8;" x="110.890854" xlink:href="#m9589cf975b" y="160.547196"/>
     <use style="fill:#377eb8;stroke:#377eb8;" x="90.967245" xlink:href="#m9589cf975b" y="205.502749"/>
     <use style="fill:#377eb8;stroke:#377eb8;" x="111.259933" xlink:href="#m9589cf975b" y="166.95261"/>
     <use style="fill:#377eb8;stroke:#377eb8;" x="78.83796" xlink:href="#m9589cf975b" y="231.609627"/>
     <use style="fill:#377eb8;stroke:#377eb8;" x="93.654503" xlink:href="#m9589cf975b" y="216.580556"/>
     <use style="fill:#377eb8;stroke:#377eb8;" x="190.06327" xlink:href="#m9589cf975b" y="53.568"/>
     <use style="fill:#377eb8;stroke:#377eb8;" x="155.905918" xlink:href="#m9589cf975b" y="102.20611"/>
     <use style="fill:#377eb8;stroke:#377eb8;" x="108.688866" xlink:href="#m9589cf975b" y="175.094342"/>
     <use style="fill:#377eb8;stroke:#377eb8;" x="127.668884" xlink:href="#m9589cf975b" y="150.66857"/>
     <use style="fill:#377eb8;stroke:#377eb8;" x="109.887418" xlink:href="#m9589cf975b" y="202.395012"/>
     <use style="fill:#377eb8;stroke:#377eb8;" x="110.269971" xlink:href="#m9589cf975b" y="185.358511"/>
     <use style="fill:#377eb8;stroke:#377eb8;" x="108.738022" xlink:href="#m9589cf975b" y="154.128127"/>
     <use style="fill:#377eb8;stroke:#377eb8;" x="113.348411" xlink:href="#m9589cf975b" y="174.691571"/>
     <use style="fill:#377eb8;stroke:#377eb8;" x="97.084052" xlink:href="#m9589cf975b" y="215.447942"/>
     <use style="fill:#377eb8;stroke:#377eb8;" x="93.4717" xlink:href="#m9589cf975b" y="194.870234"/>
     <use style="fill:#377eb8;stroke:#377eb8;" x="123.898196" xlink:href="#m9589cf975b" y="145.817179"/>
     <use style="fill:#377eb8;stroke:#377eb8;" x="111.164186" xlink:href="#m9589cf975b" y="157.146951"/>
     <use style="fill:#377eb8;stroke:#377eb8;" x="117.181265" xlink:href="#m9589cf975b" y="164.22245"/>
     <use style="fill:#377eb8;stroke:#377eb8;" x="152.154135" xlink:href="#m9589cf975b" y="117.73596"/>
     <use style="fill:#377eb8;stroke:#377eb8;" x="131.450874" xlink:href="#m9589cf975b" y="154.843261"/>
     <use style="fill:#377eb8;stroke:#377eb8;" x="100.480434" xlink:href="#m9589cf975b" y="212.101458"/>
     <use style="fill:#377eb8;stroke:#377eb8;" x="113.501402" xlink:href="#m9589cf975b" y="160.25029"/>
     <use style="fill:#377eb8;stroke:#377eb8;" x="99.612034" xlink:href="#m9589cf975b" y="174.8538"/>
     <use style="fill:#377eb8;stroke:#377eb8;" x="121.811789" xlink:href="#m9589cf975b" y="177.797037"/>
     <use style="fill:#377eb8;stroke:#377eb8;" x="130.49291" xlink:href="#m9589cf975b" y="152.671528"/>
     <use style="fill:#377eb8;stroke:#377eb8;" x="151.000286" xlink:href="#m9589cf975b" y="126.778916"/>
     <use style="fill:#377eb8;stroke:#377eb8;" x="110.023246" xlink:href="#m9589cf975b" y="186.942795"/>
     <use style="fill:#377eb8;stroke:#377eb8;" x="87.507916" xlink:href="#m9589cf975b" y="201.480569"/>
     <use style="fill:#377eb8;stroke:#377eb8;" x="157.710217" xlink:href="#m9589cf975b" y="101.694765"/>
     <use style="fill:#377eb8;stroke:#377eb8;" x="115.90979" xlink:href="#m9589cf975b" y="158.609821"/>
     <use style="fill:#377eb8;stroke:#377eb8;" x="102.166779" xlink:href="#m9589cf975b" y="195.210084"/>
     <use style="fill:#377eb8;stroke:#377eb8;" x="79.024453" xlink:href="#m9589cf975b" y="216.580378"/>
     <use style="fill:#377eb8;stroke:#377eb8;" x="100.018172" xlink:href="#m9589cf975b" y="179.853122"/>
     <use style="fill:#377eb8;stroke:#377eb8;" x="132.950552" xlink:href="#m9589cf975b" y="148.777216"/>
     <use style="fill:#377eb8;stroke:#377eb8;" x="114.664574" xlink:href="#m9589cf975b" y="168.328042"/>
     <use style="fill:#377eb8;stroke:#377eb8;" x="126.151347" xlink:href="#m9589cf975b" y="142.521899"/>
     <use style="fill:#377eb8;stroke:#377eb8;" x="134.854645" xlink:href="#m9589cf975b" y="122.929327"/>
     <use style="fill:#377eb8;stroke:#377eb8;" x="138.833648" xlink:href="#m9589cf975b" y="122.464229"/>
     <use style="fill:#377eb8;stroke:#377eb8;" x="121.943316" xlink:href="#m9589cf975b" y="147.007628"/>
     <use style="fill:#377eb8;stroke:#377eb8;" x="115.660016" xlink:href="#m9589cf975b" y="177.180187"/>
    </g>
   </g>
   <g id="patch_3">
    <path d="M 57.6 307.584 
L 57.6 41.472 
" style="fill:none;stroke:#000000;stroke-linecap:square;stroke-linejoin:miter;stroke-width:0.8;"/>
   </g>
   <g id="patch_4">
    <path d="M 414.72 307.584 
L 414.72 41.472 
" style="fill:none;stroke:#000000;stroke-linecap:square;stroke-linejoin:miter;stroke-width:0.8;"/>
   </g>
   <g id="patch_5">
    <path d="M 57.6 307.584 
L 414.72 307.584 
" style="fill:none;stroke:#000000;stroke-linecap:square;stroke-linejoin:miter;stroke-width:0.8;"/>
   </g>
   <g id="patch_6">
    <path d="M 57.6 41.472 
L 414.72 41.472 
" style="fill:none;stroke:#000000;stroke-linecap:square;stroke-linejoin:miter;stroke-width:0.8;"/>
   </g>
   <g id="text_15">
    <!-- PCA -->
    <g transform="translate(224.248125 35.472)scale(0.12 -0.12)">
     <defs>
      <path d="M 34.1875 63.1875 
L 20.796875 26.90625 
L 47.609375 26.90625 
z
M 28.609375 72.90625 
L 39.796875 72.90625 
L 67.578125 0 
L 57.328125 0 
L 50.6875 18.703125 
L 17.828125 18.703125 
L 11.1875 0 
L 0.78125 0 
z
" id="DejaVuSans-65"/>
     </defs>
     <use xlink:href="#DejaVuSans-80"/>
     <use x="60.302734" xlink:href="#DejaVuSans-67"/>
     <use x="130.126953" xlink:href="#DejaVuSans-65"/>
    </g>
   </g>
   <g id="legend_1">
    <g id="patch_7">
     <path d="M 251.121563 78.82825 
L 407.72 78.82825 
Q 409.72 78.82825 409.72 76.82825 
L 409.72 48.472 
Q 409.72 46.472 407.72 46.472 
L 251.121563 46.472 
Q 249.121563 46.472 249.121563 48.472 
L 249.121563 76.82825 
Q 249.121563 78.82825 251.121563 78.82825 
z
" style="fill:#ffffff;opacity:0.8;stroke:#cccccc;stroke-linejoin:miter;"/>
    </g>
    <g id="line2d_15"/>
    <g id="line2d_16">
     <g>
      <use style="fill:#e41a1c;stroke:#e41a1c;" x="263.121562" xlink:href="#me786cfd4ed" y="54.570437"/>
     </g>
    </g>
    <g id="text_16">
     <!-- Aesculus hippocastanum -->
     <g transform="translate(281.121562 58.070437)scale(0.1 -0.1)">
      <defs>
       <path d="M 56.203125 29.59375 
L 56.203125 25.203125 
L 14.890625 25.203125 
Q 15.484375 15.921875 20.484375 11.0625 
Q 25.484375 6.203125 34.421875 6.203125 
Q 39.59375 6.203125 44.453125 7.46875 
Q 49.3125 8.734375 54.109375 11.28125 
L 54.109375 2.78125 
Q 49.265625 0.734375 44.1875 -0.34375 
Q 39.109375 -1.421875 33.890625 -1.421875 
Q 20.796875 -1.421875 13.15625 6.1875 
Q 5.515625 13.8125 5.515625 26.8125 
Q 5.515625 40.234375 12.765625 48.109375 
Q 20.015625 56 32.328125 56 
Q 43.359375 56 49.78125 48.890625 
Q 56.203125 41.796875 56.203125 29.59375 
z
M 47.21875 32.234375 
Q 47.125 39.59375 43.09375 43.984375 
Q 39.0625 48.390625 32.421875 48.390625 
Q 24.90625 48.390625 20.390625 44.140625 
Q 15.875 39.890625 15.1875 32.171875 
z
" id="DejaVuSans-101"/>
       <path d="M 44.28125 53.078125 
L 44.28125 44.578125 
Q 40.484375 46.53125 36.375 47.5 
Q 32.28125 48.484375 27.875 48.484375 
Q 21.1875 48.484375 17.84375 46.4375 
Q 14.5 44.390625 14.5 40.28125 
Q 14.5 37.15625 16.890625 35.375 
Q 19.28125 33.59375 26.515625 31.984375 
L 29.59375 31.296875 
Q 39.15625 29.25 43.1875 25.515625 
Q 47.21875 21.78125 47.21875 15.09375 
Q 47.21875 7.46875 41.1875 3.015625 
Q 35.15625 -1.421875 24.609375 -1.421875 
Q 20.21875 -1.421875 15.453125 -0.5625 
Q 10.6875 0.296875 5.421875 2 
L 5.421875 11.28125 
Q 10.40625 8.6875 15.234375 7.390625 
Q 20.0625 6.109375 24.8125 6.109375 
Q 31.15625 6.109375 34.5625 8.28125 
Q 37.984375 10.453125 37.984375 14.40625 
Q 37.984375 18.0625 35.515625 20.015625 
Q 33.0625 21.96875 24.703125 23.78125 
L 21.578125 24.515625 
Q 13.234375 26.265625 9.515625 29.90625 
Q 5.8125 33.546875 5.8125 39.890625 
Q 5.8125 47.609375 11.28125 51.796875 
Q 16.75 56 26.8125 56 
Q 31.78125 56 36.171875 55.265625 
Q 40.578125 54.546875 44.28125 53.078125 
z
" id="DejaVuSans-115"/>
       <path d="M 48.78125 52.59375 
L 48.78125 44.1875 
Q 44.96875 46.296875 41.140625 47.34375 
Q 37.3125 48.390625 33.40625 48.390625 
Q 24.65625 48.390625 19.8125 42.84375 
Q 14.984375 37.3125 14.984375 27.296875 
Q 14.984375 17.28125 19.8125 11.734375 
Q 24.65625 6.203125 33.40625 6.203125 
Q 37.3125 6.203125 41.140625 7.25 
Q 44.96875 8.296875 48.78125 10.40625 
L 48.78125 2.09375 
Q 45.015625 0.34375 40.984375 -0.53125 
Q 36.96875 -1.421875 32.421875 -1.421875 
Q 20.0625 -1.421875 12.78125 6.34375 
Q 5.515625 14.109375 5.515625 27.296875 
Q 5.515625 40.671875 12.859375 48.328125 
Q 20.21875 56 33.015625 56 
Q 37.15625 56 41.109375 55.140625 
Q 45.0625 54.296875 48.78125 52.59375 
z
" id="DejaVuSans-99"/>
       <path d="M 8.5 21.578125 
L 8.5 54.6875 
L 17.484375 54.6875 
L 17.484375 21.921875 
Q 17.484375 14.15625 20.5 10.265625 
Q 23.53125 6.390625 29.59375 6.390625 
Q 36.859375 6.390625 41.078125 11.03125 
Q 45.3125 15.671875 45.3125 23.6875 
L 45.3125 54.6875 
L 54.296875 54.6875 
L 54.296875 0 
L 45.3125 0 
L 45.3125 8.40625 
Q 42.046875 3.421875 37.71875 1 
Q 33.40625 -1.421875 27.6875 -1.421875 
Q 18.265625 -1.421875 13.375 4.4375 
Q 8.5 10.296875 8.5 21.578125 
z
M 31.109375 56 
z
" id="DejaVuSans-117"/>
       <path d="M 9.421875 75.984375 
L 18.40625 75.984375 
L 18.40625 0 
L 9.421875 0 
z
" id="DejaVuSans-108"/>
       <path d="M 54.890625 33.015625 
L 54.890625 0 
L 45.90625 0 
L 45.90625 32.71875 
Q 45.90625 40.484375 42.875 44.328125 
Q 39.84375 48.1875 33.796875 48.1875 
Q 26.515625 48.1875 22.3125 43.546875 
Q 18.109375 38.921875 18.109375 30.90625 
L 18.109375 0 
L 9.078125 0 
L 9.078125 75.984375 
L 18.109375 75.984375 
L 18.109375 46.1875 
Q 21.34375 51.125 25.703125 53.5625 
Q 30.078125 56 35.796875 56 
Q 45.21875 56 50.046875 50.171875 
Q 54.890625 44.34375 54.890625 33.015625 
z
" id="DejaVuSans-104"/>
       <path d="M 9.421875 54.6875 
L 18.40625 54.6875 
L 18.40625 0 
L 9.421875 0 
z
M 9.421875 75.984375 
L 18.40625 75.984375 
L 18.40625 64.59375 
L 9.421875 64.59375 
z
" id="DejaVuSans-105"/>
       <path d="M 18.109375 8.203125 
L 18.109375 -20.796875 
L 9.078125 -20.796875 
L 9.078125 54.6875 
L 18.109375 54.6875 
L 18.109375 46.390625 
Q 20.953125 51.265625 25.265625 53.625 
Q 29.59375 56 35.59375 56 
Q 45.5625 56 51.78125 48.09375 
Q 58.015625 40.1875 58.015625 27.296875 
Q 58.015625 14.40625 51.78125 6.484375 
Q 45.5625 -1.421875 35.59375 -1.421875 
Q 29.59375 -1.421875 25.265625 0.953125 
Q 20.953125 3.328125 18.109375 8.203125 
z
M 48.6875 27.296875 
Q 48.6875 37.203125 44.609375 42.84375 
Q 40.53125 48.484375 33.40625 48.484375 
Q 26.265625 48.484375 22.1875 42.84375 
Q 18.109375 37.203125 18.109375 27.296875 
Q 18.109375 17.390625 22.1875 11.75 
Q 26.265625 6.109375 33.40625 6.109375 
Q 40.53125 6.109375 44.609375 11.75 
Q 48.6875 17.390625 48.6875 27.296875 
z
" id="DejaVuSans-112"/>
       <path d="M 30.609375 48.390625 
Q 23.390625 48.390625 19.1875 42.75 
Q 14.984375 37.109375 14.984375 27.296875 
Q 14.984375 17.484375 19.15625 11.84375 
Q 23.34375 6.203125 30.609375 6.203125 
Q 37.796875 6.203125 41.984375 11.859375 
Q 46.1875 17.53125 46.1875 27.296875 
Q 46.1875 37.015625 41.984375 42.703125 
Q 37.796875 48.390625 30.609375 48.390625 
z
M 30.609375 56 
Q 42.328125 56 49.015625 48.375 
Q 55.71875 40.765625 55.71875 27.296875 
Q 55.71875 13.875 49.015625 6.21875 
Q 42.328125 -1.421875 30.609375 -1.421875 
Q 18.84375 -1.421875 12.171875 6.21875 
Q 5.515625 13.875 5.515625 27.296875 
Q 5.515625 40.765625 12.171875 48.375 
Q 18.84375 56 30.609375 56 
z
" id="DejaVuSans-111"/>
       <path d="M 34.28125 27.484375 
Q 23.390625 27.484375 19.1875 25 
Q 14.984375 22.515625 14.984375 16.5 
Q 14.984375 11.71875 18.140625 8.90625 
Q 21.296875 6.109375 26.703125 6.109375 
Q 34.1875 6.109375 38.703125 11.40625 
Q 43.21875 16.703125 43.21875 25.484375 
L 43.21875 27.484375 
z
M 52.203125 31.203125 
L 52.203125 0 
L 43.21875 0 
L 43.21875 8.296875 
Q 40.140625 3.328125 35.546875 0.953125 
Q 30.953125 -1.421875 24.3125 -1.421875 
Q 15.921875 -1.421875 10.953125 3.296875 
Q 6 8.015625 6 15.921875 
Q 6 25.140625 12.171875 29.828125 
Q 18.359375 34.515625 30.609375 34.515625 
L 43.21875 34.515625 
L 43.21875 35.40625 
Q 43.21875 41.609375 39.140625 45 
Q 35.0625 48.390625 27.6875 48.390625 
Q 23 48.390625 18.546875 47.265625 
Q 14.109375 46.140625 10.015625 43.890625 
L 10.015625 52.203125 
Q 14.9375 54.109375 19.578125 55.046875 
Q 24.21875 56 28.609375 56 
Q 40.484375 56 46.34375 49.84375 
Q 52.203125 43.703125 52.203125 31.203125 
z
" id="DejaVuSans-97"/>
       <path d="M 18.3125 70.21875 
L 18.3125 54.6875 
L 36.8125 54.6875 
L 36.8125 47.703125 
L 18.3125 47.703125 
L 18.3125 18.015625 
Q 18.3125 11.328125 20.140625 9.421875 
Q 21.96875 7.515625 27.59375 7.515625 
L 36.8125 7.515625 
L 36.8125 0 
L 27.59375 0 
Q 17.1875 0 13.234375 3.875 
Q 9.28125 7.765625 9.28125 18.015625 
L 9.28125 47.703125 
L 2.6875 47.703125 
L 2.6875 54.6875 
L 9.28125 54.6875 
L 9.28125 70.21875 
z
" id="DejaVuSans-116"/>
       <path d="M 54.890625 33.015625 
L 54.890625 0 
L 45.90625 0 
L 45.90625 32.71875 
Q 45.90625 40.484375 42.875 44.328125 
Q 39.84375 48.1875 33.796875 48.1875 
Q 26.515625 48.1875 22.3125 43.546875 
Q 18.109375 38.921875 18.109375 30.90625 
L 18.109375 0 
L 9.078125 0 
L 9.078125 54.6875 
L 18.109375 54.6875 
L 18.109375 46.1875 
Q 21.34375 51.125 25.703125 53.5625 
Q 30.078125 56 35.796875 56 
Q 45.21875 56 50.046875 50.171875 
Q 54.890625 44.34375 54.890625 33.015625 
z
" id="DejaVuSans-110"/>
       <path d="M 52 44.1875 
Q 55.375 50.25 60.0625 53.125 
Q 64.75 56 71.09375 56 
Q 79.640625 56 84.28125 50.015625 
Q 88.921875 44.046875 88.921875 33.015625 
L 88.921875 0 
L 79.890625 0 
L 79.890625 32.71875 
Q 79.890625 40.578125 77.09375 44.375 
Q 74.3125 48.1875 68.609375 48.1875 
Q 61.625 48.1875 57.5625 43.546875 
Q 53.515625 38.921875 53.515625 30.90625 
L 53.515625 0 
L 44.484375 0 
L 44.484375 32.71875 
Q 44.484375 40.625 41.703125 44.40625 
Q 38.921875 48.1875 33.109375 48.1875 
Q 26.21875 48.1875 22.15625 43.53125 
Q 18.109375 38.875 18.109375 30.90625 
L 18.109375 0 
L 9.078125 0 
L 9.078125 54.6875 
L 18.109375 54.6875 
L 18.109375 46.1875 
Q 21.1875 51.21875 25.484375 53.609375 
Q 29.78125 56 35.6875 56 
Q 41.65625 56 45.828125 52.96875 
Q 50 49.953125 52 44.1875 
z
" id="DejaVuSans-109"/>
      </defs>
      <use xlink:href="#DejaVuSans-65"/>
      <use x="66.658203" xlink:href="#DejaVuSans-101"/>
      <use x="128.181641" xlink:href="#DejaVuSans-115"/>
      <use x="180.28125" xlink:href="#DejaVuSans-99"/>
      <use x="235.261719" xlink:href="#DejaVuSans-117"/>
      <use x="298.640625" xlink:href="#DejaVuSans-108"/>
      <use x="326.423828" xlink:href="#DejaVuSans-117"/>
      <use x="389.802734" xlink:href="#DejaVuSans-115"/>
      <use x="441.902344" xlink:href="#DejaVuSans-32"/>
      <use x="473.689453" xlink:href="#DejaVuSans-104"/>
      <use x="537.068359" xlink:href="#DejaVuSans-105"/>
      <use x="564.851562" xlink:href="#DejaVuSans-112"/>
      <use x="628.328125" xlink:href="#DejaVuSans-112"/>
      <use x="691.804688" xlink:href="#DejaVuSans-111"/>
      <use x="752.986328" xlink:href="#DejaVuSans-99"/>
      <use x="807.966797" xlink:href="#DejaVuSans-97"/>
      <use x="869.246094" xlink:href="#DejaVuSans-115"/>
      <use x="921.345703" xlink:href="#DejaVuSans-116"/>
      <use x="960.554688" xlink:href="#DejaVuSans-97"/>
      <use x="1021.833984" xlink:href="#DejaVuSans-110"/>
      <use x="1085.212891" xlink:href="#DejaVuSans-117"/>
      <use x="1148.591797" xlink:href="#DejaVuSans-109"/>
     </g>
    </g>
    <g id="line2d_17"/>
    <g id="line2d_18">
     <g>
      <use style="fill:#377eb8;stroke:#377eb8;" x="263.121562" xlink:href="#m9589cf975b" y="69.248562"/>
     </g>
    </g>
    <g id="text_17">
     <!-- Fagus sylvatica -->
     <g transform="translate(281.121562 72.748562)scale(0.1 -0.1)">
      <defs>
       <path d="M 9.8125 72.90625 
L 51.703125 72.90625 
L 51.703125 64.59375 
L 19.671875 64.59375 
L 19.671875 43.109375 
L 48.578125 43.109375 
L 48.578125 34.8125 
L 19.671875 34.8125 
L 19.671875 0 
L 9.8125 0 
z
" id="DejaVuSans-70"/>
       <path d="M 45.40625 27.984375 
Q 45.40625 37.75 41.375 43.109375 
Q 37.359375 48.484375 30.078125 48.484375 
Q 22.859375 48.484375 18.828125 43.109375 
Q 14.796875 37.75 14.796875 27.984375 
Q 14.796875 18.265625 18.828125 12.890625 
Q 22.859375 7.515625 30.078125 7.515625 
Q 37.359375 7.515625 41.375 12.890625 
Q 45.40625 18.265625 45.40625 27.984375 
z
M 54.390625 6.78125 
Q 54.390625 -7.171875 48.1875 -13.984375 
Q 42 -20.796875 29.203125 -20.796875 
Q 24.46875 -20.796875 20.265625 -20.09375 
Q 16.0625 -19.390625 12.109375 -17.921875 
L 12.109375 -9.1875 
Q 16.0625 -11.328125 19.921875 -12.34375 
Q 23.78125 -13.375 27.78125 -13.375 
Q 36.625 -13.375 41.015625 -8.765625 
Q 45.40625 -4.15625 45.40625 5.171875 
L 45.40625 9.625 
Q 42.625 4.78125 38.28125 2.390625 
Q 33.9375 0 27.875 0 
Q 17.828125 0 11.671875 7.65625 
Q 5.515625 15.328125 5.515625 27.984375 
Q 5.515625 40.671875 11.671875 48.328125 
Q 17.828125 56 27.875 56 
Q 33.9375 56 38.28125 53.609375 
Q 42.625 51.21875 45.40625 46.390625 
L 45.40625 54.6875 
L 54.390625 54.6875 
z
" id="DejaVuSans-103"/>
       <path d="M 32.171875 -5.078125 
Q 28.375 -14.84375 24.75 -17.8125 
Q 21.140625 -20.796875 15.09375 -20.796875 
L 7.90625 -20.796875 
L 7.90625 -13.28125 
L 13.1875 -13.28125 
Q 16.890625 -13.28125 18.9375 -11.515625 
Q 21 -9.765625 23.484375 -3.21875 
L 25.09375 0.875 
L 2.984375 54.6875 
L 12.5 54.6875 
L 29.59375 11.921875 
L 46.6875 54.6875 
L 56.203125 54.6875 
z
" id="DejaVuSans-121"/>
       <path d="M 2.984375 54.6875 
L 12.5 54.6875 
L 29.59375 8.796875 
L 46.6875 54.6875 
L 56.203125 54.6875 
L 35.6875 0 
L 23.484375 0 
z
" id="DejaVuSans-118"/>
      </defs>
      <use xlink:href="#DejaVuSans-70"/>
      <use x="48.394531" xlink:href="#DejaVuSans-97"/>
      <use x="109.673828" xlink:href="#DejaVuSans-103"/>
      <use x="173.150391" xlink:href="#DejaVuSans-117"/>
      <use x="236.529297" xlink:href="#DejaVuSans-115"/>
      <use x="288.628906" xlink:href="#DejaVuSans-32"/>
      <use x="320.416016" xlink:href="#DejaVuSans-115"/>
      <use x="372.515625" xlink:href="#DejaVuSans-121"/>
      <use x="431.695312" xlink:href="#DejaVuSans-108"/>
      <use x="459.478516" xlink:href="#DejaVuSans-118"/>
      <use x="518.658203" xlink:href="#DejaVuSans-97"/>
      <use x="579.9375" xlink:href="#DejaVuSans-116"/>
      <use x="619.146484" xlink:href="#DejaVuSans-105"/>
      <use x="646.929688" xlink:href="#DejaVuSans-99"/>
      <use x="701.910156" xlink:href="#DejaVuSans-97"/>
     </g>
    </g>
   </g>
  </g>
 </g>
 <defs>
  <clipPath id="pa5b39b88d2">
   <rect height="266.112" width="357.12" x="57.6" y="41.472"/>
  </clipPath>
 </defs>
</svg>
