<?xml version="1.0" encoding="utf-8" standalone="no"?>
<!DOCTYPE svg PUBLIC "-//W3C//DTD SVG 1.1//EN"
  "http://www.w3.org/Graphics/SVG/1.1/DTD/svg11.dtd">
<!-- Created with matplotlib (https://matplotlib.org/) -->
<svg height="316.825756pt" version="1.1" viewBox="0 0 497.70808 316.825756" width="497.70808pt" xmlns="http://www.w3.org/2000/svg" xmlns:xlink="http://www.w3.org/1999/xlink">
 <metadata>
  <rdf:RDF xmlns:cc="http://creativecommons.org/ns#" xmlns:dc="http://purl.org/dc/elements/1.1/" xmlns:rdf="http://www.w3.org/1999/02/22-rdf-syntax-ns#">
   <cc:Work>
    <dc:type rdf:resource="http://purl.org/dc/dcmitype/StillImage"/>
    <dc:date>2021-02-26T18:00:56.836741</dc:date>
    <dc:format>image/svg+xml</dc:format>
    <dc:creator>
     <cc:Agent>
      <dc:title>Matplotlib v3.3.0, https://matplotlib.org/</dc:title>
     </cc:Agent>
    </dc:creator>
   </cc:Work>
  </rdf:RDF>
 </metadata>
 <defs>
  <style type="text/css">*{stroke-linecap:butt;stroke-linejoin:round;}</style>
 </defs>
 <g id="figure_1">
  <g id="patch_1">
   <path d="M 0 316.825756 
L 497.70808 316.825756 
L 497.70808 0 
L 0 0 
z
" style="fill:#ffffff;"/>
  </g>
  <g id="axes_1">
   <g id="patch_2">
    <path d="M 303.764062 159.234125 
C 303.764062 141.761371 300.32231 124.458518 293.635777 108.315798 
C 286.949243 92.173079 277.147964 77.504428 264.792861 65.149325 
C 252.437759 52.794222 237.769108 42.992943 221.626388 36.30641 
C 205.483669 29.619877 188.180815 26.178125 170.708062 26.178125 
C 153.235308 26.178125 135.932454 29.619877 119.789735 36.30641 
C 103.647015 42.992943 88.978364 52.794222 76.623262 65.149325 
C 64.268159 77.504428 54.46688 92.173079 47.780346 108.315798 
C 41.093813 124.458518 37.652062 141.761371 37.652062 159.234125 
C 37.652062 176.706879 41.093813 194.009732 47.780346 210.152452 
C 54.46688 226.295171 64.268159 240.963822 76.623262 253.318925 
C 88.978364 265.674028 103.647015 275.475307 119.789735 282.16184 
C 135.932454 288.848373 153.235308 292.290125 170.708062 292.290125 
C 188.180815 292.290125 205.483669 288.848373 221.626388 282.16184 
C 237.769108 275.475307 252.437759 265.674028 264.792861 253.318925 
C 277.147964 240.963822 286.949243 226.295171 293.635777 210.152452 
C 300.32231 194.009732 303.764062 176.706879 303.764062 159.234125 
M 170.708062 159.234125 
C 170.708062 159.234125 170.708062 159.234125 170.708062 159.234125 
C 170.708062 159.234125 170.708062 159.234125 170.708062 159.234125 
C 170.708062 159.234125 170.708062 159.234125 170.708062 159.234125 
C 170.708062 159.234125 170.708062 159.234125 170.708062 159.234125 
C 170.708062 159.234125 170.708062 159.234125 170.708062 159.234125 
C 170.708062 159.234125 170.708062 159.234125 170.708062 159.234125 
C 170.708062 159.234125 170.708062 159.234125 170.708062 159.234125 
C 170.708062 159.234125 170.708062 159.234125 170.708062 159.234125 
C 170.708062 159.234125 170.708062 159.234125 170.708062 159.234125 
C 170.708062 159.234125 170.708062 159.234125 170.708062 159.234125 
C 170.708062 159.234125 170.708062 159.234125 170.708062 159.234125 
C 170.708062 159.234125 170.708062 159.234125 170.708062 159.234125 
C 170.708062 159.234125 170.708062 159.234125 170.708062 159.234125 
C 170.708062 159.234125 170.708062 159.234125 170.708062 159.234125 
C 170.708062 159.234125 170.708062 159.234125 170.708062 159.234125 
C 170.708062 159.234125 170.708062 159.234125 170.708062 159.234125 
M 303.764062 159.234125 
z
" style="fill:#ffffff;"/>
   </g>
   <g id="matplotlib.axis_1">
    <g id="xtick_1">
     <g id="line2d_1">
      <path clip-path="url(#p181950e488)" d="M 170.708062 159.234125 
L 170.708062 26.178125 
" style="fill:none;stroke:#b0b0b0;stroke-linecap:square;stroke-width:0.8;"/>
     </g>
     <g id="text_1">
      <!-- major_axis_length -->
      <g transform="translate(125.315093 14.798437)scale(0.1 -0.1)">
       <defs>
        <path d="M 52 44.1875 
Q 55.375 50.25 60.0625 53.125 
Q 64.75 56 71.09375 56 
Q 79.640625 56 84.28125 50.015625 
Q 88.921875 44.046875 88.921875 33.015625 
L 88.921875 0 
L 79.890625 0 
L 79.890625 32.71875 
Q 79.890625 40.578125 77.09375 44.375 
Q 74.3125 48.1875 68.609375 48.1875 
Q 61.625 48.1875 57.5625 43.546875 
Q 53.515625 38.921875 53.515625 30.90625 
L 53.515625 0 
L 44.484375 0 
L 44.484375 32.71875 
Q 44.484375 40.625 41.703125 44.40625 
Q 38.921875 48.1875 33.109375 48.1875 
Q 26.21875 48.1875 22.15625 43.53125 
Q 18.109375 38.875 18.109375 30.90625 
L 18.109375 0 
L 9.078125 0 
L 9.078125 54.6875 
L 18.109375 54.6875 
L 18.109375 46.1875 
Q 21.1875 51.21875 25.484375 53.609375 
Q 29.78125 56 35.6875 56 
Q 41.65625 56 45.828125 52.96875 
Q 50 49.953125 52 44.1875 
z
" id="DejaVuSans-109"/>
        <path d="M 34.28125 27.484375 
Q 23.390625 27.484375 19.1875 25 
Q 14.984375 22.515625 14.984375 16.5 
Q 14.984375 11.71875 18.140625 8.90625 
Q 21.296875 6.109375 26.703125 6.109375 
Q 34.1875 6.109375 38.703125 11.40625 
Q 43.21875 16.703125 43.21875 25.484375 
L 43.21875 27.484375 
z
M 52.203125 31.203125 
L 52.203125 0 
L 43.21875 0 
L 43.21875 8.296875 
Q 40.140625 3.328125 35.546875 0.953125 
Q 30.953125 -1.421875 24.3125 -1.421875 
Q 15.921875 -1.421875 10.953125 3.296875 
Q 6 8.015625 6 15.921875 
Q 6 25.140625 12.171875 29.828125 
Q 18.359375 34.515625 30.609375 34.515625 
L 43.21875 34.515625 
L 43.21875 35.40625 
Q 43.21875 41.609375 39.140625 45 
Q 35.0625 48.390625 27.6875 48.390625 
Q 23 48.390625 18.546875 47.265625 
Q 14.109375 46.140625 10.015625 43.890625 
L 10.015625 52.203125 
Q 14.9375 54.109375 19.578125 55.046875 
Q 24.21875 56 28.609375 56 
Q 40.484375 56 46.34375 49.84375 
Q 52.203125 43.703125 52.203125 31.203125 
z
" id="DejaVuSans-97"/>
        <path d="M 9.421875 54.6875 
L 18.40625 54.6875 
L 18.40625 -0.984375 
Q 18.40625 -11.421875 14.421875 -16.109375 
Q 10.453125 -20.796875 1.609375 -20.796875 
L -1.8125 -20.796875 
L -1.8125 -13.1875 
L 0.59375 -13.1875 
Q 5.71875 -13.1875 7.5625 -10.8125 
Q 9.421875 -8.453125 9.421875 -0.984375 
z
M 9.421875 75.984375 
L 18.40625 75.984375 
L 18.40625 64.59375 
L 9.421875 64.59375 
z
" id="DejaVuSans-106"/>
        <path d="M 30.609375 48.390625 
Q 23.390625 48.390625 19.1875 42.75 
Q 14.984375 37.109375 14.984375 27.296875 
Q 14.984375 17.484375 19.15625 11.84375 
Q 23.34375 6.203125 30.609375 6.203125 
Q 37.796875 6.203125 41.984375 11.859375 
Q 46.1875 17.53125 46.1875 27.296875 
Q 46.1875 37.015625 41.984375 42.703125 
Q 37.796875 48.390625 30.609375 48.390625 
z
M 30.609375 56 
Q 42.328125 56 49.015625 48.375 
Q 55.71875 40.765625 55.71875 27.296875 
Q 55.71875 13.875 49.015625 6.21875 
Q 42.328125 -1.421875 30.609375 -1.421875 
Q 18.84375 -1.421875 12.171875 6.21875 
Q 5.515625 13.875 5.515625 27.296875 
Q 5.515625 40.765625 12.171875 48.375 
Q 18.84375 56 30.609375 56 
z
" id="DejaVuSans-111"/>
        <path d="M 41.109375 46.296875 
Q 39.59375 47.171875 37.8125 47.578125 
Q 36.03125 48 33.890625 48 
Q 26.265625 48 22.1875 43.046875 
Q 18.109375 38.09375 18.109375 28.8125 
L 18.109375 0 
L 9.078125 0 
L 9.078125 54.6875 
L 18.109375 54.6875 
L 18.109375 46.1875 
Q 20.953125 51.171875 25.484375 53.578125 
Q 30.03125 56 36.53125 56 
Q 37.453125 56 38.578125 55.875 
Q 39.703125 55.765625 41.0625 55.515625 
z
" id="DejaVuSans-114"/>
        <path d="M 50.984375 -16.609375 
L 50.984375 -23.578125 
L -0.984375 -23.578125 
L -0.984375 -16.609375 
z
" id="DejaVuSans-95"/>
        <path d="M 54.890625 54.6875 
L 35.109375 28.078125 
L 55.90625 0 
L 45.3125 0 
L 29.390625 21.484375 
L 13.484375 0 
L 2.875 0 
L 24.125 28.609375 
L 4.6875 54.6875 
L 15.28125 54.6875 
L 29.78125 35.203125 
L 44.28125 54.6875 
z
" id="DejaVuSans-120"/>
        <path d="M 9.421875 54.6875 
L 18.40625 54.6875 
L 18.40625 0 
L 9.421875 0 
z
M 9.421875 75.984375 
L 18.40625 75.984375 
L 18.40625 64.59375 
L 9.421875 64.59375 
z
" id="DejaVuSans-105"/>
        <path d="M 44.28125 53.078125 
L 44.28125 44.578125 
Q 40.484375 46.53125 36.375 47.5 
Q 32.28125 48.484375 27.875 48.484375 
Q 21.1875 48.484375 17.84375 46.4375 
Q 14.5 44.390625 14.5 40.28125 
Q 14.5 37.15625 16.890625 35.375 
Q 19.28125 33.59375 26.515625 31.984375 
L 29.59375 31.296875 
Q 39.15625 29.25 43.1875 25.515625 
Q 47.21875 21.78125 47.21875 15.09375 
Q 47.21875 7.46875 41.1875 3.015625 
Q 35.15625 -1.421875 24.609375 -1.421875 
Q 20.21875 -1.421875 15.453125 -0.5625 
Q 10.6875 0.296875 5.421875 2 
L 5.421875 11.28125 
Q 10.40625 8.6875 15.234375 7.390625 
Q 20.0625 6.109375 24.8125 6.109375 
Q 31.15625 6.109375 34.5625 8.28125 
Q 37.984375 10.453125 37.984375 14.40625 
Q 37.984375 18.0625 35.515625 20.015625 
Q 33.0625 21.96875 24.703125 23.78125 
L 21.578125 24.515625 
Q 13.234375 26.265625 9.515625 29.90625 
Q 5.8125 33.546875 5.8125 39.890625 
Q 5.8125 47.609375 11.28125 51.796875 
Q 16.75 56 26.8125 56 
Q 31.78125 56 36.171875 55.265625 
Q 40.578125 54.546875 44.28125 53.078125 
z
" id="DejaVuSans-115"/>
        <path d="M 9.421875 75.984375 
L 18.40625 75.984375 
L 18.40625 0 
L 9.421875 0 
z
" id="DejaVuSans-108"/>
        <path d="M 56.203125 29.59375 
L 56.203125 25.203125 
L 14.890625 25.203125 
Q 15.484375 15.921875 20.484375 11.0625 
Q 25.484375 6.203125 34.421875 6.203125 
Q 39.59375 6.203125 44.453125 7.46875 
Q 49.3125 8.734375 54.109375 11.28125 
L 54.109375 2.78125 
Q 49.265625 0.734375 44.1875 -0.34375 
Q 39.109375 -1.421875 33.890625 -1.421875 
Q 20.796875 -1.421875 13.15625 6.1875 
Q 5.515625 13.8125 5.515625 26.8125 
Q 5.515625 40.234375 12.765625 48.109375 
Q 20.015625 56 32.328125 56 
Q 43.359375 56 49.78125 48.890625 
Q 56.203125 41.796875 56.203125 29.59375 
z
M 47.21875 32.234375 
Q 47.125 39.59375 43.09375 43.984375 
Q 39.0625 48.390625 32.421875 48.390625 
Q 24.90625 48.390625 20.390625 44.140625 
Q 15.875 39.890625 15.1875 32.171875 
z
" id="DejaVuSans-101"/>
        <path d="M 54.890625 33.015625 
L 54.890625 0 
L 45.90625 0 
L 45.90625 32.71875 
Q 45.90625 40.484375 42.875 44.328125 
Q 39.84375 48.1875 33.796875 48.1875 
Q 26.515625 48.1875 22.3125 43.546875 
Q 18.109375 38.921875 18.109375 30.90625 
L 18.109375 0 
L 9.078125 0 
L 9.078125 54.6875 
L 18.109375 54.6875 
L 18.109375 46.1875 
Q 21.34375 51.125 25.703125 53.5625 
Q 30.078125 56 35.796875 56 
Q 45.21875 56 50.046875 50.171875 
Q 54.890625 44.34375 54.890625 33.015625 
z
" id="DejaVuSans-110"/>
        <path d="M 45.40625 27.984375 
Q 45.40625 37.75 41.375 43.109375 
Q 37.359375 48.484375 30.078125 48.484375 
Q 22.859375 48.484375 18.828125 43.109375 
Q 14.796875 37.75 14.796875 27.984375 
Q 14.796875 18.265625 18.828125 12.890625 
Q 22.859375 7.515625 30.078125 7.515625 
Q 37.359375 7.515625 41.375 12.890625 
Q 45.40625 18.265625 45.40625 27.984375 
z
M 54.390625 6.78125 
Q 54.390625 -7.171875 48.1875 -13.984375 
Q 42 -20.796875 29.203125 -20.796875 
Q 24.46875 -20.796875 20.265625 -20.09375 
Q 16.0625 -19.390625 12.109375 -17.921875 
L 12.109375 -9.1875 
Q 16.0625 -11.328125 19.921875 -12.34375 
Q 23.78125 -13.375 27.78125 -13.375 
Q 36.625 -13.375 41.015625 -8.765625 
Q 45.40625 -4.15625 45.40625 5.171875 
L 45.40625 9.625 
Q 42.625 4.78125 38.28125 2.390625 
Q 33.9375 0 27.875 0 
Q 17.828125 0 11.671875 7.65625 
Q 5.515625 15.328125 5.515625 27.984375 
Q 5.515625 40.671875 11.671875 48.328125 
Q 17.828125 56 27.875 56 
Q 33.9375 56 38.28125 53.609375 
Q 42.625 51.21875 45.40625 46.390625 
L 45.40625 54.6875 
L 54.390625 54.6875 
z
" id="DejaVuSans-103"/>
        <path d="M 18.3125 70.21875 
L 18.3125 54.6875 
L 36.8125 54.6875 
L 36.8125 47.703125 
L 18.3125 47.703125 
L 18.3125 18.015625 
Q 18.3125 11.328125 20.140625 9.421875 
Q 21.96875 7.515625 27.59375 7.515625 
L 36.8125 7.515625 
L 36.8125 0 
L 27.59375 0 
Q 17.1875 0 13.234375 3.875 
Q 9.28125 7.765625 9.28125 18.015625 
L 9.28125 47.703125 
L 2.6875 47.703125 
L 2.6875 54.6875 
L 9.28125 54.6875 
L 9.28125 70.21875 
z
" id="DejaVuSans-116"/>
        <path d="M 54.890625 33.015625 
L 54.890625 0 
L 45.90625 0 
L 45.90625 32.71875 
Q 45.90625 40.484375 42.875 44.328125 
Q 39.84375 48.1875 33.796875 48.1875 
Q 26.515625 48.1875 22.3125 43.546875 
Q 18.109375 38.921875 18.109375 30.90625 
L 18.109375 0 
L 9.078125 0 
L 9.078125 75.984375 
L 18.109375 75.984375 
L 18.109375 46.1875 
Q 21.34375 51.125 25.703125 53.5625 
Q 30.078125 56 35.796875 56 
Q 45.21875 56 50.046875 50.171875 
Q 54.890625 44.34375 54.890625 33.015625 
z
" id="DejaVuSans-104"/>
       </defs>
       <use xlink:href="#DejaVuSans-109"/>
       <use x="97.412109" xlink:href="#DejaVuSans-97"/>
       <use x="158.691406" xlink:href="#DejaVuSans-106"/>
       <use x="186.474609" xlink:href="#DejaVuSans-111"/>
       <use x="247.65625" xlink:href="#DejaVuSans-114"/>
       <use x="288.769531" xlink:href="#DejaVuSans-95"/>
       <use x="338.769531" xlink:href="#DejaVuSans-97"/>
       <use x="400.048828" xlink:href="#DejaVuSans-120"/>
       <use x="459.228516" xlink:href="#DejaVuSans-105"/>
       <use x="487.011719" xlink:href="#DejaVuSans-115"/>
       <use x="539.111328" xlink:href="#DejaVuSans-95"/>
       <use x="589.111328" xlink:href="#DejaVuSans-108"/>
       <use x="616.894531" xlink:href="#DejaVuSans-101"/>
       <use x="678.417969" xlink:href="#DejaVuSans-110"/>
       <use x="741.796875" xlink:href="#DejaVuSans-103"/>
       <use x="805.273438" xlink:href="#DejaVuSans-116"/>
       <use x="844.482422" xlink:href="#DejaVuSans-104"/>
      </g>
     </g>
    </g>
    <g id="xtick_2">
     <g id="line2d_2">
      <path clip-path="url(#p181950e488)" d="M 170.708062 159.234125 
L 209.927006 32.08943 
" style="fill:none;stroke:#b0b0b0;stroke-linecap:square;stroke-width:0.8;"/>
     </g>
     <g id="text_2">
      <!-- minor_axis_length -->
      <g transform="translate(168.555922 21.331723)scale(0.1 -0.1)">
       <use xlink:href="#DejaVuSans-109"/>
       <use x="97.412109" xlink:href="#DejaVuSans-105"/>
       <use x="125.195312" xlink:href="#DejaVuSans-110"/>
       <use x="188.574219" xlink:href="#DejaVuSans-111"/>
       <use x="249.755859" xlink:href="#DejaVuSans-114"/>
       <use x="290.869141" xlink:href="#DejaVuSans-95"/>
       <use x="340.869141" xlink:href="#DejaVuSans-97"/>
       <use x="402.148438" xlink:href="#DejaVuSans-120"/>
       <use x="461.328125" xlink:href="#DejaVuSans-105"/>
       <use x="489.111328" xlink:href="#DejaVuSans-115"/>
       <use x="541.210938" xlink:href="#DejaVuSans-95"/>
       <use x="591.210938" xlink:href="#DejaVuSans-108"/>
       <use x="618.994141" xlink:href="#DejaVuSans-101"/>
       <use x="680.517578" xlink:href="#DejaVuSans-110"/>
       <use x="743.896484" xlink:href="#DejaVuSans-103"/>
       <use x="807.373047" xlink:href="#DejaVuSans-116"/>
       <use x="846.582031" xlink:href="#DejaVuSans-104"/>
      </g>
     </g>
    </g>
    <g id="xtick_3">
     <g id="line2d_3">
      <path clip-path="url(#p181950e488)" d="M 170.708062 159.234125 
L 245.661175 49.298099 
" style="fill:none;stroke:#b0b0b0;stroke-linecap:square;stroke-width:0.8;"/>
     </g>
     <g id="text_3">
      <!-- area -->
      <g transform="translate(242.4 40.490131)scale(0.1 -0.1)">
       <use xlink:href="#DejaVuSans-97"/>
       <use x="61.279297" xlink:href="#DejaVuSans-114"/>
       <use x="100.142578" xlink:href="#DejaVuSans-101"/>
       <use x="161.666016" xlink:href="#DejaVuSans-97"/>
      </g>
     </g>
    </g>
    <g id="xtick_4">
     <g id="line2d_4">
      <path clip-path="url(#p181950e488)" d="M 170.708062 159.234125 
L 274.735431 76.275066 
" style="fill:none;stroke:#b0b0b0;stroke-linecap:square;stroke-width:0.8;"/>
     </g>
     <g id="text_4">
      <!-- perimeter -->
      <g transform="translate(260.946697 70.305584)scale(0.1 -0.1)">
       <defs>
        <path d="M 18.109375 8.203125 
L 18.109375 -20.796875 
L 9.078125 -20.796875 
L 9.078125 54.6875 
L 18.109375 54.6875 
L 18.109375 46.390625 
Q 20.953125 51.265625 25.265625 53.625 
Q 29.59375 56 35.59375 56 
Q 45.5625 56 51.78125 48.09375 
Q 58.015625 40.1875 58.015625 27.296875 
Q 58.015625 14.40625 51.78125 6.484375 
Q 45.5625 -1.421875 35.59375 -1.421875 
Q 29.59375 -1.421875 25.265625 0.953125 
Q 20.953125 3.328125 18.109375 8.203125 
z
M 48.6875 27.296875 
Q 48.6875 37.203125 44.609375 42.84375 
Q 40.53125 48.484375 33.40625 48.484375 
Q 26.265625 48.484375 22.1875 42.84375 
Q 18.109375 37.203125 18.109375 27.296875 
Q 18.109375 17.390625 22.1875 11.75 
Q 26.265625 6.109375 33.40625 6.109375 
Q 40.53125 6.109375 44.609375 11.75 
Q 48.6875 17.390625 48.6875 27.296875 
z
" id="DejaVuSans-112"/>
       </defs>
       <use xlink:href="#DejaVuSans-112"/>
       <use x="63.476562" xlink:href="#DejaVuSans-101"/>
       <use x="125" xlink:href="#DejaVuSans-114"/>
       <use x="166.113281" xlink:href="#DejaVuSans-105"/>
       <use x="193.896484" xlink:href="#DejaVuSans-109"/>
       <use x="291.308594" xlink:href="#DejaVuSans-101"/>
       <use x="352.832031" xlink:href="#DejaVuSans-116"/>
       <use x="392.041016" xlink:href="#DejaVuSans-101"/>
       <use x="453.564453" xlink:href="#DejaVuSans-114"/>
      </g>
     </g>
    </g>
    <g id="xtick_5">
     <g id="line2d_5">
      <path clip-path="url(#p181950e488)" d="M 170.708062 159.234125 
L 294.566399 110.62331 
" style="fill:none;stroke:#b0b0b0;stroke-linecap:square;stroke-width:0.8;"/>
     </g>
     <g id="text_5">
      <!-- ratio -->
      <g transform="translate(296.070507 108.26791)scale(0.1 -0.1)">
       <use xlink:href="#DejaVuSans-114"/>
       <use x="41.113281" xlink:href="#DejaVuSans-97"/>
       <use x="102.392578" xlink:href="#DejaVuSans-116"/>
       <use x="141.601562" xlink:href="#DejaVuSans-105"/>
       <use x="169.384766" xlink:href="#DejaVuSans-111"/>
      </g>
     </g>
    </g>
    <g id="xtick_6">
     <g id="line2d_6">
      <path clip-path="url(#p181950e488)" d="M 170.708062 159.234125 
L 303.39201 149.290838 
" style="fill:none;stroke:#b0b0b0;stroke-linecap:square;stroke-width:0.8;"/>
     </g>
     <g id="text_6">
      <!-- roundness -->
      <g transform="translate(291.384113 151.003991)scale(0.1 -0.1)">
       <defs>
        <path d="M 8.5 21.578125 
L 8.5 54.6875 
L 17.484375 54.6875 
L 17.484375 21.921875 
Q 17.484375 14.15625 20.5 10.265625 
Q 23.53125 6.390625 29.59375 6.390625 
Q 36.859375 6.390625 41.078125 11.03125 
Q 45.3125 15.671875 45.3125 23.6875 
L 45.3125 54.6875 
L 54.296875 54.6875 
L 54.296875 0 
L 45.3125 0 
L 45.3125 8.40625 
Q 42.046875 3.421875 37.71875 1 
Q 33.40625 -1.421875 27.6875 -1.421875 
Q 18.265625 -1.421875 13.375 4.4375 
Q 8.5 10.296875 8.5 21.578125 
z
M 31.109375 56 
z
" id="DejaVuSans-117"/>
        <path d="M 45.40625 46.390625 
L 45.40625 75.984375 
L 54.390625 75.984375 
L 54.390625 0 
L 45.40625 0 
L 45.40625 8.203125 
Q 42.578125 3.328125 38.25 0.953125 
Q 33.9375 -1.421875 27.875 -1.421875 
Q 17.96875 -1.421875 11.734375 6.484375 
Q 5.515625 14.40625 5.515625 27.296875 
Q 5.515625 40.1875 11.734375 48.09375 
Q 17.96875 56 27.875 56 
Q 33.9375 56 38.25 53.625 
Q 42.578125 51.265625 45.40625 46.390625 
z
M 14.796875 27.296875 
Q 14.796875 17.390625 18.875 11.75 
Q 22.953125 6.109375 30.078125 6.109375 
Q 37.203125 6.109375 41.296875 11.75 
Q 45.40625 17.390625 45.40625 27.296875 
Q 45.40625 37.203125 41.296875 42.84375 
Q 37.203125 48.484375 30.078125 48.484375 
Q 22.953125 48.484375 18.875 42.84375 
Q 14.796875 37.203125 14.796875 27.296875 
z
" id="DejaVuSans-100"/>
       </defs>
       <use xlink:href="#DejaVuSans-114"/>
       <use x="38.863281" xlink:href="#DejaVuSans-111"/>
       <use x="100.044922" xlink:href="#DejaVuSans-117"/>
       <use x="163.423828" xlink:href="#DejaVuSans-110"/>
       <use x="226.802734" xlink:href="#DejaVuSans-100"/>
       <use x="290.279297" xlink:href="#DejaVuSans-110"/>
       <use x="353.658203" xlink:href="#DejaVuSans-101"/>
       <use x="415.181641" xlink:href="#DejaVuSans-115"/>
       <use x="467.28125" xlink:href="#DejaVuSans-115"/>
      </g>
     </g>
    </g>
    <g id="xtick_7">
     <g id="line2d_7">
      <path clip-path="url(#p181950e488)" d="M 170.708062 159.234125 
L 300.42807 188.84187 
" style="fill:none;stroke:#b0b0b0;stroke-linecap:square;stroke-width:0.8;"/>
     </g>
     <g id="text_7">
      <!-- hue_mean -->
      <g transform="translate(287.983311 194.577476)scale(0.1 -0.1)">
       <use xlink:href="#DejaVuSans-104"/>
       <use x="63.378906" xlink:href="#DejaVuSans-117"/>
       <use x="126.757812" xlink:href="#DejaVuSans-101"/>
       <use x="188.28125" xlink:href="#DejaVuSans-95"/>
       <use x="238.28125" xlink:href="#DejaVuSans-109"/>
       <use x="335.693359" xlink:href="#DejaVuSans-101"/>
       <use x="397.216797" xlink:href="#DejaVuSans-97"/>
       <use x="458.496094" xlink:href="#DejaVuSans-110"/>
      </g>
     </g>
    </g>
    <g id="xtick_8">
     <g id="line2d_8">
      <path clip-path="url(#p181950e488)" d="M 170.708062 159.234125 
L 285.937938 225.762125 
" style="fill:none;stroke:#b0b0b0;stroke-linecap:square;stroke-width:0.8;"/>
     </g>
     <g id="text_8">
      <!-- hue_median -->
      <g transform="translate(267.405262 235.382437)scale(0.1 -0.1)">
       <use xlink:href="#DejaVuSans-104"/>
       <use x="63.378906" xlink:href="#DejaVuSans-117"/>
       <use x="126.757812" xlink:href="#DejaVuSans-101"/>
       <use x="188.28125" xlink:href="#DejaVuSans-95"/>
       <use x="238.28125" xlink:href="#DejaVuSans-109"/>
       <use x="335.693359" xlink:href="#DejaVuSans-101"/>
       <use x="397.216797" xlink:href="#DejaVuSans-100"/>
       <use x="460.693359" xlink:href="#DejaVuSans-105"/>
       <use x="488.476562" xlink:href="#DejaVuSans-97"/>
       <use x="549.755859" xlink:href="#DejaVuSans-110"/>
      </g>
     </g>
    </g>
    <g id="xtick_9">
     <g id="line2d_9">
      <path clip-path="url(#p181950e488)" d="M 170.708062 159.234125 
L 261.209125 256.771075 
" style="fill:none;stroke:#b0b0b0;stroke-linecap:square;stroke-width:0.8;"/>
     </g>
     <g id="text_9">
      <!-- hue_std -->
      <g transform="translate(251.078419 269.654114)scale(0.1 -0.1)">
       <use xlink:href="#DejaVuSans-104"/>
       <use x="63.378906" xlink:href="#DejaVuSans-117"/>
       <use x="126.757812" xlink:href="#DejaVuSans-101"/>
       <use x="188.28125" xlink:href="#DejaVuSans-95"/>
       <use x="238.28125" xlink:href="#DejaVuSans-115"/>
       <use x="290.380859" xlink:href="#DejaVuSans-116"/>
       <use x="329.589844" xlink:href="#DejaVuSans-100"/>
      </g>
     </g>
    </g>
    <g id="xtick_10">
     <g id="line2d_10">
      <path clip-path="url(#p181950e488)" d="M 170.708062 159.234125 
L 228.438896 279.113439 
" style="fill:none;stroke:#b0b0b0;stroke-linecap:square;stroke-width:0.8;"/>
     </g>
     <g id="text_10">
      <!-- sat_median -->
      <g transform="translate(205.641394 294.347315)scale(0.1 -0.1)">
       <use xlink:href="#DejaVuSans-115"/>
       <use x="52.099609" xlink:href="#DejaVuSans-97"/>
       <use x="113.378906" xlink:href="#DejaVuSans-116"/>
       <use x="152.587891" xlink:href="#DejaVuSans-95"/>
       <use x="202.587891" xlink:href="#DejaVuSans-109"/>
       <use x="300" xlink:href="#DejaVuSans-101"/>
       <use x="361.523438" xlink:href="#DejaVuSans-100"/>
       <use x="425" xlink:href="#DejaVuSans-105"/>
       <use x="452.783203" xlink:href="#DejaVuSans-97"/>
       <use x="514.0625" xlink:href="#DejaVuSans-110"/>
      </g>
     </g>
    </g>
    <g id="xtick_11">
     <g id="line2d_11">
      <path clip-path="url(#p181950e488)" d="M 170.708062 159.234125 
L 190.539029 290.803999 
" style="fill:none;stroke:#b0b0b0;stroke-linecap:square;stroke-width:0.8;"/>
     </g>
     <g id="text_11">
      <!-- sat_mean -->
      <g transform="translate(168.317027 307.128881)scale(0.1 -0.1)">
       <use xlink:href="#DejaVuSans-115"/>
       <use x="52.099609" xlink:href="#DejaVuSans-97"/>
       <use x="113.378906" xlink:href="#DejaVuSans-116"/>
       <use x="152.587891" xlink:href="#DejaVuSans-95"/>
       <use x="202.587891" xlink:href="#DejaVuSans-109"/>
       <use x="300" xlink:href="#DejaVuSans-101"/>
       <use x="361.523438" xlink:href="#DejaVuSans-97"/>
       <use x="422.802734" xlink:href="#DejaVuSans-110"/>
      </g>
     </g>
    </g>
    <g id="xtick_12">
     <g id="line2d_12">
      <path clip-path="url(#p181950e488)" d="M 170.708062 159.234125 
L 150.877094 290.803999 
" style="fill:none;stroke:#b0b0b0;stroke-linecap:square;stroke-width:0.8;"/>
     </g>
     <g id="text_12">
      <!-- sat_std -->
      <g transform="translate(130.922533 307.267943)scale(0.1 -0.1)">
       <use xlink:href="#DejaVuSans-115"/>
       <use x="52.099609" xlink:href="#DejaVuSans-97"/>
       <use x="113.378906" xlink:href="#DejaVuSans-116"/>
       <use x="152.587891" xlink:href="#DejaVuSans-95"/>
       <use x="202.587891" xlink:href="#DejaVuSans-115"/>
       <use x="254.6875" xlink:href="#DejaVuSans-116"/>
       <use x="293.896484" xlink:href="#DejaVuSans-100"/>
      </g>
     </g>
    </g>
    <g id="xtick_13">
     <g id="line2d_13">
      <path clip-path="url(#p181950e488)" d="M 170.708062 159.234125 
L 112.977227 279.113439 
" style="fill:none;stroke:#b0b0b0;stroke-linecap:square;stroke-width:0.8;"/>
     </g>
     <g id="text_13">
      <!-- val_median -->
      <g transform="translate(78.247386 294.347315)scale(0.1 -0.1)">
       <defs>
        <path d="M 2.984375 54.6875 
L 12.5 54.6875 
L 29.59375 8.796875 
L 46.6875 54.6875 
L 56.203125 54.6875 
L 35.6875 0 
L 23.484375 0 
z
" id="DejaVuSans-118"/>
       </defs>
       <use xlink:href="#DejaVuSans-118"/>
       <use x="59.179688" xlink:href="#DejaVuSans-97"/>
       <use x="120.458984" xlink:href="#DejaVuSans-108"/>
       <use x="148.242188" xlink:href="#DejaVuSans-95"/>
       <use x="198.242188" xlink:href="#DejaVuSans-109"/>
       <use x="295.654297" xlink:href="#DejaVuSans-101"/>
       <use x="357.177734" xlink:href="#DejaVuSans-100"/>
       <use x="420.654297" xlink:href="#DejaVuSans-105"/>
       <use x="448.4375" xlink:href="#DejaVuSans-97"/>
       <use x="509.716797" xlink:href="#DejaVuSans-110"/>
      </g>
     </g>
    </g>
    <g id="xtick_14">
     <g id="line2d_14">
      <path clip-path="url(#p181950e488)" d="M 170.708062 159.234125 
L 80.206998 256.771075 
" style="fill:none;stroke:#b0b0b0;stroke-linecap:square;stroke-width:0.8;"/>
     </g>
     <g id="text_14">
      <!-- val_mean -->
      <g transform="translate(46.592392 269.654114)scale(0.1 -0.1)">
       <use xlink:href="#DejaVuSans-118"/>
       <use x="59.179688" xlink:href="#DejaVuSans-97"/>
       <use x="120.458984" xlink:href="#DejaVuSans-108"/>
       <use x="148.242188" xlink:href="#DejaVuSans-95"/>
       <use x="198.242188" xlink:href="#DejaVuSans-109"/>
       <use x="295.654297" xlink:href="#DejaVuSans-101"/>
       <use x="357.177734" xlink:href="#DejaVuSans-97"/>
       <use x="418.457031" xlink:href="#DejaVuSans-110"/>
      </g>
     </g>
    </g>
    <g id="xtick_15">
     <g id="line2d_15">
      <path clip-path="url(#p181950e488)" d="M 170.708062 159.234125 
L 55.478185 225.762125 
" style="fill:none;stroke:#b0b0b0;stroke-linecap:square;stroke-width:0.8;"/>
     </g>
     <g id="text_15">
      <!-- val_std -->
      <g transform="translate(25.702267 235.382437)scale(0.1 -0.1)">
       <use xlink:href="#DejaVuSans-118"/>
       <use x="59.179688" xlink:href="#DejaVuSans-97"/>
       <use x="120.458984" xlink:href="#DejaVuSans-108"/>
       <use x="148.242188" xlink:href="#DejaVuSans-95"/>
       <use x="198.242188" xlink:href="#DejaVuSans-115"/>
       <use x="250.341797" xlink:href="#DejaVuSans-116"/>
       <use x="289.550781" xlink:href="#DejaVuSans-100"/>
      </g>
     </g>
    </g>
    <g id="xtick_16">
     <g id="line2d_16">
      <path clip-path="url(#p181950e488)" d="M 170.708062 159.234125 
L 40.988053 188.84187 
" style="fill:none;stroke:#b0b0b0;stroke-linecap:square;stroke-width:0.8;"/>
     </g>
     <g id="text_16">
      <!-- int_med -->
      <g transform="translate(7.2 194.577476)scale(0.1 -0.1)">
       <use xlink:href="#DejaVuSans-105"/>
       <use x="27.783203" xlink:href="#DejaVuSans-110"/>
       <use x="91.162109" xlink:href="#DejaVuSans-116"/>
       <use x="130.371094" xlink:href="#DejaVuSans-95"/>
       <use x="180.371094" xlink:href="#DejaVuSans-109"/>
       <use x="277.783203" xlink:href="#DejaVuSans-101"/>
       <use x="339.306641" xlink:href="#DejaVuSans-100"/>
      </g>
     </g>
    </g>
    <g id="xtick_17">
     <g id="line2d_17">
      <path clip-path="url(#p181950e488)" d="M 170.708062 159.234125 
L 38.024113 149.290838 
" style="fill:none;stroke:#b0b0b0;stroke-linecap:square;stroke-width:0.8;"/>
     </g>
     <g id="text_17">
      <!-- int_std -->
      <g transform="translate(7.306229 150.864929)scale(0.1 -0.1)">
       <use xlink:href="#DejaVuSans-105"/>
       <use x="27.783203" xlink:href="#DejaVuSans-110"/>
       <use x="91.162109" xlink:href="#DejaVuSans-116"/>
       <use x="130.371094" xlink:href="#DejaVuSans-95"/>
       <use x="180.371094" xlink:href="#DejaVuSans-115"/>
       <use x="232.470703" xlink:href="#DejaVuSans-116"/>
       <use x="271.679688" xlink:href="#DejaVuSans-100"/>
      </g>
     </g>
    </g>
    <g id="xtick_18">
     <g id="line2d_18">
      <path clip-path="url(#p181950e488)" d="M 170.708062 159.234125 
L 46.849724 110.62331 
" style="fill:none;stroke:#b0b0b0;stroke-linecap:square;stroke-width:0.8;"/>
     </g>
     <g id="text_18">
      <!-- int_skew -->
      <g transform="translate(12.315148 108.128848)scale(0.1 -0.1)">
       <defs>
        <path d="M 9.078125 75.984375 
L 18.109375 75.984375 
L 18.109375 31.109375 
L 44.921875 54.6875 
L 56.390625 54.6875 
L 27.390625 29.109375 
L 57.625 0 
L 45.90625 0 
L 18.109375 26.703125 
L 18.109375 0 
L 9.078125 0 
z
" id="DejaVuSans-107"/>
        <path d="M 4.203125 54.6875 
L 13.1875 54.6875 
L 24.421875 12.015625 
L 35.59375 54.6875 
L 46.1875 54.6875 
L 57.421875 12.015625 
L 68.609375 54.6875 
L 77.59375 54.6875 
L 63.28125 0 
L 52.6875 0 
L 40.921875 44.828125 
L 29.109375 0 
L 18.5 0 
z
" id="DejaVuSans-119"/>
       </defs>
       <use xlink:href="#DejaVuSans-105"/>
       <use x="27.783203" xlink:href="#DejaVuSans-110"/>
       <use x="91.162109" xlink:href="#DejaVuSans-116"/>
       <use x="130.371094" xlink:href="#DejaVuSans-95"/>
       <use x="180.371094" xlink:href="#DejaVuSans-115"/>
       <use x="232.470703" xlink:href="#DejaVuSans-107"/>
       <use x="286.755859" xlink:href="#DejaVuSans-101"/>
       <use x="348.279297" xlink:href="#DejaVuSans-119"/>
      </g>
     </g>
    </g>
    <g id="xtick_19">
     <g id="line2d_19">
      <path clip-path="url(#p181950e488)" d="M 170.708062 159.234125 
L 66.680692 76.275066 
" style="fill:none;stroke:#b0b0b0;stroke-linecap:square;stroke-width:0.8;"/>
     </g>
     <g id="text_19">
      <!-- contrast -->
      <g transform="translate(35.113176 70.305584)scale(0.1 -0.1)">
       <defs>
        <path d="M 48.78125 52.59375 
L 48.78125 44.1875 
Q 44.96875 46.296875 41.140625 47.34375 
Q 37.3125 48.390625 33.40625 48.390625 
Q 24.65625 48.390625 19.8125 42.84375 
Q 14.984375 37.3125 14.984375 27.296875 
Q 14.984375 17.28125 19.8125 11.734375 
Q 24.65625 6.203125 33.40625 6.203125 
Q 37.3125 6.203125 41.140625 7.25 
Q 44.96875 8.296875 48.78125 10.40625 
L 48.78125 2.09375 
Q 45.015625 0.34375 40.984375 -0.53125 
Q 36.96875 -1.421875 32.421875 -1.421875 
Q 20.0625 -1.421875 12.78125 6.34375 
Q 5.515625 14.109375 5.515625 27.296875 
Q 5.515625 40.671875 12.859375 48.328125 
Q 20.21875 56 33.015625 56 
Q 37.15625 56 41.109375 55.140625 
Q 45.0625 54.296875 48.78125 52.59375 
z
" id="DejaVuSans-99"/>
       </defs>
       <use xlink:href="#DejaVuSans-99"/>
       <use x="54.980469" xlink:href="#DejaVuSans-111"/>
       <use x="116.162109" xlink:href="#DejaVuSans-110"/>
       <use x="179.541016" xlink:href="#DejaVuSans-116"/>
       <use x="218.75" xlink:href="#DejaVuSans-114"/>
       <use x="259.863281" xlink:href="#DejaVuSans-97"/>
       <use x="321.142578" xlink:href="#DejaVuSans-115"/>
       <use x="373.242188" xlink:href="#DejaVuSans-116"/>
      </g>
     </g>
    </g>
    <g id="xtick_20">
     <g id="line2d_20">
      <path clip-path="url(#p181950e488)" d="M 170.708062 159.234125 
L 95.754948 49.298099 
" style="fill:none;stroke:#b0b0b0;stroke-linecap:square;stroke-width:0.8;"/>
     </g>
     <g id="text_20">
      <!-- homogeneity -->
      <g transform="translate(54.905967 40.490131)scale(0.1 -0.1)">
       <defs>
        <path d="M 32.171875 -5.078125 
Q 28.375 -14.84375 24.75 -17.8125 
Q 21.140625 -20.796875 15.09375 -20.796875 
L 7.90625 -20.796875 
L 7.90625 -13.28125 
L 13.1875 -13.28125 
Q 16.890625 -13.28125 18.9375 -11.515625 
Q 21 -9.765625 23.484375 -3.21875 
L 25.09375 0.875 
L 2.984375 54.6875 
L 12.5 54.6875 
L 29.59375 11.921875 
L 46.6875 54.6875 
L 56.203125 54.6875 
z
" id="DejaVuSans-121"/>
       </defs>
       <use xlink:href="#DejaVuSans-104"/>
       <use x="63.378906" xlink:href="#DejaVuSans-111"/>
       <use x="124.560547" xlink:href="#DejaVuSans-109"/>
       <use x="221.972656" xlink:href="#DejaVuSans-111"/>
       <use x="283.154297" xlink:href="#DejaVuSans-103"/>
       <use x="346.630859" xlink:href="#DejaVuSans-101"/>
       <use x="408.154297" xlink:href="#DejaVuSans-110"/>
       <use x="471.533203" xlink:href="#DejaVuSans-101"/>
       <use x="533.056641" xlink:href="#DejaVuSans-105"/>
       <use x="560.839844" xlink:href="#DejaVuSans-116"/>
       <use x="600.048828" xlink:href="#DejaVuSans-121"/>
      </g>
     </g>
    </g>
    <g id="xtick_21">
     <g id="line2d_21">
      <path clip-path="url(#p181950e488)" d="M 170.708062 159.234125 
L 131.489117 32.08943 
" style="fill:none;stroke:#b0b0b0;stroke-linecap:square;stroke-width:0.8;"/>
     </g>
     <g id="text_21">
      <!-- correlation -->
      <g transform="translate(100.535982 21.470785)scale(0.1 -0.1)">
       <use xlink:href="#DejaVuSans-99"/>
       <use x="54.980469" xlink:href="#DejaVuSans-111"/>
       <use x="116.162109" xlink:href="#DejaVuSans-114"/>
       <use x="155.525391" xlink:href="#DejaVuSans-114"/>
       <use x="194.388672" xlink:href="#DejaVuSans-101"/>
       <use x="255.912109" xlink:href="#DejaVuSans-108"/>
       <use x="283.695312" xlink:href="#DejaVuSans-97"/>
       <use x="344.974609" xlink:href="#DejaVuSans-116"/>
       <use x="384.183594" xlink:href="#DejaVuSans-105"/>
       <use x="411.966797" xlink:href="#DejaVuSans-111"/>
       <use x="473.148438" xlink:href="#DejaVuSans-110"/>
      </g>
     </g>
    </g>
   </g>
   <g id="matplotlib.axis_2">
    <g id="ytick_1">
     <g id="line2d_22">
      <path clip-path="url(#p181950e488)" d="M 170.708062 159.234125 
C 170.708062 159.234125 170.708062 159.234125 170.708062 159.234125 
C 170.708062 159.234125 170.708062 159.234125 170.708062 159.234125 
C 170.708062 159.234125 170.708062 159.234125 170.708062 159.234125 
C 170.708062 159.234125 170.708062 159.234125 170.708062 159.234125 
C 170.708062 159.234125 170.708062 159.234125 170.708062 159.234125 
C 170.708062 159.234125 170.708062 159.234125 170.708062 159.234125 
C 170.708062 159.234125 170.708062 159.234125 170.708062 159.234125 
C 170.708062 159.234125 170.708062 159.234125 170.708062 159.234125 
C 170.708062 159.234125 170.708062 159.234125 170.708062 159.234125 
C 170.708062 159.234125 170.708062 159.234125 170.708062 159.234125 
C 170.708062 159.234125 170.708062 159.234125 170.708062 159.234125 
C 170.708062 159.234125 170.708062 159.234125 170.708062 159.234125 
C 170.708062 159.234125 170.708062 159.234125 170.708062 159.234125 
C 170.708062 159.234125 170.708062 159.234125 170.708062 159.234125 
C 170.708062 159.234125 170.708062 159.234125 170.708062 159.234125 
C 170.708062 159.234125 170.708062 159.234125 170.708062 159.234125 
" style="fill:none;stroke:#b0b0b0;stroke-linecap:square;stroke-width:0.8;"/>
     </g>
     <g id="text_22">
      <!-- 0 -->
      <g style="fill:#808080;" transform="translate(170.708062 157.778344)scale(0.07 -0.07)">
       <defs>
        <path d="M 31.78125 66.40625 
Q 24.171875 66.40625 20.328125 58.90625 
Q 16.5 51.421875 16.5 36.375 
Q 16.5 21.390625 20.328125 13.890625 
Q 24.171875 6.390625 31.78125 6.390625 
Q 39.453125 6.390625 43.28125 13.890625 
Q 47.125 21.390625 47.125 36.375 
Q 47.125 51.421875 43.28125 58.90625 
Q 39.453125 66.40625 31.78125 66.40625 
z
M 31.78125 74.21875 
Q 44.046875 74.21875 50.515625 64.515625 
Q 56.984375 54.828125 56.984375 36.375 
Q 56.984375 17.96875 50.515625 8.265625 
Q 44.046875 -1.421875 31.78125 -1.421875 
Q 19.53125 -1.421875 13.0625 8.265625 
Q 6.59375 17.96875 6.59375 36.375 
Q 6.59375 54.828125 13.0625 64.515625 
Q 19.53125 74.21875 31.78125 74.21875 
z
" id="DejaVuSans-48"/>
       </defs>
       <use xlink:href="#DejaVuSans-48"/>
      </g>
     </g>
    </g>
    <g id="ytick_2">
     <g id="line2d_23">
      <path clip-path="url(#p181950e488)" d="M 170.708062 132.622925 
C 174.202612 132.622925 177.663183 133.311275 180.891727 134.648582 
C 184.120271 135.985889 187.054001 137.946144 189.525022 140.417165 
C 191.996042 142.888186 193.956298 145.821916 195.293605 149.05046 
C 196.630911 152.279004 197.319262 155.739574 197.319262 159.234125 
C 197.319262 162.728676 196.630911 166.189246 195.293605 169.41779 
C 193.956298 172.646334 191.996042 175.580064 189.525022 178.051085 
C 187.054001 180.522106 184.120271 182.482361 180.891727 183.819668 
C 177.663183 185.156975 174.202612 185.845325 170.708062 185.845325 
C 167.213511 185.845325 163.75294 185.156975 160.524396 183.819668 
C 157.295852 182.482361 154.362122 180.522106 151.891102 178.051085 
C 149.420081 175.580064 147.459825 172.646334 146.122519 169.41779 
C 144.785212 166.189246 144.096862 162.728676 144.096862 159.234125 
C 144.096862 155.739574 144.785212 152.279004 146.122519 149.05046 
C 147.459825 145.821916 149.420081 142.888186 151.891102 140.417165 
C 154.362122 137.946144 157.295852 135.985889 160.524396 134.648582 
C 163.75294 133.311275 167.213511 132.622925 170.708062 132.622925 
" style="fill:none;stroke:#b0b0b0;stroke-linecap:square;stroke-width:0.8;"/>
     </g>
     <g id="text_23">
      <!-- 0.2 -->
      <g style="fill:#808080;" transform="translate(170.708062 131.167144)scale(0.07 -0.07)">
       <defs>
        <path d="M 10.6875 12.40625 
L 21 12.40625 
L 21 0 
L 10.6875 0 
z
" id="DejaVuSans-46"/>
        <path d="M 19.1875 8.296875 
L 53.609375 8.296875 
L 53.609375 0 
L 7.328125 0 
L 7.328125 8.296875 
Q 12.9375 14.109375 22.625 23.890625 
Q 32.328125 33.6875 34.8125 36.53125 
Q 39.546875 41.84375 41.421875 45.53125 
Q 43.3125 49.21875 43.3125 52.78125 
Q 43.3125 58.59375 39.234375 62.25 
Q 35.15625 65.921875 28.609375 65.921875 
Q 23.96875 65.921875 18.8125 64.3125 
Q 13.671875 62.703125 7.8125 59.421875 
L 7.8125 69.390625 
Q 13.765625 71.78125 18.9375 73 
Q 24.125 74.21875 28.421875 74.21875 
Q 39.75 74.21875 46.484375 68.546875 
Q 53.21875 62.890625 53.21875 53.421875 
Q 53.21875 48.921875 51.53125 44.890625 
Q 49.859375 40.875 45.40625 35.40625 
Q 44.1875 33.984375 37.640625 27.21875 
Q 31.109375 20.453125 19.1875 8.296875 
z
" id="DejaVuSans-50"/>
       </defs>
       <use xlink:href="#DejaVuSans-48"/>
       <use x="63.623047" xlink:href="#DejaVuSans-46"/>
       <use x="95.410156" xlink:href="#DejaVuSans-50"/>
      </g>
     </g>
    </g>
    <g id="ytick_3">
     <g id="line2d_24">
      <path clip-path="url(#p181950e488)" d="M 170.708062 106.011725 
C 177.697163 106.011725 184.618304 107.388426 191.075392 110.063039 
C 197.53248 112.737652 203.39994 116.658164 208.341982 121.600205 
C 213.284023 126.542246 217.204534 132.409706 219.879148 138.866794 
C 222.553761 145.323882 223.930462 152.245023 223.930462 159.234125 
C 223.930462 166.223227 222.553761 173.144368 219.879148 179.601456 
C 217.204534 186.058544 213.284023 191.926004 208.341982 196.868045 
C 203.39994 201.810086 197.53248 205.730598 191.075392 208.405211 
C 184.618304 211.079824 177.697163 212.456525 170.708062 212.456525 
C 163.71896 212.456525 156.797819 211.079824 150.340731 208.405211 
C 143.883643 205.730598 138.016183 201.810086 133.074142 196.868045 
C 128.132101 191.926004 124.211589 186.058544 121.536976 179.601456 
C 118.862362 173.144368 117.485662 166.223227 117.485662 159.234125 
C 117.485662 152.245023 118.862362 145.323882 121.536976 138.866794 
C 124.211589 132.409706 128.132101 126.542246 133.074142 121.600205 
C 138.016183 116.658164 143.883643 112.737652 150.340731 110.063039 
C 156.797819 107.388426 163.71896 106.011725 170.708062 106.011725 
" style="fill:none;stroke:#b0b0b0;stroke-linecap:square;stroke-width:0.8;"/>
     </g>
     <g id="text_24">
      <!-- 0.4 -->
      <g style="fill:#808080;" transform="translate(170.708062 104.555944)scale(0.07 -0.07)">
       <defs>
        <path d="M 37.796875 64.3125 
L 12.890625 25.390625 
L 37.796875 25.390625 
z
M 35.203125 72.90625 
L 47.609375 72.90625 
L 47.609375 25.390625 
L 58.015625 25.390625 
L 58.015625 17.1875 
L 47.609375 17.1875 
L 47.609375 0 
L 37.796875 0 
L 37.796875 17.1875 
L 4.890625 17.1875 
L 4.890625 26.703125 
z
" id="DejaVuSans-52"/>
       </defs>
       <use xlink:href="#DejaVuSans-48"/>
       <use x="63.623047" xlink:href="#DejaVuSans-46"/>
       <use x="95.410156" xlink:href="#DejaVuSans-52"/>
      </g>
     </g>
    </g>
    <g id="ytick_4">
     <g id="line2d_25">
      <path clip-path="url(#p181950e488)" d="M 170.708062 79.400525 
C 181.191714 79.400525 191.573426 81.465576 201.259058 85.477496 
C 210.944689 89.489416 219.74588 95.370183 227.158941 102.783245 
C 234.572003 110.196307 240.452771 118.997497 244.464691 128.683129 
C 248.476611 138.368761 250.541662 148.750473 250.541662 159.234125 
C 250.541662 169.717777 248.476611 180.099489 244.464691 189.785121 
C 240.452771 199.470753 234.572003 208.271943 227.158941 215.685005 
C 219.74588 223.098067 210.944689 228.978834 201.259058 232.990754 
C 191.573426 237.002674 181.191714 239.067725 170.708062 239.067725 
C 160.224409 239.067725 149.842697 237.002674 140.157065 232.990754 
C 130.471434 228.978834 121.670243 223.098067 114.257182 215.685005 
C 106.84412 208.271943 100.963353 199.470753 96.951433 189.785121 
C 92.939512 180.099489 90.874462 169.717777 90.874462 159.234125 
C 90.874462 148.750473 92.939512 138.368761 96.951433 128.683129 
C 100.963353 118.997497 106.84412 110.196307 114.257182 102.783245 
C 121.670243 95.370183 130.471434 89.489416 140.157065 85.477496 
C 149.842697 81.465576 160.224409 79.400525 170.708062 79.400525 
" style="fill:none;stroke:#b0b0b0;stroke-linecap:square;stroke-width:0.8;"/>
     </g>
     <g id="text_25">
      <!-- 0.6 -->
      <g style="fill:#808080;" transform="translate(170.708062 77.944744)scale(0.07 -0.07)">
       <defs>
        <path d="M 33.015625 40.375 
Q 26.375 40.375 22.484375 35.828125 
Q 18.609375 31.296875 18.609375 23.390625 
Q 18.609375 15.53125 22.484375 10.953125 
Q 26.375 6.390625 33.015625 6.390625 
Q 39.65625 6.390625 43.53125 10.953125 
Q 47.40625 15.53125 47.40625 23.390625 
Q 47.40625 31.296875 43.53125 35.828125 
Q 39.65625 40.375 33.015625 40.375 
z
M 52.59375 71.296875 
L 52.59375 62.3125 
Q 48.875 64.0625 45.09375 64.984375 
Q 41.3125 65.921875 37.59375 65.921875 
Q 27.828125 65.921875 22.671875 59.328125 
Q 17.53125 52.734375 16.796875 39.40625 
Q 19.671875 43.65625 24.015625 45.921875 
Q 28.375 48.1875 33.59375 48.1875 
Q 44.578125 48.1875 50.953125 41.515625 
Q 57.328125 34.859375 57.328125 23.390625 
Q 57.328125 12.15625 50.6875 5.359375 
Q 44.046875 -1.421875 33.015625 -1.421875 
Q 20.359375 -1.421875 13.671875 8.265625 
Q 6.984375 17.96875 6.984375 36.375 
Q 6.984375 53.65625 15.1875 63.9375 
Q 23.390625 74.21875 37.203125 74.21875 
Q 40.921875 74.21875 44.703125 73.484375 
Q 48.484375 72.75 52.59375 71.296875 
z
" id="DejaVuSans-54"/>
       </defs>
       <use xlink:href="#DejaVuSans-48"/>
       <use x="63.623047" xlink:href="#DejaVuSans-46"/>
       <use x="95.410156" xlink:href="#DejaVuSans-54"/>
      </g>
     </g>
    </g>
    <g id="ytick_5">
     <g id="line2d_26">
      <path clip-path="url(#p181950e488)" d="M 170.708062 52.789325 
C 184.686265 52.789325 198.528547 55.542726 211.442723 60.891953 
C 224.356899 66.24118 236.091819 74.082203 245.975901 83.966285 
C 255.859984 93.850367 263.701007 105.585288 269.050234 118.499464 
C 274.39946 131.413639 277.152862 145.255922 277.152862 159.234125 
C 277.152862 173.212328 274.39946 187.054611 269.050234 199.968786 
C 263.701007 212.882962 255.859984 224.617883 245.975901 234.501965 
C 236.091819 244.386047 224.356899 252.22707 211.442723 257.576297 
C 198.528547 262.925524 184.686265 265.678925 170.708062 265.678925 
C 156.729858 265.678925 142.887576 262.925524 129.9734 257.576297 
C 117.059224 252.22707 105.324304 244.386047 95.440222 234.501965 
C 85.556139 224.617883 77.715116 212.882962 72.365889 199.968786 
C 67.016663 187.054611 64.263262 173.212328 64.263262 159.234125 
C 64.263262 145.255922 67.016663 131.413639 72.365889 118.499464 
C 77.715116 105.585288 85.556139 93.850367 95.440222 83.966285 
C 105.324304 74.082203 117.059224 66.24118 129.9734 60.891953 
C 142.887576 55.542726 156.729858 52.789325 170.708062 52.789325 
" style="fill:none;stroke:#b0b0b0;stroke-linecap:square;stroke-width:0.8;"/>
     </g>
     <g id="text_26">
      <!-- 0.8 -->
      <g style="fill:#808080;" transform="translate(170.708062 51.333544)scale(0.07 -0.07)">
       <defs>
        <path d="M 31.78125 34.625 
Q 24.75 34.625 20.71875 30.859375 
Q 16.703125 27.09375 16.703125 20.515625 
Q 16.703125 13.921875 20.71875 10.15625 
Q 24.75 6.390625 31.78125 6.390625 
Q 38.8125 6.390625 42.859375 10.171875 
Q 46.921875 13.96875 46.921875 20.515625 
Q 46.921875 27.09375 42.890625 30.859375 
Q 38.875 34.625 31.78125 34.625 
z
M 21.921875 38.8125 
Q 15.578125 40.375 12.03125 44.71875 
Q 8.5 49.078125 8.5 55.328125 
Q 8.5 64.0625 14.71875 69.140625 
Q 20.953125 74.21875 31.78125 74.21875 
Q 42.671875 74.21875 48.875 69.140625 
Q 55.078125 64.0625 55.078125 55.328125 
Q 55.078125 49.078125 51.53125 44.71875 
Q 48 40.375 41.703125 38.8125 
Q 48.828125 37.15625 52.796875 32.3125 
Q 56.78125 27.484375 56.78125 20.515625 
Q 56.78125 9.90625 50.3125 4.234375 
Q 43.84375 -1.421875 31.78125 -1.421875 
Q 19.734375 -1.421875 13.25 4.234375 
Q 6.78125 9.90625 6.78125 20.515625 
Q 6.78125 27.484375 10.78125 32.3125 
Q 14.796875 37.15625 21.921875 38.8125 
z
M 18.3125 54.390625 
Q 18.3125 48.734375 21.84375 45.5625 
Q 25.390625 42.390625 31.78125 42.390625 
Q 38.140625 42.390625 41.71875 45.5625 
Q 45.3125 48.734375 45.3125 54.390625 
Q 45.3125 60.0625 41.71875 63.234375 
Q 38.140625 66.40625 31.78125 66.40625 
Q 25.390625 66.40625 21.84375 63.234375 
Q 18.3125 60.0625 18.3125 54.390625 
z
" id="DejaVuSans-56"/>
       </defs>
       <use xlink:href="#DejaVuSans-48"/>
       <use x="63.623047" xlink:href="#DejaVuSans-46"/>
       <use x="95.410156" xlink:href="#DejaVuSans-56"/>
      </g>
     </g>
    </g>
    <g id="ytick_6">
     <g id="line2d_27">
      <path clip-path="url(#p181950e488)" d="M 170.708062 26.178125 
C 188.180815 26.178125 205.483669 29.619877 221.626388 36.30641 
C 237.769108 42.992943 252.437759 52.794222 264.792861 65.149325 
C 277.147964 77.504428 286.949243 92.173079 293.635777 108.315798 
C 300.32231 124.458518 303.764062 141.761371 303.764062 159.234125 
C 303.764062 176.706879 300.32231 194.009732 293.635777 210.152452 
C 286.949243 226.295171 277.147964 240.963822 264.792861 253.318925 
C 252.437759 265.674028 237.769108 275.475307 221.626388 282.16184 
C 205.483669 288.848373 188.180815 292.290125 170.708062 292.290125 
C 153.235308 292.290125 135.932454 288.848373 119.789735 282.16184 
C 103.647015 275.475307 88.978364 265.674028 76.623262 253.318925 
C 64.268159 240.963822 54.46688 226.295171 47.780346 210.152452 
C 41.093813 194.009732 37.652062 176.706879 37.652062 159.234125 
C 37.652062 141.761371 41.093813 124.458518 47.780346 108.315798 
C 54.46688 92.173079 64.268159 77.504428 76.623262 65.149325 
C 88.978364 52.794222 103.647015 42.992943 119.789735 36.30641 
C 135.932454 29.619877 153.235308 26.178125 170.708062 26.178125 
" style="fill:none;stroke:#b0b0b0;stroke-linecap:square;stroke-width:0.8;"/>
     </g>
     <g id="text_27">
      <!-- 1 -->
      <g style="fill:#808080;" transform="translate(170.708062 24.722344)scale(0.07 -0.07)">
       <defs>
        <path d="M 12.40625 8.296875 
L 28.515625 8.296875 
L 28.515625 63.921875 
L 10.984375 60.40625 
L 10.984375 69.390625 
L 28.421875 72.90625 
L 38.28125 72.90625 
L 38.28125 8.296875 
L 54.390625 8.296875 
L 54.390625 0 
L 12.40625 0 
z
" id="DejaVuSans-49"/>
       </defs>
       <use xlink:href="#DejaVuSans-49"/>
      </g>
     </g>
    </g>
   </g>
   <g id="line2d_28">
    <path clip-path="url(#p181950e488)" d="M 170.708062 95.851742 
L 191.875017 90.612541 
L 189.752783 131.300649 
L 222.758264 117.725474 
L 294.566399 110.62331 
L 285.514645 150.630561 
L 259.05885 179.399616 
L 285.937938 225.762125 
L 184.869385 174.496402 
L 210.874004 242.639564 
L 184.764485 252.492399 
L 158.072844 243.063314 
L 126.843035 250.320791 
L 99.943828 235.499831 
L 93.704846 203.691952 
L 87.786469 178.160437 
L 92.887399 153.402273 
L 65.151385 117.806182 
L 102.041353 104.474252 
L 112.813054 74.317745 
L 131.567682 32.344131 
L 170.708062 95.851742 
" style="fill:none;stroke:#1f77b4;stroke-linecap:square;stroke-width:1.5;"/>
   </g>
   <g id="line2d_29">
    <path clip-path="url(#p181950e488)" d="M 170.708062 29.651638 
L 209.927006 32.08943 
L 245.661175 49.298099 
L 274.735431 76.275066 
L 280.754006 116.044274 
L 281.984529 150.895107 
L 220.857044 170.680303 
L 227.440524 191.988628 
L 192.903703 183.155337 
L 221.375333 264.445798 
L 188.115114 274.722373 
L 150.877094 290.803999 
L 130.45169 242.827343 
L 103.426314 231.746603 
L 55.478185 225.762125 
L 113.427661 172.308003 
L 38.024113 149.290838 
L 56.00513 114.216542 
L 72.832273 81.180788 
L 106.069374 64.426583 
L 131.507423 32.148776 
L 170.708062 29.651638 
" style="fill:none;stroke:#ff7f0e;stroke-linecap:square;stroke-width:1.5;"/>
   </g>
   <g id="line2d_30">
    <path clip-path="url(#p181950e488)" d="M 170.708062 77.399926 
L 186.691582 107.416825 
L 188.620864 132.96087 
L 224.792671 116.103088 
L 243.273945 130.754114 
L 273.665302 151.518546 
L 300.42807 188.84187 
L 260.439116 211.040374 
L 261.209125 256.771075 
L 184.56525 188.008874 
L 176.022131 194.490675 
L 164.210333 202.343737 
L 125.660591 252.776162 
L 97.20616 238.450335 
L 104.278485 197.587259 
L 40.988053 188.84187 
L 102.120962 154.094232 
L 80.022317 123.642593 
L 114.108912 114.09781 
L 107.317441 66.257161 
L 131.545838 32.273313 
L 170.708062 77.399926 
" style="fill:none;stroke:#2ca02c;stroke-linecap:square;stroke-width:1.5;"/>
   </g>
   <g id="line2d_31">
    <path clip-path="url(#p181950e488)" d="M 170.708062 97.779083 
L 180.200873 128.459187 
L 178.911351 147.202109 
L 209.796263 128.062324 
L 227.816789 136.820601 
L 259.31092 152.594259 
L 228.314319 172.382377 
L 236.381623 197.150773 
L 201.862905 192.811061 
L 228.438896 279.113439 
L 190.539029 290.803999 
L 154.228476 268.569033 
L 112.977227 279.113439 
L 80.206998 256.771075 
L 98.728837 200.79135 
L 101.659216 174.994073 
L 86.132567 152.896068 
L 74.472147 121.464312 
L 66.680692 76.275066 
L 106.583187 65.180208 
L 131.59858 32.4443 
L 170.708062 97.779083 
" style="fill:none;stroke:#d62728;stroke-linecap:square;stroke-width:1.5;"/>
   </g>
   <g id="line2d_32">
    <path clip-path="url(#p181950e488)" d="M 170.708062 26.292485 
L 182.486016 121.050934 
L 192.953325 126.606317 
L 250.749075 95.403547 
L 204.021019 146.159753 
L 227.025684 155.013703 
L 223.359188 171.251401 
L 230.217195 193.591739 
L 193.762953 184.081389 
L 216.376991 254.066633 
L 186.602685 264.688058 
L 155.48334 260.243552 
L 116.439709 271.92352 
L 84.920295 251.691348 
L 93.710076 203.688933 
L 81.115123 179.683129 
L 77.375047 152.239782 
L 100.237418 131.576436 
L 88.298154 93.514417 
L 95.754948 49.298099 
L 131.53743 32.246057 
L 170.708062 26.292485 
" style="fill:none;stroke:#9467bd;stroke-linecap:square;stroke-width:1.5;"/>
   </g>
   <g id="line2d_33">
    <path clip-path="url(#p181950e488)" d="M 170.708062 26.178125 
L 195.595817 78.550003 
L 215.248621 93.905124 
L 261.15558 87.104636 
L 239.005404 132.429393 
L 259.47778 152.581754 
L 246.515312 176.536635 
L 266.124461 214.322809 
L 187.665609 177.510014 
L 210.323086 241.495571 
L 184.70263 252.082019 
L 157.511353 246.788564 
L 127.777371 248.380622 
L 99.905387 235.54126 
L 96.908746 201.84218 
L 90.996312 177.427812 
L 84.101787 152.743882 
L 46.849724 110.62331 
L 104.696378 106.591564 
L 101.982523 58.432274 
L 131.489117 32.08943 
L 170.708062 26.178125 
" style="fill:none;stroke:#8c564b;stroke-linecap:square;stroke-width:1.5;"/>
   </g>
   <g id="line2d_34">
    <path clip-path="url(#p181950e488)" d="M 170.708062 114.470763 
L 184.398697 114.850176 
L 179.625327 146.154899 
L 204.448436 132.327074 
L 285.11581 114.332392 
L 296.79834 149.784965 
L 225.052112 171.6378 
L 236.496513 197.217105 
L 185.965178 175.677386 
L 211.768488 244.496979 
L 184.701095 252.071837 
L 157.5065 246.820764 
L 119.886313 264.766573 
L 89.368865 246.896931 
L 105.732958 196.747518 
L 76.825022 180.662316 
L 85.010027 152.811945 
L 83.806123 125.127627 
L 86.571666 92.137588 
L 117.01694 80.483713 
L 131.632399 32.553939 
L 170.708062 114.470763 
" style="fill:none;stroke:#e377c2;stroke-linecap:square;stroke-width:1.5;"/>
   </g>
   <g id="line2d_35">
    <path clip-path="url(#p181950e488)" d="M 170.708062 117.619806 
L 183.520062 117.698639 
L 178.222412 148.212597 
L 201.305607 134.833397 
L 283.9478 114.790803 
L 303.39201 149.290838 
L 244.775612 176.13956 
L 261.902953 211.88552 
L 192.325445 182.532123 
L 212.750561 246.536274 
L 185.179815 255.247938 
L 156.42864 253.971894 
L 126.618241 250.787582 
L 99.144874 236.360898 
L 97.554906 201.469119 
L 94.807152 176.558012 
L 88.313759 153.059526 
L 70.039709 119.724708 
L 70.466731 79.294331 
L 119.234683 83.736545 
L 131.679437 32.706431 
L 170.708062 117.619806 
" style="fill:none;stroke:#7f7f7f;stroke-linecap:square;stroke-width:1.5;"/>
   </g>
   <g id="patch_3">
    <path d="M 170.708062 26.178125 
C 153.235308 26.178125 135.932454 29.619877 119.789735 36.30641 
C 103.647015 42.992943 88.978364 52.794222 76.623262 65.149325 
C 64.268159 77.504428 54.46688 92.173079 47.780346 108.315798 
C 41.093813 124.458518 37.652062 141.761371 37.652062 159.234125 
C 37.652062 176.706879 41.093813 194.009732 47.780346 210.152452 
C 54.46688 226.295171 64.268159 240.963822 76.623262 253.318925 
C 88.978364 265.674028 103.647015 275.475307 119.789735 282.16184 
C 135.932454 288.848373 153.235308 292.290125 170.708062 292.290125 
C 188.180815 292.290125 205.483669 288.848373 221.626388 282.16184 
C 237.769108 275.475307 252.437759 265.674028 264.792861 253.318925 
C 277.147964 240.963822 286.949243 226.295171 293.635777 210.152452 
C 300.32231 194.009732 303.764062 176.706879 303.764062 159.234125 
C 303.764062 141.761371 300.32231 124.458518 293.635777 108.315798 
C 286.949243 92.173079 277.147964 77.504428 264.792861 65.149325 
C 252.437759 52.794222 237.769108 42.992943 221.626388 36.30641 
C 205.483669 29.619877 188.180815 26.178125 170.708062 26.178125 
" style="fill:none;stroke:#000000;stroke-linecap:square;stroke-linejoin:miter;stroke-width:0.8;"/>
   </g>
   <g id="legend_1">
    <g id="patch_4">
     <path d="M 331.909643 219.446625 
L 488.50808 219.446625 
Q 490.50808 219.446625 490.50808 217.446625 
L 490.50808 101.021625 
Q 490.50808 99.021625 488.50808 99.021625 
L 331.909643 99.021625 
Q 329.909643 99.021625 329.909643 101.021625 
L 329.909643 217.446625 
Q 329.909643 219.446625 331.909643 219.446625 
z
" style="fill:#ffffff;opacity:0.8;stroke:#cccccc;stroke-linejoin:miter;"/>
    </g>
    <g id="line2d_36">
     <path d="M 333.909643 107.120062 
L 353.909643 107.120062 
" style="fill:none;stroke:#1f77b4;stroke-linecap:square;stroke-width:1.5;"/>
    </g>
    <g id="line2d_37"/>
    <g id="text_28">
     <!-- Acer pseudoplatanus -->
     <g transform="translate(361.909643 110.620062)scale(0.1 -0.1)">
      <defs>
       <path d="M 34.1875 63.1875 
L 20.796875 26.90625 
L 47.609375 26.90625 
z
M 28.609375 72.90625 
L 39.796875 72.90625 
L 67.578125 0 
L 57.328125 0 
L 50.6875 18.703125 
L 17.828125 18.703125 
L 11.1875 0 
L 0.78125 0 
z
" id="DejaVuSans-65"/>
       <path id="DejaVuSans-32"/>
      </defs>
      <use xlink:href="#DejaVuSans-65"/>
      <use x="66.658203" xlink:href="#DejaVuSans-99"/>
      <use x="121.638672" xlink:href="#DejaVuSans-101"/>
      <use x="183.162109" xlink:href="#DejaVuSans-114"/>
      <use x="224.275391" xlink:href="#DejaVuSans-32"/>
      <use x="256.0625" xlink:href="#DejaVuSans-112"/>
      <use x="319.539062" xlink:href="#DejaVuSans-115"/>
      <use x="371.638672" xlink:href="#DejaVuSans-101"/>
      <use x="433.162109" xlink:href="#DejaVuSans-117"/>
      <use x="496.541016" xlink:href="#DejaVuSans-100"/>
      <use x="560.017578" xlink:href="#DejaVuSans-111"/>
      <use x="621.199219" xlink:href="#DejaVuSans-112"/>
      <use x="684.675781" xlink:href="#DejaVuSans-108"/>
      <use x="712.458984" xlink:href="#DejaVuSans-97"/>
      <use x="773.738281" xlink:href="#DejaVuSans-116"/>
      <use x="812.947266" xlink:href="#DejaVuSans-97"/>
      <use x="874.226562" xlink:href="#DejaVuSans-110"/>
      <use x="937.605469" xlink:href="#DejaVuSans-117"/>
      <use x="1000.984375" xlink:href="#DejaVuSans-115"/>
     </g>
    </g>
    <g id="line2d_38">
     <path d="M 333.909643 121.798187 
L 353.909643 121.798187 
" style="fill:none;stroke:#ff7f0e;stroke-linecap:square;stroke-width:1.5;"/>
    </g>
    <g id="line2d_39"/>
    <g id="text_29">
     <!-- Aesculus hippocastanum -->
     <g transform="translate(361.909643 125.298187)scale(0.1 -0.1)">
      <use xlink:href="#DejaVuSans-65"/>
      <use x="66.658203" xlink:href="#DejaVuSans-101"/>
      <use x="128.181641" xlink:href="#DejaVuSans-115"/>
      <use x="180.28125" xlink:href="#DejaVuSans-99"/>
      <use x="235.261719" xlink:href="#DejaVuSans-117"/>
      <use x="298.640625" xlink:href="#DejaVuSans-108"/>
      <use x="326.423828" xlink:href="#DejaVuSans-117"/>
      <use x="389.802734" xlink:href="#DejaVuSans-115"/>
      <use x="441.902344" xlink:href="#DejaVuSans-32"/>
      <use x="473.689453" xlink:href="#DejaVuSans-104"/>
      <use x="537.068359" xlink:href="#DejaVuSans-105"/>
      <use x="564.851562" xlink:href="#DejaVuSans-112"/>
      <use x="628.328125" xlink:href="#DejaVuSans-112"/>
      <use x="691.804688" xlink:href="#DejaVuSans-111"/>
      <use x="752.986328" xlink:href="#DejaVuSans-99"/>
      <use x="807.966797" xlink:href="#DejaVuSans-97"/>
      <use x="869.246094" xlink:href="#DejaVuSans-115"/>
      <use x="921.345703" xlink:href="#DejaVuSans-116"/>
      <use x="960.554688" xlink:href="#DejaVuSans-97"/>
      <use x="1021.833984" xlink:href="#DejaVuSans-110"/>
      <use x="1085.212891" xlink:href="#DejaVuSans-117"/>
      <use x="1148.591797" xlink:href="#DejaVuSans-109"/>
     </g>
    </g>
    <g id="line2d_40">
     <path d="M 333.909643 136.476312 
L 353.909643 136.476312 
" style="fill:none;stroke:#2ca02c;stroke-linecap:square;stroke-width:1.5;"/>
    </g>
    <g id="line2d_41"/>
    <g id="text_30">
     <!-- Alnus glutinosa -->
     <g transform="translate(361.909643 139.976312)scale(0.1 -0.1)">
      <use xlink:href="#DejaVuSans-65"/>
      <use x="68.408203" xlink:href="#DejaVuSans-108"/>
      <use x="96.191406" xlink:href="#DejaVuSans-110"/>
      <use x="159.570312" xlink:href="#DejaVuSans-117"/>
      <use x="222.949219" xlink:href="#DejaVuSans-115"/>
      <use x="275.048828" xlink:href="#DejaVuSans-32"/>
      <use x="306.835938" xlink:href="#DejaVuSans-103"/>
      <use x="370.3125" xlink:href="#DejaVuSans-108"/>
      <use x="398.095703" xlink:href="#DejaVuSans-117"/>
      <use x="461.474609" xlink:href="#DejaVuSans-116"/>
      <use x="500.683594" xlink:href="#DejaVuSans-105"/>
      <use x="528.466797" xlink:href="#DejaVuSans-110"/>
      <use x="591.845703" xlink:href="#DejaVuSans-111"/>
      <use x="653.027344" xlink:href="#DejaVuSans-115"/>
      <use x="705.126953" xlink:href="#DejaVuSans-97"/>
     </g>
    </g>
    <g id="line2d_42">
     <path d="M 333.909643 151.154437 
L 353.909643 151.154437 
" style="fill:none;stroke:#d62728;stroke-linecap:square;stroke-width:1.5;"/>
    </g>
    <g id="line2d_43"/>
    <g id="text_31">
     <!-- Carpinus betulus -->
     <g transform="translate(361.909643 154.654437)scale(0.1 -0.1)">
      <defs>
       <path d="M 64.40625 67.28125 
L 64.40625 56.890625 
Q 59.421875 61.53125 53.78125 63.8125 
Q 48.140625 66.109375 41.796875 66.109375 
Q 29.296875 66.109375 22.65625 58.46875 
Q 16.015625 50.828125 16.015625 36.375 
Q 16.015625 21.96875 22.65625 14.328125 
Q 29.296875 6.6875 41.796875 6.6875 
Q 48.140625 6.6875 53.78125 8.984375 
Q 59.421875 11.28125 64.40625 15.921875 
L 64.40625 5.609375 
Q 59.234375 2.09375 53.4375 0.328125 
Q 47.65625 -1.421875 41.21875 -1.421875 
Q 24.65625 -1.421875 15.125 8.703125 
Q 5.609375 18.84375 5.609375 36.375 
Q 5.609375 53.953125 15.125 64.078125 
Q 24.65625 74.21875 41.21875 74.21875 
Q 47.75 74.21875 53.53125 72.484375 
Q 59.328125 70.75 64.40625 67.28125 
z
" id="DejaVuSans-67"/>
       <path d="M 48.6875 27.296875 
Q 48.6875 37.203125 44.609375 42.84375 
Q 40.53125 48.484375 33.40625 48.484375 
Q 26.265625 48.484375 22.1875 42.84375 
Q 18.109375 37.203125 18.109375 27.296875 
Q 18.109375 17.390625 22.1875 11.75 
Q 26.265625 6.109375 33.40625 6.109375 
Q 40.53125 6.109375 44.609375 11.75 
Q 48.6875 17.390625 48.6875 27.296875 
z
M 18.109375 46.390625 
Q 20.953125 51.265625 25.265625 53.625 
Q 29.59375 56 35.59375 56 
Q 45.5625 56 51.78125 48.09375 
Q 58.015625 40.1875 58.015625 27.296875 
Q 58.015625 14.40625 51.78125 6.484375 
Q 45.5625 -1.421875 35.59375 -1.421875 
Q 29.59375 -1.421875 25.265625 0.953125 
Q 20.953125 3.328125 18.109375 8.203125 
L 18.109375 0 
L 9.078125 0 
L 9.078125 75.984375 
L 18.109375 75.984375 
z
" id="DejaVuSans-98"/>
      </defs>
      <use xlink:href="#DejaVuSans-67"/>
      <use x="69.824219" xlink:href="#DejaVuSans-97"/>
      <use x="131.103516" xlink:href="#DejaVuSans-114"/>
      <use x="172.216797" xlink:href="#DejaVuSans-112"/>
      <use x="235.693359" xlink:href="#DejaVuSans-105"/>
      <use x="263.476562" xlink:href="#DejaVuSans-110"/>
      <use x="326.855469" xlink:href="#DejaVuSans-117"/>
      <use x="390.234375" xlink:href="#DejaVuSans-115"/>
      <use x="442.333984" xlink:href="#DejaVuSans-32"/>
      <use x="474.121094" xlink:href="#DejaVuSans-98"/>
      <use x="537.597656" xlink:href="#DejaVuSans-101"/>
      <use x="599.121094" xlink:href="#DejaVuSans-116"/>
      <use x="638.330078" xlink:href="#DejaVuSans-117"/>
      <use x="701.708984" xlink:href="#DejaVuSans-108"/>
      <use x="729.492188" xlink:href="#DejaVuSans-117"/>
      <use x="792.871094" xlink:href="#DejaVuSans-115"/>
     </g>
    </g>
    <g id="line2d_44">
     <path d="M 333.909643 165.832562 
L 353.909643 165.832562 
" style="fill:none;stroke:#9467bd;stroke-linecap:square;stroke-width:1.5;"/>
    </g>
    <g id="line2d_45"/>
    <g id="text_32">
     <!-- Fagus sylvatica -->
     <g transform="translate(361.909643 169.332562)scale(0.1 -0.1)">
      <defs>
       <path d="M 9.8125 72.90625 
L 51.703125 72.90625 
L 51.703125 64.59375 
L 19.671875 64.59375 
L 19.671875 43.109375 
L 48.578125 43.109375 
L 48.578125 34.8125 
L 19.671875 34.8125 
L 19.671875 0 
L 9.8125 0 
z
" id="DejaVuSans-70"/>
      </defs>
      <use xlink:href="#DejaVuSans-70"/>
      <use x="48.394531" xlink:href="#DejaVuSans-97"/>
      <use x="109.673828" xlink:href="#DejaVuSans-103"/>
      <use x="173.150391" xlink:href="#DejaVuSans-117"/>
      <use x="236.529297" xlink:href="#DejaVuSans-115"/>
      <use x="288.628906" xlink:href="#DejaVuSans-32"/>
      <use x="320.416016" xlink:href="#DejaVuSans-115"/>
      <use x="372.515625" xlink:href="#DejaVuSans-121"/>
      <use x="431.695312" xlink:href="#DejaVuSans-108"/>
      <use x="459.478516" xlink:href="#DejaVuSans-118"/>
      <use x="518.658203" xlink:href="#DejaVuSans-97"/>
      <use x="579.9375" xlink:href="#DejaVuSans-116"/>
      <use x="619.146484" xlink:href="#DejaVuSans-105"/>
      <use x="646.929688" xlink:href="#DejaVuSans-99"/>
      <use x="701.910156" xlink:href="#DejaVuSans-97"/>
     </g>
    </g>
    <g id="line2d_46">
     <path d="M 333.909643 180.510687 
L 353.909643 180.510687 
" style="fill:none;stroke:#8c564b;stroke-linecap:square;stroke-width:1.5;"/>
    </g>
    <g id="line2d_47"/>
    <g id="text_33">
     <!-- Populus canadensis -->
     <g transform="translate(361.909643 184.010687)scale(0.1 -0.1)">
      <defs>
       <path d="M 19.671875 64.796875 
L 19.671875 37.40625 
L 32.078125 37.40625 
Q 38.96875 37.40625 42.71875 40.96875 
Q 46.484375 44.53125 46.484375 51.125 
Q 46.484375 57.671875 42.71875 61.234375 
Q 38.96875 64.796875 32.078125 64.796875 
z
M 9.8125 72.90625 
L 32.078125 72.90625 
Q 44.34375 72.90625 50.609375 67.359375 
Q 56.890625 61.8125 56.890625 51.125 
Q 56.890625 40.328125 50.609375 34.8125 
Q 44.34375 29.296875 32.078125 29.296875 
L 19.671875 29.296875 
L 19.671875 0 
L 9.8125 0 
z
" id="DejaVuSans-80"/>
      </defs>
      <use xlink:href="#DejaVuSans-80"/>
      <use x="56.677734" xlink:href="#DejaVuSans-111"/>
      <use x="117.859375" xlink:href="#DejaVuSans-112"/>
      <use x="181.335938" xlink:href="#DejaVuSans-117"/>
      <use x="244.714844" xlink:href="#DejaVuSans-108"/>
      <use x="272.498047" xlink:href="#DejaVuSans-117"/>
      <use x="335.876953" xlink:href="#DejaVuSans-115"/>
      <use x="387.976562" xlink:href="#DejaVuSans-32"/>
      <use x="419.763672" xlink:href="#DejaVuSans-99"/>
      <use x="474.744141" xlink:href="#DejaVuSans-97"/>
      <use x="536.023438" xlink:href="#DejaVuSans-110"/>
      <use x="599.402344" xlink:href="#DejaVuSans-97"/>
      <use x="660.681641" xlink:href="#DejaVuSans-100"/>
      <use x="724.158203" xlink:href="#DejaVuSans-101"/>
      <use x="785.681641" xlink:href="#DejaVuSans-110"/>
      <use x="849.060547" xlink:href="#DejaVuSans-115"/>
      <use x="901.160156" xlink:href="#DejaVuSans-105"/>
      <use x="928.943359" xlink:href="#DejaVuSans-115"/>
     </g>
    </g>
    <g id="line2d_48">
     <path d="M 333.909643 195.188812 
L 353.909643 195.188812 
" style="fill:none;stroke:#e377c2;stroke-linecap:square;stroke-width:1.5;"/>
    </g>
    <g id="line2d_49"/>
    <g id="text_34">
     <!-- Quercus petraea -->
     <g transform="translate(361.909643 198.688812)scale(0.1 -0.1)">
      <defs>
       <path d="M 39.40625 66.21875 
Q 28.65625 66.21875 22.328125 58.203125 
Q 16.015625 50.203125 16.015625 36.375 
Q 16.015625 22.609375 22.328125 14.59375 
Q 28.65625 6.59375 39.40625 6.59375 
Q 50.140625 6.59375 56.421875 14.59375 
Q 62.703125 22.609375 62.703125 36.375 
Q 62.703125 50.203125 56.421875 58.203125 
Q 50.140625 66.21875 39.40625 66.21875 
z
M 53.21875 1.3125 
L 66.21875 -12.890625 
L 54.296875 -12.890625 
L 43.5 -1.21875 
Q 41.890625 -1.3125 41.03125 -1.359375 
Q 40.1875 -1.421875 39.40625 -1.421875 
Q 24.03125 -1.421875 14.8125 8.859375 
Q 5.609375 19.140625 5.609375 36.375 
Q 5.609375 53.65625 14.8125 63.9375 
Q 24.03125 74.21875 39.40625 74.21875 
Q 54.734375 74.21875 63.90625 63.9375 
Q 73.09375 53.65625 73.09375 36.375 
Q 73.09375 23.6875 67.984375 14.640625 
Q 62.890625 5.609375 53.21875 1.3125 
z
" id="DejaVuSans-81"/>
      </defs>
      <use xlink:href="#DejaVuSans-81"/>
      <use x="78.710938" xlink:href="#DejaVuSans-117"/>
      <use x="142.089844" xlink:href="#DejaVuSans-101"/>
      <use x="203.613281" xlink:href="#DejaVuSans-114"/>
      <use x="242.476562" xlink:href="#DejaVuSans-99"/>
      <use x="297.457031" xlink:href="#DejaVuSans-117"/>
      <use x="360.835938" xlink:href="#DejaVuSans-115"/>
      <use x="412.935547" xlink:href="#DejaVuSans-32"/>
      <use x="444.722656" xlink:href="#DejaVuSans-112"/>
      <use x="508.199219" xlink:href="#DejaVuSans-101"/>
      <use x="569.722656" xlink:href="#DejaVuSans-116"/>
      <use x="608.931641" xlink:href="#DejaVuSans-114"/>
      <use x="650.044922" xlink:href="#DejaVuSans-97"/>
      <use x="711.324219" xlink:href="#DejaVuSans-101"/>
      <use x="772.847656" xlink:href="#DejaVuSans-97"/>
     </g>
    </g>
    <g id="line2d_50">
     <path d="M 333.909643 209.866937 
L 353.909643 209.866937 
" style="fill:none;stroke:#7f7f7f;stroke-linecap:square;stroke-width:1.5;"/>
    </g>
    <g id="line2d_51"/>
    <g id="text_35">
     <!-- Tilia platyphyllos -->
     <g transform="translate(361.909643 213.366937)scale(0.1 -0.1)">
      <defs>
       <path d="M -0.296875 72.90625 
L 61.375 72.90625 
L 61.375 64.59375 
L 35.5 64.59375 
L 35.5 0 
L 25.59375 0 
L 25.59375 64.59375 
L -0.296875 64.59375 
z
" id="DejaVuSans-84"/>
      </defs>
      <use xlink:href="#DejaVuSans-84"/>
      <use x="57.958984" xlink:href="#DejaVuSans-105"/>
      <use x="85.742188" xlink:href="#DejaVuSans-108"/>
      <use x="113.525391" xlink:href="#DejaVuSans-105"/>
      <use x="141.308594" xlink:href="#DejaVuSans-97"/>
      <use x="202.587891" xlink:href="#DejaVuSans-32"/>
      <use x="234.375" xlink:href="#DejaVuSans-112"/>
      <use x="297.851562" xlink:href="#DejaVuSans-108"/>
      <use x="325.634766" xlink:href="#DejaVuSans-97"/>
      <use x="386.914062" xlink:href="#DejaVuSans-116"/>
      <use x="426.123047" xlink:href="#DejaVuSans-121"/>
      <use x="485.302734" xlink:href="#DejaVuSans-112"/>
      <use x="548.779297" xlink:href="#DejaVuSans-104"/>
      <use x="612.158203" xlink:href="#DejaVuSans-121"/>
      <use x="671.337891" xlink:href="#DejaVuSans-108"/>
      <use x="699.121094" xlink:href="#DejaVuSans-108"/>
      <use x="726.904297" xlink:href="#DejaVuSans-111"/>
      <use x="788.085938" xlink:href="#DejaVuSans-115"/>
     </g>
    </g>
   </g>
  </g>
 </g>
 <defs>
  <clipPath id="p181950e488">
   <path d="M 303.764062 159.234125 
C 303.764062 141.761371 300.32231 124.458518 293.635777 108.315798 
C 286.949243 92.173079 277.147964 77.504428 264.792861 65.149325 
C 252.437759 52.794222 237.769108 42.992943 221.626388 36.30641 
C 205.483669 29.619877 188.180815 26.178125 170.708062 26.178125 
C 153.235308 26.178125 135.932454 29.619877 119.789735 36.30641 
C 103.647015 42.992943 88.978364 52.794222 76.623262 65.149325 
C 64.268159 77.504428 54.46688 92.173079 47.780346 108.315798 
C 41.093813 124.458518 37.652062 141.761371 37.652062 159.234125 
C 37.652062 176.706879 41.093813 194.009732 47.780346 210.152452 
C 54.46688 226.295171 64.268159 240.963822 76.623262 253.318925 
C 88.978364 265.674028 103.647015 275.475307 119.789735 282.16184 
C 135.932454 288.848373 153.235308 292.290125 170.708062 292.290125 
C 188.180815 292.290125 205.483669 288.848373 221.626388 282.16184 
C 237.769108 275.475307 252.437759 265.674028 264.792861 253.318925 
C 277.147964 240.963822 286.949243 226.295171 293.635777 210.152452 
C 300.32231 194.009732 303.764062 176.706879 303.764062 159.234125 
M 170.708062 159.234125 
C 170.708062 159.234125 170.708062 159.234125 170.708062 159.234125 
C 170.708062 159.234125 170.708062 159.234125 170.708062 159.234125 
C 170.708062 159.234125 170.708062 159.234125 170.708062 159.234125 
C 170.708062 159.234125 170.708062 159.234125 170.708062 159.234125 
C 170.708062 159.234125 170.708062 159.234125 170.708062 159.234125 
C 170.708062 159.234125 170.708062 159.234125 170.708062 159.234125 
C 170.708062 159.234125 170.708062 159.234125 170.708062 159.234125 
C 170.708062 159.234125 170.708062 159.234125 170.708062 159.234125 
C 170.708062 159.234125 170.708062 159.234125 170.708062 159.234125 
C 170.708062 159.234125 170.708062 159.234125 170.708062 159.234125 
C 170.708062 159.234125 170.708062 159.234125 170.708062 159.234125 
C 170.708062 159.234125 170.708062 159.234125 170.708062 159.234125 
C 170.708062 159.234125 170.708062 159.234125 170.708062 159.234125 
C 170.708062 159.234125 170.708062 159.234125 170.708062 159.234125 
C 170.708062 159.234125 170.708062 159.234125 170.708062 159.234125 
C 170.708062 159.234125 170.708062 159.234125 170.708062 159.234125 
M 303.764062 159.234125 
z
"/>
  </clipPath>
 </defs>
</svg>
